<svg xmlns="http://www.w3.org/2000/svg" xmlns:xlink="http://www.w3.org/1999/xlink" width="500" zoomAndPan="magnify" viewBox="0 0 375 374.999991" height="500" preserveAspectRatio="xMidYMid meet" version="1.0"><defs><g/><clipPath id="f7695260d7"><path d="M 150.132812 161.082031 L 225.566406 161.082031 L 225.566406 188.296875 L 150.132812 188.296875 Z M 150.132812 161.082031 " clip-rule="nonzero"/></clipPath><clipPath id="a3c6762eb1"><path d="M 179 166 L 222 166 L 222 188.296875 L 179 188.296875 Z M 179 166 " clip-rule="nonzero"/></clipPath><clipPath id="d066bc48a4"><path d="M 183 171 L 218 171 L 218 188.296875 L 183 188.296875 Z M 183 171 " clip-rule="nonzero"/></clipPath><clipPath id="3367bf3479"><path d="M 193 180 L 208 180 L 208 188.296875 L 193 188.296875 Z M 193 180 " clip-rule="nonzero"/></clipPath><clipPath id="33d7153207"><path d="M 243.863281 208.15625 L 248.886719 208.15625 L 248.886719 213.179688 L 243.863281 213.179688 Z M 243.863281 208.15625 " clip-rule="nonzero"/></clipPath><clipPath id="e6c8443fcf"><path d="M 246.375 208.15625 C 244.988281 208.15625 243.863281 209.28125 243.863281 210.667969 C 243.863281 212.054688 244.988281 213.179688 246.375 213.179688 C 247.761719 213.179688 248.886719 212.054688 248.886719 210.667969 C 248.886719 209.28125 247.761719 208.15625 246.375 208.15625 Z M 246.375 208.15625 " clip-rule="nonzero"/></clipPath><clipPath id="53466b16b1"><path d="M 87.023438 210 L 243 210 L 243 233 L 87.023438 233 Z M 87.023438 210 " clip-rule="nonzero"/></clipPath><clipPath id="08159f6544"><path d="M 87.023438 221.480469 C 87.023438 227.878906 92.214844 233.066406 98.613281 233.066406 L 234.785156 233.066406 C 241.1875 233.066406 246.375 227.878906 246.375 221.480469 C 246.375 215.078125 241.1875 209.890625 234.785156 209.890625 L 98.613281 209.890625 C 92.214844 209.890625 87.023438 215.078125 87.023438 221.480469 Z M 87.023438 221.480469 " clip-rule="nonzero"/></clipPath><clipPath id="639af1f3b5"><path d="M 245 210 L 246.445312 210 L 246.445312 212 L 245 212 Z M 245 210 " clip-rule="nonzero"/></clipPath><clipPath id="bfbf4742cd"><path d="M 87.023438 221.480469 C 87.023438 227.878906 92.214844 233.066406 98.613281 233.066406 L 234.785156 233.066406 C 241.1875 233.066406 246.375 227.878906 246.375 221.480469 C 246.375 215.078125 241.1875 209.890625 234.785156 209.890625 L 98.613281 209.890625 C 92.214844 209.890625 87.023438 215.078125 87.023438 221.480469 Z M 87.023438 221.480469 " clip-rule="nonzero"/></clipPath></defs><g clip-path="url(#f7695260d7)"><path fill="#bf0404" d="M 224.703125 187.488281 C 224.640625 187.488281 224.648438 186.335938 224.675781 184.21875 C 224.703125 182.101562 224.765625 179.015625 224.742188 175.144531 C 224.722656 173.210938 224.695312 171.074219 224.53125 168.785156 C 224.488281 168.210938 224.433594 167.632812 224.359375 167.046875 C 224.339844 166.902344 224.320312 166.757812 224.296875 166.613281 C 224.273438 166.46875 224.246094 166.328125 224.214844 166.1875 C 224.15625 165.90625 224.078125 165.625 223.976562 165.355469 C 223.777344 164.816406 223.488281 164.308594 223.097656 163.886719 C 222.703125 163.464844 222.210938 163.128906 221.652344 162.875 C 221.09375 162.625 220.476562 162.457031 219.835938 162.339844 C 219.195312 162.222656 218.523438 162.15625 217.84375 162.121094 C 216.476562 162.046875 215.054688 162.078125 213.59375 162.117188 L 211.375 162.175781 C 210.652344 162.199219 209.921875 162.265625 209.214844 162.410156 C 208.511719 162.558594 207.816406 162.789062 207.230469 163.152344 C 206.933594 163.332031 206.667969 163.550781 206.457031 163.796875 C 206.347656 163.921875 206.253906 164.054688 206.175781 164.195312 C 206.136719 164.265625 206.101562 164.335938 206.070312 164.40625 C 206.054688 164.441406 206.042969 164.476562 206.027344 164.515625 L 206.019531 164.546875 L 205.996094 164.617188 C 205.984375 164.664062 205.972656 164.710938 205.964844 164.761719 L 205.699219 165.019531 C 205.632812 165.085938 205.542969 165.164062 205.425781 165.273438 L 186.804688 165.367188 L 170.277344 165.414062 L 170.257812 165.425781 C 170.203125 165.464844 170.148438 165.503906 170.09375 165.542969 C 169.980469 165.617188 169.867188 165.6875 169.75 165.757812 C 169.519531 165.890625 169.285156 166.011719 169.050781 166.121094 C 168.574219 166.34375 168.09375 166.523438 167.605469 166.671875 C 167.355469 166.746094 167.117188 166.808594 166.851562 166.867188 L 166.777344 166.878906 C 166.742188 166.882812 166.703125 166.886719 166.664062 166.890625 C 166.582031 166.890625 166.496094 166.878906 166.410156 166.851562 C 166.234375 166.800781 166.089844 166.679688 166.003906 166.566406 C 165.835938 166.335938 165.808594 166.136719 165.785156 165.960938 C 165.78125 165.914062 165.78125 165.871094 165.777344 165.828125 L 165.777344 165.546875 L 165.78125 165.1875 L 165.78125 163.941406 C 165.78125 163.917969 165.78125 163.894531 165.777344 163.878906 C 165.765625 163.84375 165.753906 163.820312 165.726562 163.785156 C 165.699219 163.753906 165.652344 163.71875 165.59375 163.683594 C 165.53125 163.652344 165.457031 163.621094 165.378906 163.601562 C 165.324219 163.585938 165.335938 163.589844 165.328125 163.589844 L 165.15625 163.589844 L 164.457031 163.585938 L 161.703125 163.574219 L 156.425781 163.546875 L 155.15625 163.539062 C 155.128906 163.539062 155.136719 163.539062 155.117188 163.542969 C 155.089844 163.550781 155.0625 163.558594 155.035156 163.570312 C 154.984375 163.59375 154.9375 163.621094 154.898438 163.65625 C 154.824219 163.722656 154.777344 163.808594 154.75 163.9375 C 154.746094 163.96875 154.742188 164.003906 154.738281 164.039062 C 154.734375 164.074219 154.734375 164.105469 154.734375 164.164062 L 154.730469 164.46875 L 154.726562 165.078125 L 154.714844 166.734375 L 154.078125 166.695312 C 153.976562 166.691406 153.867188 166.691406 153.773438 166.695312 C 153.722656 166.699219 153.671875 166.699219 153.621094 166.707031 C 153.421875 166.722656 153.226562 166.757812 153.042969 166.816406 C 152.671875 166.925781 152.34375 167.121094 152.074219 167.382812 C 151.527344 167.914062 151.21875 168.679688 151.0625 169.445312 C 150.980469 169.828125 150.933594 170.222656 150.925781 170.597656 L 150.914062 171.796875 L 150.890625 174.09375 C 150.859375 177.054688 150.824219 179.625 150.789062 181.734375 C 150.710938 185.949219 150.628906 188.324219 150.539062 188.324219 C 150.449219 188.324219 150.367188 185.949219 150.292969 181.734375 C 150.253906 179.625 150.21875 177.054688 150.1875 174.09375 L 150.164062 171.796875 L 150.152344 170.589844 C 150.15625 170.152344 150.199219 169.722656 150.28125 169.289062 C 150.363281 168.855469 150.488281 168.414062 150.679688 167.988281 C 150.867188 167.5625 151.128906 167.140625 151.484375 166.789062 C 151.839844 166.429688 152.292969 166.152344 152.785156 165.996094 C 153.03125 165.917969 153.285156 165.867188 153.539062 165.84375 C 153.601562 165.835938 153.664062 165.832031 153.730469 165.828125 L 153.769531 165.824219 C 153.792969 165.824219 153.816406 165.824219 153.839844 165.824219 C 153.847656 165.808594 153.839844 165.78125 153.839844 165.765625 L 153.839844 165.683594 L 153.835938 165.078125 L 153.832031 164.46875 L 153.828125 164.164062 C 153.828125 164.117188 153.828125 164.042969 153.832031 163.980469 C 153.839844 163.910156 153.847656 163.84375 153.859375 163.773438 C 153.90625 163.496094 154.046875 163.191406 154.28125 162.980469 C 154.398438 162.871094 154.53125 162.789062 154.671875 162.726562 C 154.738281 162.695312 154.8125 162.671875 154.886719 162.652344 C 154.964844 162.628906 155.078125 162.613281 155.15625 162.617188 L 156.425781 162.609375 L 161.703125 162.582031 L 164.457031 162.570312 L 165.160156 162.570312 L 165.339844 162.566406 C 165.394531 162.566406 165.449219 162.570312 165.507812 162.582031 C 165.566406 162.59375 165.59375 162.601562 165.636719 162.609375 C 165.785156 162.648438 165.929688 162.703125 166.078125 162.78125 C 166.222656 162.859375 166.371094 162.960938 166.5 163.109375 C 166.628906 163.25 166.730469 163.441406 166.777344 163.636719 C 166.800781 163.734375 166.8125 163.832031 166.8125 163.925781 L 166.816406 164.113281 L 166.816406 164.46875 L 166.820312 165.1875 L 166.820312 165.726562 L 166.824219 165.808594 C 166.824219 165.824219 166.824219 165.84375 166.828125 165.859375 C 166.828125 165.886719 166.835938 165.914062 166.839844 165.929688 L 166.84375 165.941406 C 166.800781 165.960938 166.757812 165.988281 166.726562 166.011719 C 166.660156 166.0625 166.640625 166.109375 166.644531 166.097656 C 166.648438 166.09375 166.652344 166.078125 166.652344 166.046875 C 166.648438 166.035156 166.648438 166.015625 166.644531 165.996094 L 166.617188 165.84375 L 166.640625 165.839844 C 166.847656 165.792969 167.078125 165.730469 167.296875 165.664062 C 167.742188 165.527344 168.179688 165.359375 168.597656 165.164062 C 168.808594 165.0625 169.011719 164.957031 169.210938 164.839844 C 169.308594 164.78125 169.402344 164.71875 169.496094 164.65625 C 169.546875 164.625 169.589844 164.59375 169.636719 164.558594 L 169.769531 164.457031 L 169.917969 164.347656 L 186.800781 164.257812 L 205.007812 164.214844 C 205.007812 164.214844 205.015625 164.214844 205.015625 164.210938 C 205.015625 164.210938 205.019531 164.207031 205.019531 164.203125 L 205.035156 164.160156 C 205.054688 164.105469 205.078125 164.046875 205.101562 163.992188 C 205.148438 163.882812 205.199219 163.777344 205.257812 163.675781 C 205.375 163.472656 205.511719 163.28125 205.660156 163.109375 C 205.960938 162.765625 206.3125 162.488281 206.683594 162.261719 C 207.425781 161.8125 208.222656 161.5625 209.007812 161.40625 C 209.796875 161.246094 210.582031 161.183594 211.351562 161.167969 L 213.570312 161.125 C 215.039062 161.101562 216.480469 161.082031 217.898438 161.171875 C 218.609375 161.21875 219.3125 161.292969 220.007812 161.429688 C 220.699219 161.5625 221.386719 161.753906 222.03125 162.054688 C 222.671875 162.355469 223.273438 162.769531 223.742188 163.296875 C 224.21875 163.820312 224.554688 164.441406 224.777344 165.066406 C 224.886719 165.382812 224.972656 165.699219 225.035156 166.015625 C 225.066406 166.171875 225.09375 166.332031 225.113281 166.488281 C 225.136719 166.640625 225.15625 166.792969 225.171875 166.945312 C 225.242188 167.554688 225.289062 168.148438 225.320312 168.730469 C 225.445312 171.058594 225.429688 173.203125 225.402344 175.144531 C 225.335938 179.03125 225.167969 182.117188 225.03125 184.234375 C 224.890625 186.347656 224.765625 187.492188 224.703125 187.488281 Z M 224.703125 187.488281 " fill-opacity="1" fill-rule="evenodd"/></g><g clip-path="url(#a3c6762eb1)"><path fill="#bf0404" d="M 221.601562 188.382812 C 221.5625 188.382812 221.527344 188.15625 221.476562 187.71875 C 221.429688 187.285156 221.363281 186.644531 221.230469 185.832031 C 221.09375 185.019531 220.894531 184.03125 220.558594 182.914062 C 220.222656 181.800781 219.75 180.558594 219.078125 179.257812 C 218.402344 177.964844 217.535156 176.613281 216.421875 175.308594 C 215.3125 174.003906 213.96875 172.746094 212.386719 171.652344 C 210.808594 170.5625 208.996094 169.636719 207.011719 168.996094 C 205.027344 168.351562 202.871094 167.996094 200.660156 167.996094 C 198.445312 167.996094 196.289062 168.351562 194.308594 168.996094 C 192.320312 169.636719 190.507812 170.5625 188.929688 171.652344 C 187.351562 172.746094 186.003906 174.003906 184.894531 175.308594 C 183.785156 176.613281 182.914062 177.964844 182.242188 179.257812 C 181.570312 180.558594 181.097656 181.800781 180.761719 182.914062 C 180.425781 184.03125 180.222656 185.019531 180.089844 185.832031 C 179.957031 186.648438 179.890625 187.285156 179.839844 187.71875 C 179.792969 188.15625 179.757812 188.382812 179.71875 188.382812 C 179.679688 188.382812 179.640625 188.15625 179.617188 187.710938 C 179.59375 187.273438 179.59375 186.617188 179.660156 185.78125 C 179.730469 184.941406 179.875 183.917969 180.164062 182.75 C 180.453125 181.585938 180.886719 180.28125 181.539062 178.910156 C 182.191406 177.542969 183.058594 176.109375 184.1875 174.71875 C 185.316406 173.332031 186.703125 171.988281 188.34375 170.816406 C 189.984375 169.644531 191.882812 168.652344 193.96875 167.960938 C 196.054688 167.269531 198.328125 166.886719 200.660156 166.886719 C 202.992188 166.886719 205.265625 167.269531 207.351562 167.960938 C 209.4375 168.652344 211.335938 169.644531 212.976562 170.816406 C 214.617188 171.988281 216.003906 173.332031 217.132812 174.71875 C 218.257812 176.109375 219.128906 177.542969 219.78125 178.910156 C 220.429688 180.28125 220.867188 181.585938 221.15625 182.75 C 221.445312 183.914062 221.589844 184.941406 221.65625 185.78125 C 221.726562 186.617188 221.722656 187.273438 221.703125 187.710938 C 221.679688 188.15625 221.636719 188.382812 221.601562 188.382812 Z M 221.601562 188.382812 " fill-opacity="1" fill-rule="evenodd"/></g><g clip-path="url(#d066bc48a4)"><path fill="#bf0404" d="M 217.316406 188.382812 C 217.277344 188.382812 217.242188 188.203125 217.195312 187.855469 C 217.148438 187.511719 217.085938 187.003906 216.976562 186.359375 C 216.75 185.078125 216.308594 183.214844 215.234375 181.164062 C 214.699219 180.136719 214.003906 179.074219 213.125 178.042969 C 212.246094 177.015625 211.175781 176.023438 209.925781 175.164062 C 208.679688 174.300781 207.246094 173.574219 205.675781 173.070312 C 204.109375 172.5625 202.40625 172.28125 200.660156 172.285156 C 198.910156 172.28125 197.207031 172.5625 195.640625 173.070312 C 194.074219 173.574219 192.640625 174.300781 191.390625 175.164062 C 190.140625 176.023438 189.074219 177.015625 188.195312 178.042969 C 187.3125 179.074219 186.621094 180.136719 186.082031 181.164062 C 185.007812 183.214844 184.566406 185.078125 184.34375 186.359375 C 184.230469 187.003906 184.171875 187.511719 184.125 187.855469 C 184.078125 188.203125 184.042969 188.382812 184.003906 188.382812 C 183.964844 188.382812 183.925781 188.203125 183.902344 187.847656 C 183.875 187.496094 183.867188 186.976562 183.914062 186.308594 C 183.964844 185.636719 184.070312 184.820312 184.296875 183.886719 C 184.519531 182.957031 184.863281 181.910156 185.378906 180.8125 C 185.898438 179.71875 186.585938 178.570312 187.488281 177.457031 C 188.382812 176.34375 189.492188 175.265625 190.804688 174.328125 C 192.117188 173.386719 193.632812 172.589844 195.304688 172.035156 C 196.972656 171.480469 198.792969 171.175781 200.660156 171.175781 C 202.523438 171.171875 204.347656 171.480469 206.015625 172.035156 C 207.683594 172.589844 209.203125 173.386719 210.515625 174.328125 C 211.828125 175.265625 212.933594 176.34375 213.832031 177.457031 C 214.730469 178.570312 215.421875 179.71875 215.9375 180.8125 C 216.453125 181.910156 216.796875 182.957031 217.023438 183.886719 C 217.246094 184.820312 217.355469 185.636719 217.402344 186.308594 C 217.453125 186.976562 217.445312 187.5 217.417969 187.847656 C 217.390625 188.203125 217.351562 188.382812 217.316406 188.382812 Z M 217.316406 188.382812 " fill-opacity="1" fill-rule="evenodd"/></g><g clip-path="url(#3367bf3479)"><path fill="#bf0404" d="M 207.609375 188.382812 C 207.53125 188.386719 207.472656 188.078125 207.34375 187.554688 C 207.210938 187.035156 206.996094 186.289062 206.539062 185.472656 C 206.082031 184.660156 205.367188 183.785156 204.355469 183.109375 C 203.351562 182.433594 202.050781 181.984375 200.660156 181.988281 C 199.265625 181.984375 197.964844 182.433594 196.964844 183.109375 C 195.953125 183.785156 195.234375 184.660156 194.78125 185.472656 C 194.320312 186.289062 194.105469 187.035156 193.976562 187.554688 C 193.847656 188.078125 193.789062 188.386719 193.707031 188.382812 C 193.636719 188.386719 193.546875 188.078125 193.546875 187.503906 C 193.550781 186.933594 193.660156 186.085938 194.078125 185.125 C 194.492188 184.167969 195.242188 183.105469 196.375 182.273438 C 196.941406 181.859375 197.597656 181.507812 198.328125 181.261719 C 199.050781 181.015625 199.847656 180.878906 200.660156 180.878906 C 201.472656 180.878906 202.265625 181.015625 202.992188 181.261719 C 203.71875 181.507812 204.378906 181.859375 204.941406 182.273438 C 206.078125 183.105469 206.824219 184.167969 207.238281 185.125 C 207.660156 186.085938 207.769531 186.933594 207.773438 187.503906 C 207.773438 188.078125 207.683594 188.386719 207.609375 188.382812 Z M 207.609375 188.382812 " fill-opacity="1" fill-rule="evenodd"/></g><path fill="#bf0404" d="M 170.539062 168.914062 C 170.496094 168.914062 170.488281 168.691406 170.199219 168.480469 C 169.917969 168.269531 169.40625 168.074219 168.753906 167.964844 C 168.105469 167.855469 167.300781 167.816406 166.429688 167.917969 C 166 167.96875 165.546875 168.058594 165.113281 168.214844 C 164.898438 168.292969 164.6875 168.390625 164.511719 168.515625 C 164.332031 168.636719 164.214844 168.800781 164.222656 168.914062 C 164.214844 169.027344 164.332031 169.1875 164.511719 169.3125 C 164.6875 169.4375 164.898438 169.535156 165.113281 169.613281 C 165.546875 169.769531 166 169.859375 166.429688 169.910156 C 167.300781 170.011719 168.105469 169.972656 168.753906 169.863281 C 169.410156 169.75 169.917969 169.558594 170.199219 169.34375 C 170.488281 169.132812 170.496094 168.910156 170.539062 168.914062 C 170.554688 168.914062 170.582031 168.96875 170.570312 169.082031 C 170.558594 169.191406 170.488281 169.351562 170.34375 169.503906 C 170.054688 169.8125 169.519531 170.078125 168.835938 170.246094 C 168.152344 170.414062 167.308594 170.496094 166.378906 170.417969 C 165.914062 170.375 165.425781 170.296875 164.929688 170.125 C 164.683594 170.035156 164.429688 169.929688 164.191406 169.761719 C 164.070312 169.675781 163.953125 169.574219 163.851562 169.4375 C 163.75 169.304688 163.664062 169.117188 163.667969 168.914062 C 163.664062 168.710938 163.75 168.523438 163.851562 168.390625 C 163.953125 168.253906 164.070312 168.152344 164.191406 168.066406 C 164.429688 167.898438 164.683594 167.789062 164.929688 167.703125 C 165.425781 167.53125 165.914062 167.449219 166.378906 167.410156 C 167.308594 167.332031 168.152344 167.414062 168.835938 167.582031 C 169.519531 167.75 170.058594 168.015625 170.34375 168.324219 C 170.488281 168.472656 170.558594 168.632812 170.570312 168.746094 C 170.582031 168.859375 170.554688 168.914062 170.539062 168.914062 Z M 170.539062 168.914062 " fill-opacity="1" fill-rule="evenodd"/><path fill="#bf0404" d="M 170.539062 168.914062 C 170.601562 168.871094 171.125 169.53125 171.914062 170.632812 L 171.953125 170.683594 L 171.972656 170.710938 L 172 170.757812 L 172.0625 170.851562 C 172.070312 170.886719 172.0625 170.925781 172.0625 170.964844 C 172.050781 171.132812 172.003906 171.230469 171.945312 171.335938 C 171.820312 171.539062 171.648438 171.679688 171.46875 171.804688 C 171.101562 172.046875 170.683594 172.207031 170.238281 172.335938 C 169.34375 172.589844 168.335938 172.707031 167.28125 172.710938 C 166.230469 172.714844 165.222656 172.601562 164.328125 172.359375 C 163.882812 172.234375 163.460938 172.078125 163.089844 171.851562 C 162.90625 171.738281 162.734375 171.601562 162.597656 171.421875 C 162.527344 171.328125 162.472656 171.222656 162.441406 171.105469 C 162.421875 171.039062 162.417969 170.957031 162.417969 170.886719 C 162.414062 170.867188 162.425781 170.851562 162.433594 170.835938 L 162.464844 170.785156 C 162.480469 170.753906 162.5 170.722656 162.507812 170.707031 C 163.238281 169.5625 163.722656 168.875 163.789062 168.914062 C 163.855469 168.953125 163.488281 169.710938 162.847656 170.90625 L 162.832031 170.9375 C 162.828125 170.945312 162.824219 170.949219 162.828125 170.957031 C 162.828125 170.96875 162.832031 170.976562 162.835938 170.996094 C 162.855469 171.046875 162.886719 171.101562 162.933594 171.15625 C 163.027344 171.265625 163.167969 171.367188 163.324219 171.457031 C 163.644531 171.632812 164.035156 171.761719 164.457031 171.863281 C 165.296875 172.066406 166.269531 172.160156 167.28125 172.15625 C 168.296875 172.152344 169.261719 172.054688 170.101562 171.84375 C 170.519531 171.734375 170.910156 171.601562 171.222656 171.417969 C 171.375 171.324219 171.507812 171.21875 171.582031 171.105469 C 171.621094 171.058594 171.648438 170.980469 171.648438 170.972656 C 171.652344 170.960938 171.648438 170.949219 171.644531 170.941406 L 171.636719 170.933594 L 171.589844 170.851562 C 170.878906 169.691406 170.472656 168.957031 170.539062 168.914062 Z M 170.539062 168.914062 " fill-opacity="1" fill-rule="evenodd"/><path fill="#bf0404" d="M 159.683594 170.890625 C 159.640625 170.890625 159.625 170.757812 159.464844 170.628906 C 159.3125 170.496094 159.019531 170.363281 158.632812 170.289062 C 158.246094 170.214844 157.765625 170.191406 157.25 170.269531 C 156.996094 170.308594 156.726562 170.375 156.488281 170.484375 C 156.371094 170.539062 156.257812 170.605469 156.175781 170.683594 C 156.132812 170.722656 156.101562 170.761719 156.082031 170.796875 C 156.0625 170.832031 156.054688 170.859375 156.054688 170.890625 C 156.054688 170.917969 156.0625 170.945312 156.082031 170.980469 C 156.101562 171.015625 156.132812 171.058594 156.175781 171.09375 C 156.257812 171.171875 156.371094 171.238281 156.488281 171.292969 C 156.730469 171.402344 156.996094 171.46875 157.25 171.507812 C 157.765625 171.585938 158.246094 171.5625 158.632812 171.488281 C 159.023438 171.414062 159.3125 171.285156 159.46875 171.148438 C 159.625 171.019531 159.640625 170.890625 159.683594 170.890625 C 159.699219 170.890625 159.722656 170.921875 159.726562 170.996094 C 159.730469 171.066406 159.707031 171.175781 159.632812 171.289062 C 159.480469 171.519531 159.15625 171.734375 158.730469 171.867188 C 158.304688 172.003906 157.773438 172.074219 157.1875 172.015625 C 156.890625 171.984375 156.582031 171.921875 156.269531 171.789062 C 156.113281 171.722656 155.953125 171.636719 155.804688 171.503906 C 155.730469 171.433594 155.65625 171.355469 155.597656 171.253906 C 155.539062 171.148438 155.5 171.023438 155.5 170.890625 C 155.5 170.757812 155.539062 170.628906 155.597656 170.527344 C 155.65625 170.425781 155.730469 170.34375 155.804688 170.277344 C 155.953125 170.144531 156.113281 170.058594 156.269531 169.988281 C 156.582031 169.855469 156.890625 169.792969 157.1875 169.761719 C 157.773438 169.707031 158.304688 169.777344 158.730469 169.910156 C 159.15625 170.042969 159.480469 170.257812 159.632812 170.488281 C 159.707031 170.601562 159.730469 170.710938 159.726562 170.785156 C 159.722656 170.855469 159.699219 170.890625 159.683594 170.890625 Z M 159.683594 170.890625 " fill-opacity="1" fill-rule="evenodd"/><path fill="#bf0404" d="M 177.53125 174.714844 C 177.488281 174.714844 177.464844 174.585938 177.382812 174.386719 C 177.300781 174.195312 177.144531 173.921875 176.84375 173.722656 C 176.695312 173.628906 176.515625 173.550781 176.316406 173.527344 C 176.113281 173.5 175.894531 173.519531 175.6875 173.601562 C 175.480469 173.683594 175.289062 173.828125 175.148438 174.023438 C 175.011719 174.21875 174.929688 174.460938 174.929688 174.714844 C 174.929688 174.96875 175.011719 175.210938 175.148438 175.40625 C 175.289062 175.601562 175.480469 175.746094 175.6875 175.828125 C 175.894531 175.910156 176.113281 175.929688 176.316406 175.902344 C 176.515625 175.875 176.695312 175.800781 176.84375 175.703125 C 177.144531 175.507812 177.300781 175.234375 177.382812 175.039062 C 177.464844 174.839844 177.488281 174.714844 177.53125 174.714844 C 177.5625 174.710938 177.617188 174.84375 177.589844 175.09375 C 177.566406 175.332031 177.4375 175.707031 177.082031 176.015625 C 176.90625 176.164062 176.671875 176.292969 176.398438 176.355469 C 176.125 176.414062 175.816406 176.410156 175.511719 176.308594 C 175.210938 176.207031 174.921875 176.007812 174.710938 175.726562 C 174.5 175.449219 174.375 175.085938 174.375 174.714844 C 174.375 174.34375 174.5 173.980469 174.710938 173.703125 C 174.921875 173.421875 175.210938 173.222656 175.511719 173.121094 C 175.816406 173.019531 176.125 173.011719 176.398438 173.074219 C 176.671875 173.136719 176.90625 173.261719 177.082031 173.414062 C 177.4375 173.71875 177.566406 174.09375 177.589844 174.335938 C 177.617188 174.582031 177.5625 174.714844 177.53125 174.714844 Z M 177.53125 174.714844 " fill-opacity="1" fill-rule="evenodd"/><path fill="#bf0404" d="M 187.886719 170.890625 C 187.886719 171.042969 185.664062 171.171875 182.070312 171.265625 C 180.273438 171.3125 178.128906 171.347656 175.757812 171.382812 C 175.167969 171.390625 174.546875 171.398438 173.949219 171.417969 C 173.859375 171.421875 173.816406 171.4375 173.761719 171.472656 C 173.714844 171.503906 173.65625 171.5625 173.59375 171.652344 C 173.46875 171.835938 173.359375 172.113281 173.246094 172.414062 C 173.128906 172.710938 173.007812 173.039062 172.824219 173.371094 C 172.644531 173.703125 172.394531 174.050781 172.03125 174.3125 C 171.941406 174.375 171.855469 174.429688 171.746094 174.488281 C 171.625 174.546875 171.523438 174.582031 171.425781 174.613281 C 171.230469 174.671875 171.046875 174.710938 170.867188 174.742188 C 170.507812 174.808594 170.15625 174.84375 169.804688 174.875 C 168.398438 174.988281 167.054688 174.992188 165.75 174.980469 C 164.449219 174.964844 163.199219 174.917969 162.007812 174.855469 C 160.816406 174.792969 159.683594 174.714844 158.625 174.625 C 158.097656 174.578125 157.585938 174.53125 157.097656 174.476562 L 156.378906 174.398438 C 156.140625 174.371094 155.902344 174.335938 155.675781 174.296875 C 154.761719 174.144531 153.941406 173.898438 153.269531 173.566406 C 152.59375 173.234375 152.074219 172.816406 151.734375 172.402344 C 151.394531 171.984375 151.234375 171.589844 151.175781 171.316406 C 151.117188 171.042969 151.148438 170.890625 151.183594 170.890625 C 151.222656 170.886719 151.269531 171.015625 151.386719 171.242188 C 151.503906 171.464844 151.703125 171.785156 152.050781 172.105469 C 152.394531 172.429688 152.886719 172.75 153.519531 173 C 154.152344 173.246094 154.917969 173.425781 155.78125 173.523438 C 156 173.546875 156.21875 173.566406 156.449219 173.582031 L 157.167969 173.625 L 158.6875 173.707031 C 159.738281 173.757812 160.863281 173.800781 162.046875 173.835938 C 163.230469 173.871094 164.472656 173.894531 165.757812 173.894531 C 167.039062 173.894531 168.375 173.878906 169.707031 173.769531 C 170.039062 173.742188 170.367188 173.707031 170.671875 173.652344 C 170.824219 173.625 170.972656 173.59375 171.097656 173.554688 C 171.160156 173.539062 171.21875 173.515625 171.25 173.5 C 171.289062 173.480469 171.34375 173.445312 171.386719 173.414062 C 171.570312 173.285156 171.726562 173.089844 171.863281 172.84375 C 172 172.601562 172.113281 172.316406 172.230469 172.015625 C 172.355469 171.710938 172.472656 171.386719 172.707031 171.042969 C 172.824219 170.875 172.984375 170.695312 173.203125 170.5625 C 173.417969 170.425781 173.6875 170.363281 173.910156 170.359375 C 174.554688 170.347656 175.152344 170.355469 175.753906 170.359375 C 178.132812 170.382812 180.269531 170.425781 182.070312 170.480469 C 185.664062 170.589844 187.886719 170.738281 187.886719 170.890625 Z M 187.886719 170.890625 " fill-opacity="1" fill-rule="evenodd"/><path fill="#bf0404" d="M 224.101562 170.867188 C 224.105469 171.019531 221.664062 171.148438 218.652344 171.15625 C 215.640625 171.164062 213.199219 171.042969 213.199219 170.890625 C 213.199219 170.738281 215.640625 170.609375 218.648438 170.601562 C 221.664062 170.59375 224.101562 170.714844 224.101562 170.867188 Z M 224.101562 170.867188 " fill-opacity="1" fill-rule="evenodd"/><path fill="#bf0404" d="M 166.039062 166.957031 C 166.039062 167.109375 163.597656 167.238281 160.585938 167.246094 C 157.574219 167.25 155.132812 167.132812 155.132812 166.976562 C 155.132812 166.824219 157.574219 166.695312 160.585938 166.691406 C 163.597656 166.683594 166.039062 166.804688 166.039062 166.957031 Z M 166.039062 166.957031 " fill-opacity="1" fill-rule="evenodd"/><path fill="#bf0404" d="M 173.921875 187.488281 C 173.769531 187.488281 173.644531 183.976562 173.644531 179.640625 C 173.644531 175.308594 173.769531 171.792969 173.921875 171.792969 C 174.074219 171.792969 174.199219 175.308594 174.199219 179.640625 C 174.199219 183.976562 174.074219 187.488281 173.921875 187.488281 Z M 173.921875 187.488281 " fill-opacity="1" fill-rule="evenodd"/><g clip-path="url(#33d7153207)"><g clip-path="url(#e6c8443fcf)"><path fill="#000000" d="M 243.863281 208.15625 L 248.886719 208.15625 L 248.886719 213.179688 L 243.863281 213.179688 Z M 243.863281 208.15625 " fill-opacity="1" fill-rule="nonzero"/></g></g><g fill="#000000" fill-opacity="1"><g transform="translate(136.459278, 211.994115)"><g><path d="M 11.265625 -55.15625 C 11.554688 -55.195312 11.828125 -55.140625 12.078125 -54.984375 C 12.335938 -54.828125 12.503906 -54.628906 12.578125 -54.390625 C 12.671875 -53.929688 12.726562 -53.46875 12.75 -53 C 12.800781 -52.539062 12.8125 -52.085938 12.78125 -51.640625 C 12.78125 -51.460938 12.789062 -51.296875 12.8125 -51.140625 C 12.507812 -45.816406 11.910156 -40.570312 11.015625 -35.40625 C 10.941406 -34.8125 10.953125 -34.234375 11.046875 -33.671875 C 11.210938 -32.992188 11.191406 -32.332031 10.984375 -31.6875 C 10.441406 -30.488281 10.039062 -29.273438 9.78125 -28.046875 C 8.226562 -19.304688 6.441406 -10.628906 4.421875 -2.015625 C 2.753906 5.359375 0.679688 12.632812 -1.796875 19.8125 C -2.484375 21.695312 -3.238281 23.578125 -4.0625 25.453125 C -4.5 26.273438 -4.992188 27.050781 -5.546875 27.78125 C -6.054688 28.375 -6.722656 28.628906 -7.546875 28.546875 C -8.398438 28.472656 -8.878906 28.015625 -8.984375 27.171875 C -9.046875 26.148438 -8.984375 25.144531 -8.796875 24.15625 C -7.660156 18.164062 -6.296875 12.226562 -4.703125 6.34375 C -1.828125 -4.769531 1.84375 -15.59375 6.3125 -26.125 C 7.113281 -28.125 7.65625 -30.160156 7.9375 -32.234375 C 8.488281 -35.628906 8.972656 -39.019531 9.390625 -42.40625 C 9.816406 -45.800781 10.101562 -49.195312 10.25 -52.59375 C 10.257812 -53.15625 10.296875 -53.71875 10.359375 -54.28125 C 10.472656 -54.78125 10.773438 -55.070312 11.265625 -55.15625 Z M -5.234375 22.015625 C -3.160156 16.179688 -1.378906 10.300781 0.109375 4.375 C 1.609375 -1.550781 2.898438 -7.554688 3.984375 -13.640625 C 3.960938 -13.609375 3.941406 -13.554688 3.921875 -13.484375 C 3.835938 -13.410156 3.753906 -13.316406 3.671875 -13.203125 C 3.523438 -12.753906 3.375 -12.328125 3.21875 -11.921875 C 1.363281 -6.585938 -0.269531 -1.191406 -1.6875 4.265625 C -3.113281 9.722656 -4.429688 15.191406 -5.640625 20.671875 C -5.660156 20.753906 -5.664062 20.8125 -5.65625 20.84375 C -5.71875 21.007812 -5.734375 21.191406 -5.703125 21.390625 C -5.671875 21.597656 -5.515625 21.804688 -5.234375 22.015625 Z M 105.171875 -71.609375 C 105.191406 -71.484375 105.148438 -71.34375 105.046875 -71.1875 C 104.941406 -71.039062 104.8125 -70.921875 104.65625 -70.828125 C 104.507812 -70.742188 104.367188 -70.726562 104.234375 -70.78125 C 103.335938 -71.132812 102.414062 -71.328125 101.46875 -71.359375 C 100.53125 -71.390625 99.597656 -71.382812 98.671875 -71.34375 C 97.984375 -71.25 97.296875 -71.21875 96.609375 -71.25 C 94.097656 -71.207031 91.59375 -71.117188 89.09375 -70.984375 C 80.90625 -70.328125 72.753906 -69.367188 64.640625 -68.109375 C 56.804688 -66.941406 49.007812 -65.5 41.25 -63.78125 C 32.488281 -61.90625 23.773438 -59.816406 15.109375 -57.515625 C 7.148438 -55.472656 -0.769531 -53.28125 -8.65625 -50.9375 C -9.132812 -50.78125 -9.640625 -50.632812 -10.171875 -50.5 C -13.191406 -49.59375 -16.191406 -48.648438 -19.171875 -47.671875 C -22.160156 -46.703125 -25.125 -45.628906 -28.0625 -44.453125 C -28.300781 -44.335938 -28.539062 -44.234375 -28.78125 -44.140625 C -29.925781 -43.660156 -31.070312 -43.148438 -32.21875 -42.609375 C -33.363281 -42.066406 -34.4375 -41.425781 -35.4375 -40.6875 C -35.582031 -40.570312 -35.742188 -40.476562 -35.921875 -40.40625 C -36.171875 -40.332031 -36.40625 -40.300781 -36.625 -40.3125 C -36.851562 -40.332031 -37.050781 -40.441406 -37.21875 -40.640625 C -37.382812 -40.847656 -37.4375 -41.054688 -37.375 -41.265625 C -37.320312 -41.484375 -37.1875 -41.671875 -36.96875 -41.828125 C -36.3125 -42.328125 -35.617188 -42.78125 -34.890625 -43.1875 C -33.035156 -44.15625 -31.148438 -45.03125 -29.234375 -45.8125 C -27.316406 -46.59375 -25.378906 -47.328125 -23.421875 -48.015625 C -17.765625 -49.941406 -12.085938 -51.742188 -6.390625 -53.421875 C -0.691406 -55.109375 5.039062 -56.707031 10.8125 -58.21875 C 18.925781 -60.40625 27.070312 -62.421875 35.25 -64.265625 C 42.382812 -65.910156 49.546875 -67.347656 56.734375 -68.578125 C 62.003906 -69.492188 67.289062 -70.300781 72.59375 -71 C 77.90625 -71.707031 83.234375 -72.253906 88.578125 -72.640625 C 93.472656 -72.921875 98.375 -72.960938 103.28125 -72.765625 C 103.738281 -72.722656 104.171875 -72.628906 104.578125 -72.484375 C 104.921875 -72.304688 105.117188 -72.015625 105.171875 -71.609375 Z M 105.171875 -71.609375 "/></g></g><g transform="translate(152.167678, 209.442697)"><g><path d="M 13.78125 -13.4375 C 14.15625 -13.300781 14.253906 -12.835938 14.078125 -12.046875 C 13.753906 -11.441406 13.394531 -10.863281 13 -10.3125 C 12.601562 -9.757812 12.15625 -9.253906 11.65625 -8.796875 C 11.613281 -8.785156 11.59375 -8.769531 11.59375 -8.75 C 11.269531 -8.4375 10.910156 -8.148438 10.515625 -7.890625 C 7.316406 -6.097656 5.460938 -6.535156 4.953125 -9.203125 C 3.753906 -7.785156 2.945312 -6.898438 2.53125 -6.546875 C 1.5 -5.691406 0.320312 -5.191406 -1 -5.046875 C -1.988281 -4.953125 -2.695312 -5.140625 -3.125 -5.609375 C -3.5625 -6.085938 -3.644531 -6.820312 -3.375 -7.8125 C -2.976562 -9.34375 -2.300781 -10.769531 -1.34375 -12.09375 C -0.175781 -13.570312 1.175781 -14.828125 2.71875 -15.859375 C 3.53125 -16.441406 4.425781 -16.757812 5.40625 -16.8125 C 6.382812 -16.925781 7.0625 -16.472656 7.4375 -15.453125 C 7.570312 -15.160156 7.535156 -14.867188 7.328125 -14.578125 C 7.054688 -14.242188 6.703125 -14.125 6.265625 -14.21875 C 6.234375 -14.207031 6.191406 -14.207031 6.140625 -14.21875 C 6.085938 -14.226562 6.050781 -14.238281 6.03125 -14.25 C 5.519531 -14.757812 5.054688 -14.9375 4.640625 -14.78125 C 4.234375 -14.625 3.820312 -14.363281 3.40625 -14 C 1.414062 -12.351562 0.0664062 -10.289062 -0.640625 -7.8125 C -0.671875 -7.71875 -0.679688 -7.601562 -0.671875 -7.46875 C -0.671875 -7.34375 -0.628906 -7.25 -0.546875 -7.1875 C -0.265625 -7.144531 0.0195312 -7.207031 0.3125 -7.375 C 0.601562 -7.550781 0.890625 -7.78125 1.171875 -8.0625 C 1.453125 -8.351562 1.679688 -8.59375 1.859375 -8.78125 C 1.878906 -8.84375 1.890625 -8.875 1.890625 -8.875 C 2.804688 -9.90625 3.691406 -10.960938 4.546875 -12.046875 C 4.898438 -12.585938 5.398438 -12.941406 6.046875 -13.109375 C 6.992188 -13.265625 7.453125 -12.90625 7.421875 -12.03125 C 7.390625 -11.707031 7.351562 -11.378906 7.3125 -11.046875 C 7.15625 -9.628906 7.269531 -8.828125 7.65625 -8.640625 C 8.039062 -8.460938 8.5625 -8.550781 9.21875 -8.90625 C 9.882812 -9.257812 10.519531 -9.820312 11.125 -10.59375 C 11.738281 -11.375 12.238281 -12.078125 12.625 -12.703125 C 13.019531 -13.335938 13.40625 -13.582031 13.78125 -13.4375 Z M 13.78125 -13.4375 "/></g></g><g transform="translate(166.375958, 207.134935)"><g/></g><g transform="translate(182.577255, 204.50346)"><g><path d="M -0.0625 -3.890625 C -1.425781 -3.660156 -2.226562 -4.253906 -2.46875 -5.671875 C -2.738281 -7.398438 -2.113281 -10.628906 -0.59375 -15.359375 C -0.539062 -15.566406 -0.398438 -15.6875 -0.171875 -15.71875 C 0.734375 -15.863281 1.25 -15.582031 1.375 -14.875 C 1.414062 -14.601562 1.382812 -14.273438 1.28125 -13.890625 C 1.238281 -13.785156 0.796875 -11.78125 -0.046875 -7.875 C -0.171875 -7.226562 -0.210938 -6.765625 -0.171875 -6.484375 C -0.117188 -6.171875 0.046875 -6.035156 0.328125 -6.078125 C 1.378906 -6.253906 3.695312 -9.296875 7.28125 -15.203125 C 7.726562 -15.992188 8.234375 -16.429688 8.796875 -16.515625 C 9.617188 -16.648438 10.082031 -16.414062 10.1875 -15.8125 C 10.21875 -15.59375 10.097656 -14.691406 9.828125 -13.109375 C 9.472656 -10.941406 9.320312 -9.703125 9.375 -9.390625 C 9.457031 -8.921875 9.660156 -8.710938 9.984375 -8.765625 C 10.765625 -8.898438 12.828125 -10.675781 16.171875 -14.09375 C 16.359375 -14.300781 16.523438 -14.421875 16.671875 -14.453125 C 17.035156 -14.503906 17.265625 -14.234375 17.359375 -13.640625 C 17.390625 -13.472656 17.359375 -13.335938 17.265625 -13.234375 C 15.535156 -11.179688 14.035156 -9.585938 12.765625 -8.453125 C 11.609375 -7.410156 10.53125 -6.8125 9.53125 -6.65625 L 9.25 -6.609375 C 7.71875 -6.679688 6.789062 -7.710938 6.46875 -9.703125 C 5.125 -8.054688 4.003906 -6.722656 3.109375 -5.703125 C 2.210938 -4.691406 1.15625 -4.085938 -0.0625 -3.890625 Z M -0.0625 -3.890625 "/></g></g></g><g fill="#000000" fill-opacity="1"><g transform="translate(162.806979, 207.589447)"><g><path d="M 11.0625 -0.28125 C 9.507812 -0.207031 8.421875 -0.5625 7.796875 -1.34375 C 7.179688 -2.125 6.84375 -3.203125 6.78125 -4.578125 C 6.695312 -6.078125 7.078125 -7.898438 7.921875 -10.046875 C 8.234375 -10.890625 8.570312 -11.65625 8.9375 -12.34375 C 9.300781 -13.039062 9.6875 -13.6875 10.09375 -14.28125 C 9.945312 -14.238281 9.820312 -14.210938 9.71875 -14.203125 C 9.613281 -14.203125 9.503906 -14.203125 9.390625 -14.203125 C 8.523438 -14.160156 7.769531 -14.738281 7.125 -15.9375 L 3.390625 -10.53125 C 1.398438 -7.644531 0.171875 -6.191406 -0.296875 -6.171875 C -0.472656 -6.160156 -0.566406 -6.226562 -0.578125 -6.375 C -0.585938 -6.550781 -0.507812 -6.785156 -0.34375 -7.078125 C -0.25 -7.296875 -0.046875 -7.597656 0.265625 -7.984375 C 1.546875 -9.648438 2.726562 -11.285156 3.8125 -12.890625 C 4.894531 -14.492188 5.773438 -16.054688 6.453125 -17.578125 C 7.128906 -20.753906 8.101562 -22.375 9.375 -22.4375 C 10.195312 -22.476562 10.625 -22.117188 10.65625 -21.359375 C 10.695312 -20.671875 10.296875 -19.753906 9.453125 -18.609375 C 8.628906 -17.441406 8.21875 -16.84375 8.21875 -16.8125 C 8.257812 -16.050781 8.84375 -15.695312 9.96875 -15.75 C 10.613281 -15.78125 11.328125 -16.050781 12.109375 -16.5625 L 13.46875 -17.484375 C 13.539062 -17.535156 13.648438 -17.5625 13.796875 -17.5625 C 14.222656 -17.582031 14.609375 -17.414062 14.953125 -17.0625 C 15.296875 -16.71875 15.421875 -16.40625 15.328125 -16.125 L 11.8125 -11.21875 C 9.65625 -8.144531 8.617188 -5.707031 8.703125 -3.90625 C 8.785156 -2.28125 9.625 -1.507812 11.21875 -1.59375 C 12.300781 -1.644531 13.445312 -2.023438 14.65625 -2.734375 C 15.875 -3.453125 17.039062 -4.316406 18.15625 -5.328125 C 19.28125 -6.347656 20.21875 -7.316406 20.96875 -8.234375 L 22.1875 -9.828125 C 22.257812 -9.898438 22.347656 -9.992188 22.453125 -10.109375 C 22.554688 -10.222656 22.644531 -10.28125 22.71875 -10.28125 C 22.96875 -10.289062 23.097656 -10.171875 23.109375 -9.921875 C 23.117188 -9.847656 23.085938 -9.71875 23.015625 -9.53125 C 22.953125 -9.351562 22.835938 -9.15625 22.671875 -8.9375 L 21.046875 -6.90625 C 20.253906 -5.914062 19.28125 -4.914062 18.125 -3.90625 C 16.96875 -2.894531 15.757812 -2.050781 14.5 -1.375 C 13.25 -0.695312 12.101562 -0.332031 11.0625 -0.28125 Z M 11.0625 -0.28125 "/></g></g></g><g fill="#000000" fill-opacity="1"><g transform="translate(205.939193, 217.247006)"><g><path d="M -2.648438 -14.890625 C 3.023438 -15.195312 10.800781 -30.765625 13.542969 -30.550781 C 16.222656 -30.320312 10.433594 -11.117188 2.007812 -5.21875 C 0.628906 -3.667969 2.328125 -2.25 3.632812 -2.613281 C 8.507812 -3.980469 12.988281 1.511719 14.53125 4.691406 C -7.949219 28.675781 2.496094 43.820312 12.699219 41.535156 C 21.652344 39.527344 28.316406 20.542969 17.96875 2.746094 C 23.421875 -2.832031 30.03125 -10.671875 35.300781 -24.160156 C 35.226562 -24.488281 34.175781 -24.253906 34.035156 -23.945312 C 29.632812 -12.449219 23.980469 -4.960938 17.402344 1.765625 C 13.441406 -4.1875 8.246094 -4.542969 4.015625 -3.664062 C 2.6875 -3.4375 3.183594 -4.308594 3.429688 -4.433594 C 16.324219 -11.054688 19.867188 -30.101562 14.273438 -31.613281 C 10.601562 -32.585938 2.71875 -16.855469 -2.050781 -15.925781 C -0.632812 -21.011719 0.722656 -28.230469 -2.578125 -28.457031 C -9.023438 -28.53125 -10.023438 -14.484375 -2.648438 -14.890625 Z M 14.964844 5.699219 C 22.117188 19.097656 21.175781 36.800781 13.347656 40.421875 C 5.136719 44.199219 -7.933594 29.984375 14.964844 5.699219 Z M -3.210938 -15.871094 C -7.917969 -16.199219 -7.257812 -27.132812 -2.925781 -27.550781 C -0.351562 -27.78125 -2.222656 -18.234375 -3.210938 -15.871094 Z M -3.210938 -15.871094 "/></g></g></g><g clip-path="url(#53466b16b1)"><g clip-path="url(#08159f6544)"><path fill="#000000" d="M 242.277344 210.421875 C 216.550781 211.882812 190.835938 213.957031 165.203125 216.835938 C 139.554688 219.761719 113.96875 223.394531 88.6875 228.738281 C 85.902344 229.429688 86.898438 233.429688 89.609375 232.863281 C 139.777344 221.367188 191.082031 215.5625 242.339844 211.390625 C 242.601562 211.367188 242.800781 211.144531 242.785156 210.882812 C 242.769531 210.609375 242.539062 210.414062 242.277344 210.429688 Z M 242.277344 210.421875 " fill-opacity="1" fill-rule="nonzero"/></g></g><g clip-path="url(#639af1f3b5)"><g clip-path="url(#bfbf4742cd)"><path fill="#000000" d="M 246.363281 210.707031 C 246.363281 210.894531 246.296875 211.050781 246.164062 211.183594 C 246.035156 211.316406 245.875 211.382812 245.6875 211.382812 C 245.5 211.382812 245.34375 211.316406 245.210938 211.183594 C 245.078125 211.050781 245.011719 210.894531 245.011719 210.707031 C 245.011719 210.519531 245.078125 210.359375 245.210938 210.230469 C 245.34375 210.097656 245.5 210.03125 245.6875 210.03125 C 245.875 210.03125 246.035156 210.097656 246.164062 210.230469 C 246.296875 210.359375 246.363281 210.519531 246.363281 210.707031 Z M 246.363281 210.707031 " fill-opacity="1" fill-rule="nonzero"/></g></g></svg>