<svg xmlns="http://www.w3.org/2000/svg" xmlns:xlink="http://www.w3.org/1999/xlink" width="143" zoomAndPan="magnify" viewBox="0 0 107.25 60" height="80" preserveAspectRatio="xMidYMid meet" version="1.0"><defs><g/><clipPath id="638aa00467"><path d="M 86.832031 32.070312 L 88.957031 32.070312 L 88.957031 34.195312 L 86.832031 34.195312 Z M 86.832031 32.070312 " clip-rule="nonzero"/></clipPath><clipPath id="0e34f562d7"><path d="M 87.894531 32.070312 C 87.304688 32.070312 86.832031 32.546875 86.832031 33.132812 C 86.832031 33.71875 87.304688 34.195312 87.894531 34.195312 C 88.480469 34.195312 88.957031 33.71875 88.957031 33.132812 C 88.957031 32.546875 88.480469 32.070312 87.894531 32.070312 Z M 87.894531 32.070312 " clip-rule="nonzero"/></clipPath><clipPath id="afaf149e3b"><path d="M 11.683594 53.90625 L 13.917969 53.90625 L 13.917969 56.140625 L 11.683594 56.140625 Z M 11.683594 53.90625 " clip-rule="nonzero"/></clipPath><clipPath id="ca6b895b58"><path d="M 39.523438 43.269531 L 68.570312 43.269531 L 68.570312 53.699219 L 39.523438 53.699219 Z M 39.523438 43.269531 " clip-rule="nonzero"/></clipPath><clipPath id="71c6c12445"><path d="M 51 45 L 68 45 L 68 53.699219 L 51 53.699219 Z M 51 45 " clip-rule="nonzero"/></clipPath><clipPath id="6304d938aa"><path d="M 52 47 L 66 47 L 66 53.699219 L 52 53.699219 Z M 52 47 " clip-rule="nonzero"/></clipPath><clipPath id="cc73b85b53"><path d="M 56 50 L 62 50 L 62 53.699219 L 56 53.699219 Z M 56 50 " clip-rule="nonzero"/></clipPath><clipPath id="cca01c47c2"><path d="M 39.523438 46 L 55 46 L 55 49 L 39.523438 49 Z M 39.523438 46 " clip-rule="nonzero"/></clipPath><clipPath id="0f946c3c27"><path d="M 64 46 L 68.570312 46 L 68.570312 48 L 64 48 Z M 64 46 " clip-rule="nonzero"/></clipPath><clipPath id="0774f32205"><path d="M 48 47 L 49 47 L 49 53.699219 L 48 53.699219 Z M 48 47 " clip-rule="nonzero"/></clipPath><clipPath id="99538d70ae"><path d="M 20.492188 33 L 87 33 L 87 42.484375 L 20.492188 42.484375 Z M 20.492188 33 " clip-rule="nonzero"/></clipPath><clipPath id="d237c45bf1"><path d="M 20.492188 37.707031 C 20.492188 39.003906 21.007812 40.253906 21.929688 41.171875 C 22.847656 42.089844 24.09375 42.605469 25.394531 42.605469 L 82.992188 42.605469 C 84.292969 42.605469 85.539062 42.089844 86.457031 41.171875 C 87.375 40.253906 87.894531 39.003906 87.894531 37.707031 C 87.894531 36.40625 87.375 35.160156 86.457031 34.238281 C 85.539062 33.320312 84.292969 32.804688 82.992188 32.804688 L 25.394531 32.804688 C 24.09375 32.804688 22.847656 33.320312 21.929688 34.238281 C 21.007812 35.160156 20.492188 36.40625 20.492188 37.707031 Z M 20.492188 37.707031 " clip-rule="nonzero"/></clipPath><clipPath id="fa7add6113"><path d="M 87 32.804688 L 87.523438 32.804688 L 87.523438 34 L 87 34 Z M 87 32.804688 " clip-rule="nonzero"/></clipPath><clipPath id="275563231d"><path d="M 20.492188 37.707031 C 20.492188 39.003906 21.007812 40.253906 21.929688 41.171875 C 22.847656 42.089844 24.09375 42.605469 25.394531 42.605469 L 82.992188 42.605469 C 84.292969 42.605469 85.539062 42.089844 86.457031 41.171875 C 87.375 40.253906 87.894531 39.003906 87.894531 37.707031 C 87.894531 36.40625 87.375 35.160156 86.457031 34.238281 C 85.539062 33.320312 84.292969 32.804688 82.992188 32.804688 L 25.394531 32.804688 C 24.09375 32.804688 22.847656 33.320312 21.929688 34.238281 C 21.007812 35.160156 20.492188 36.40625 20.492188 37.707031 Z M 20.492188 37.707031 " clip-rule="nonzero"/></clipPath><clipPath id="319de891c8"><path d="M 18.257812 54.289062 L 20.738281 54.289062 L 20.738281 56.769531 L 18.257812 56.769531 Z M 18.257812 54.289062 " clip-rule="nonzero"/></clipPath></defs><g clip-path="url(#638aa00467)"><g clip-path="url(#0e34f562d7)"><path fill="#ffffff" d="M 86.832031 32.070312 L 88.957031 32.070312 L 88.957031 34.195312 L 86.832031 34.195312 Z M 86.832031 32.070312 " fill-opacity="1" fill-rule="nonzero"/></g></g><g clip-path="url(#afaf149e3b)"><path fill="#000000" d="M 12.925781 55.652344 C 12.792969 55.765625 12.652344 55.863281 12.5 55.945312 C 12.457031 55.964844 12.417969 55.988281 12.371094 56.007812 C 12.03125 55.875 11.816406 55.636719 11.722656 55.296875 C 11.765625 55.324219 11.8125 55.347656 11.859375 55.371094 C 12.191406 55.542969 12.546875 55.636719 12.925781 55.652344 Z M 12.289062 55.441406 C 12.113281 55.121094 12.023438 54.785156 12.007812 54.425781 C 12.007812 54.375 12.007812 54.324219 12.007812 54.273438 C 11.792969 54.480469 11.683594 54.730469 11.683594 55.023438 C 11.683594 55.070312 11.6875 55.113281 11.695312 55.160156 C 11.734375 55.1875 11.773438 55.210938 11.816406 55.234375 C 11.964844 55.320312 12.121094 55.390625 12.289062 55.441406 Z M 12.945312 54.066406 C 12.988281 54.042969 13.035156 54.015625 13.085938 53.992188 C 12.730469 53.902344 12.410156 53.964844 12.121094 54.175781 C 12.121094 54.222656 12.117188 54.269531 12.113281 54.3125 C 12.113281 54.480469 12.128906 54.644531 12.164062 54.808594 C 12.367188 54.503906 12.625 54.257812 12.945312 54.066406 Z M 13.738281 54.667969 C 13.785156 54.691406 13.832031 54.714844 13.875 54.742188 C 13.78125 54.402344 13.5625 54.164062 13.226562 54.03125 C 13.179688 54.050781 13.136719 54.070312 13.097656 54.09375 C 12.945312 54.175781 12.800781 54.273438 12.671875 54.382812 C 13.050781 54.402344 13.40625 54.496094 13.738281 54.667969 Z M 13.585938 55.773438 C 13.804688 55.566406 13.914062 55.316406 13.914062 55.023438 C 13.914062 54.976562 13.910156 54.929688 13.902344 54.882812 C 13.863281 54.859375 13.824219 54.835938 13.78125 54.8125 C 13.632812 54.726562 13.476562 54.660156 13.308594 54.609375 C 13.484375 54.925781 13.574219 55.265625 13.585938 55.625 C 13.59375 55.675781 13.59375 55.726562 13.585938 55.773438 Z M 12.652344 55.976562 C 12.609375 56.003906 12.5625 56.03125 12.511719 56.054688 C 12.867188 56.144531 13.1875 56.082031 13.476562 55.871094 C 13.476562 55.824219 13.484375 55.777344 13.484375 55.734375 C 13.484375 55.566406 13.46875 55.398438 13.433594 55.238281 C 13.230469 55.539062 12.972656 55.785156 12.652344 55.976562 Z M 12.652344 55.976562 " fill-opacity="1" fill-rule="nonzero"/></g><g clip-path="url(#ca6b895b58)"><path fill="#ffffff" d="M 68.550781 53.546875 C 68.527344 53.546875 68.527344 53.101562 68.539062 52.277344 C 68.546875 51.453125 68.574219 50.25 68.5625 48.746094 C 68.558594 47.992188 68.546875 47.160156 68.480469 46.269531 C 68.464844 46.046875 68.445312 45.820312 68.414062 45.59375 C 68.40625 45.539062 68.398438 45.480469 68.390625 45.425781 C 68.382812 45.367188 68.371094 45.3125 68.359375 45.257812 C 68.335938 45.148438 68.304688 45.039062 68.265625 44.933594 C 68.1875 44.726562 68.078125 44.527344 67.921875 44.363281 C 67.769531 44.199219 67.578125 44.066406 67.363281 43.96875 C 67.144531 43.871094 66.90625 43.808594 66.65625 43.761719 C 66.40625 43.714844 66.144531 43.691406 65.878906 43.675781 C 65.347656 43.648438 64.792969 43.660156 64.226562 43.675781 L 63.363281 43.699219 C 63.082031 43.707031 62.796875 43.730469 62.523438 43.789062 C 62.246094 43.847656 61.976562 43.9375 61.75 44.078125 C 61.632812 44.148438 61.53125 44.230469 61.449219 44.328125 C 61.40625 44.378906 61.371094 44.429688 61.339844 44.484375 C 61.324219 44.511719 61.308594 44.539062 61.296875 44.566406 C 61.292969 44.578125 61.289062 44.59375 61.28125 44.609375 L 61.277344 44.621094 L 61.269531 44.648438 C 61.265625 44.664062 61.261719 44.683594 61.257812 44.703125 L 61.152344 44.804688 C 61.128906 44.832031 61.09375 44.859375 61.046875 44.902344 L 53.800781 44.9375 L 47.371094 44.957031 L 47.363281 44.960938 C 47.339844 44.976562 47.320312 44.992188 47.296875 45.007812 C 47.253906 45.035156 47.210938 45.066406 47.164062 45.089844 C 47.074219 45.144531 46.984375 45.191406 46.890625 45.234375 C 46.707031 45.320312 46.519531 45.390625 46.328125 45.445312 C 46.234375 45.476562 46.140625 45.5 46.035156 45.523438 L 46.007812 45.527344 C 45.992188 45.53125 45.980469 45.53125 45.964844 45.53125 C 45.933594 45.53125 45.898438 45.527344 45.863281 45.519531 C 45.796875 45.496094 45.738281 45.449219 45.707031 45.40625 C 45.640625 45.316406 45.628906 45.238281 45.621094 45.171875 C 45.621094 45.152344 45.617188 45.136719 45.617188 45.117188 L 45.617188 45.011719 L 45.621094 44.871094 L 45.621094 44.386719 C 45.621094 44.375 45.617188 44.367188 45.617188 44.359375 C 45.613281 44.347656 45.609375 44.335938 45.597656 44.324219 C 45.589844 44.3125 45.570312 44.296875 45.546875 44.285156 C 45.523438 44.273438 45.492188 44.261719 45.460938 44.253906 C 45.441406 44.246094 45.445312 44.246094 45.445312 44.246094 L 45.105469 44.246094 L 44.03125 44.242188 L 41.980469 44.230469 L 41.484375 44.230469 C 41.472656 44.230469 41.476562 44.230469 41.46875 44.230469 C 41.460938 44.234375 41.449219 44.238281 41.4375 44.242188 C 41.417969 44.25 41.398438 44.261719 41.386719 44.273438 C 41.355469 44.300781 41.335938 44.332031 41.328125 44.382812 C 41.324219 44.394531 41.324219 44.410156 41.320312 44.421875 C 41.320312 44.4375 41.320312 44.449219 41.320312 44.472656 L 41.320312 44.589844 L 41.316406 44.828125 L 41.3125 45.472656 L 41.066406 45.457031 C 41.027344 45.453125 40.984375 45.457031 40.945312 45.457031 C 40.925781 45.457031 40.90625 45.457031 40.886719 45.460938 C 40.808594 45.46875 40.734375 45.480469 40.664062 45.503906 C 40.519531 45.546875 40.390625 45.621094 40.285156 45.722656 C 40.074219 45.929688 39.953125 46.230469 39.890625 46.527344 C 39.859375 46.675781 39.84375 46.828125 39.839844 46.976562 L 39.835938 47.441406 L 39.824219 48.335938 C 39.8125 49.488281 39.800781 50.488281 39.785156 51.308594 C 39.753906 52.949219 39.722656 53.871094 39.6875 53.871094 C 39.652344 53.871094 39.621094 52.949219 39.59375 51.308594 C 39.578125 50.488281 39.5625 49.488281 39.550781 48.335938 L 39.542969 47.441406 L 39.539062 46.972656 C 39.539062 46.800781 39.554688 46.636719 39.585938 46.464844 C 39.621094 46.296875 39.667969 46.125 39.742188 45.960938 C 39.816406 45.792969 39.917969 45.628906 40.058594 45.492188 C 40.195312 45.355469 40.371094 45.246094 40.5625 45.183594 C 40.660156 45.152344 40.757812 45.132812 40.855469 45.125 C 40.878906 45.121094 40.90625 45.121094 40.929688 45.117188 L 40.945312 45.117188 C 40.953125 45.117188 40.964844 45.117188 40.972656 45.117188 C 40.976562 45.113281 40.972656 45.101562 40.972656 45.09375 L 40.972656 44.828125 L 40.96875 44.589844 L 40.96875 44.472656 C 40.96875 44.453125 40.96875 44.425781 40.96875 44.398438 C 40.972656 44.375 40.976562 44.347656 40.980469 44.320312 C 40.996094 44.210938 41.054688 44.09375 41.144531 44.011719 C 41.191406 43.96875 41.242188 43.9375 41.296875 43.914062 C 41.324219 43.902344 41.351562 43.890625 41.378906 43.882812 C 41.410156 43.875 41.457031 43.867188 41.484375 43.871094 L 41.980469 43.867188 L 44.03125 43.855469 L 45.105469 43.851562 L 45.449219 43.851562 C 45.46875 43.847656 45.492188 43.851562 45.511719 43.855469 C 45.535156 43.859375 45.546875 43.863281 45.5625 43.867188 C 45.621094 43.882812 45.679688 43.902344 45.734375 43.933594 C 45.792969 43.964844 45.847656 44.003906 45.898438 44.058594 C 45.949219 44.117188 45.988281 44.191406 46.007812 44.265625 C 46.015625 44.304688 46.019531 44.34375 46.023438 44.378906 L 46.023438 45.109375 C 46.027344 45.117188 46.027344 45.125 46.027344 45.128906 C 46.027344 45.140625 46.03125 45.152344 46.03125 45.160156 L 46.035156 45.164062 C 46.015625 45.171875 46 45.183594 45.988281 45.191406 C 45.960938 45.210938 45.953125 45.226562 45.957031 45.222656 C 45.957031 45.222656 45.957031 45.214844 45.957031 45.203125 C 45.957031 45.199219 45.957031 45.191406 45.957031 45.183594 L 45.945312 45.125 L 45.953125 45.125 C 46.035156 45.105469 46.125 45.082031 46.210938 45.054688 C 46.382812 45 46.554688 44.9375 46.714844 44.859375 C 46.796875 44.820312 46.878906 44.78125 46.953125 44.734375 C 46.992188 44.710938 47.03125 44.6875 47.066406 44.664062 C 47.085938 44.652344 47.101562 44.636719 47.121094 44.625 L 47.171875 44.585938 L 47.230469 44.542969 L 53.800781 44.507812 L 60.882812 44.492188 C 60.886719 44.492188 60.886719 44.492188 60.886719 44.492188 C 60.886719 44.488281 60.886719 44.488281 60.890625 44.488281 L 60.894531 44.46875 C 60.902344 44.449219 60.910156 44.425781 60.921875 44.40625 C 60.9375 44.363281 60.960938 44.320312 60.980469 44.28125 C 61.027344 44.203125 61.082031 44.128906 61.140625 44.0625 C 61.257812 43.925781 61.394531 43.820312 61.535156 43.730469 C 61.824219 43.554688 62.136719 43.460938 62.441406 43.398438 C 62.75 43.335938 63.054688 43.3125 63.355469 43.304688 L 64.21875 43.289062 C 64.789062 43.28125 65.347656 43.273438 65.902344 43.308594 C 66.179688 43.324219 66.453125 43.355469 66.722656 43.40625 C 66.992188 43.460938 67.257812 43.535156 67.507812 43.652344 C 67.757812 43.765625 67.992188 43.929688 68.175781 44.132812 C 68.359375 44.339844 68.492188 44.578125 68.578125 44.824219 C 68.621094 44.945312 68.652344 45.070312 68.679688 45.191406 C 68.691406 45.253906 68.699219 45.316406 68.710938 45.375 C 68.71875 45.4375 68.726562 45.496094 68.730469 45.554688 C 68.757812 45.789062 68.777344 46.023438 68.789062 46.25 C 68.839844 47.15625 68.832031 47.988281 68.820312 48.746094 C 68.796875 50.257812 68.730469 51.457031 68.675781 52.28125 C 68.621094 53.105469 68.574219 53.550781 68.550781 53.546875 Z M 68.550781 53.546875 " fill-opacity="1" fill-rule="evenodd"/></g><g clip-path="url(#71c6c12445)"><path fill="#ffffff" d="M 67.34375 53.898438 C 67.328125 53.898438 67.3125 53.808594 67.292969 53.636719 C 67.273438 53.46875 67.25 53.21875 67.195312 52.902344 C 67.144531 52.585938 67.066406 52.203125 66.9375 51.769531 C 66.804688 51.335938 66.621094 50.851562 66.359375 50.34375 C 66.097656 49.839844 65.757812 49.316406 65.328125 48.808594 C 64.894531 48.300781 64.371094 47.8125 63.757812 47.386719 C 63.140625 46.960938 62.4375 46.601562 61.664062 46.351562 C 60.890625 46.101562 60.054688 45.964844 59.191406 45.964844 C 58.332031 45.964844 57.492188 46.101562 56.71875 46.351562 C 55.949219 46.601562 55.242188 46.960938 54.628906 47.386719 C 54.011719 47.8125 53.488281 48.300781 53.058594 48.808594 C 52.625 49.316406 52.285156 49.839844 52.027344 50.34375 C 51.765625 50.851562 51.578125 51.335938 51.449219 51.769531 C 51.316406 52.203125 51.238281 52.585938 51.1875 52.902344 C 51.136719 53.21875 51.109375 53.46875 51.089844 53.636719 C 51.070312 53.808594 51.058594 53.898438 51.042969 53.898438 C 51.027344 53.898438 51.011719 53.808594 51.003906 53.636719 C 50.996094 53.464844 50.996094 53.210938 51.019531 52.882812 C 51.046875 52.558594 51.105469 52.15625 51.214844 51.703125 C 51.328125 51.25 51.5 50.742188 51.753906 50.210938 C 52.007812 49.675781 52.34375 49.121094 52.78125 48.578125 C 53.222656 48.039062 53.761719 47.515625 54.398438 47.058594 C 55.039062 46.605469 55.777344 46.21875 56.589844 45.949219 C 57.402344 45.679688 58.285156 45.53125 59.191406 45.53125 C 60.101562 45.53125 60.984375 45.679688 61.796875 45.949219 C 62.609375 46.21875 63.347656 46.605469 63.984375 47.058594 C 64.625 47.515625 65.164062 48.039062 65.601562 48.578125 C 66.042969 49.121094 66.378906 49.675781 66.632812 50.210938 C 66.886719 50.742188 67.054688 51.25 67.167969 51.703125 C 67.28125 52.15625 67.335938 52.558594 67.363281 52.882812 C 67.390625 53.210938 67.390625 53.464844 67.382812 53.636719 C 67.371094 53.808594 67.355469 53.898438 67.34375 53.898438 Z M 67.34375 53.898438 " fill-opacity="1" fill-rule="evenodd"/></g><g clip-path="url(#6304d938aa)"><path fill="#ffffff" d="M 65.675781 53.898438 C 65.660156 53.898438 65.644531 53.824219 65.628906 53.691406 C 65.609375 53.558594 65.585938 53.359375 65.542969 53.109375 C 65.453125 52.609375 65.28125 51.886719 64.863281 51.085938 C 64.65625 50.6875 64.386719 50.273438 64.042969 49.871094 C 63.699219 49.472656 63.285156 49.085938 62.800781 48.75 C 62.3125 48.417969 61.753906 48.132812 61.144531 47.9375 C 60.535156 47.738281 59.871094 47.628906 59.191406 47.632812 C 58.511719 47.628906 57.851562 47.738281 57.238281 47.9375 C 56.628906 48.132812 56.070312 48.417969 55.585938 48.75 C 55.097656 49.085938 54.683594 49.472656 54.34375 49.871094 C 54 50.273438 53.730469 50.6875 53.519531 51.085938 C 53.101562 51.886719 52.929688 52.609375 52.84375 53.109375 C 52.800781 53.359375 52.777344 53.558594 52.757812 53.691406 C 52.738281 53.824219 52.726562 53.898438 52.710938 53.898438 C 52.695312 53.898438 52.679688 53.824219 52.671875 53.6875 C 52.660156 53.550781 52.65625 53.347656 52.675781 53.089844 C 52.695312 52.828125 52.738281 52.507812 52.824219 52.144531 C 52.914062 51.785156 53.046875 51.378906 53.246094 50.949219 C 53.449219 50.523438 53.714844 50.078125 54.066406 49.644531 C 54.414062 49.210938 54.847656 48.792969 55.359375 48.425781 C 55.867188 48.0625 56.457031 47.75 57.109375 47.535156 C 57.757812 47.320312 58.464844 47.199219 59.191406 47.199219 C 59.917969 47.199219 60.628906 47.320312 61.277344 47.535156 C 61.925781 47.75 62.515625 48.0625 63.027344 48.425781 C 63.539062 48.792969 63.96875 49.210938 64.320312 49.644531 C 64.667969 50.078125 64.9375 50.523438 65.136719 50.949219 C 65.339844 51.378906 65.472656 51.785156 65.558594 52.144531 C 65.648438 52.507812 65.6875 52.828125 65.707031 53.089844 C 65.726562 53.347656 65.722656 53.550781 65.714844 53.6875 C 65.703125 53.824219 65.6875 53.898438 65.675781 53.898438 Z M 65.675781 53.898438 " fill-opacity="1" fill-rule="evenodd"/></g><g clip-path="url(#cc73b85b53)"><path fill="#ffffff" d="M 61.898438 53.898438 C 61.867188 53.898438 61.84375 53.777344 61.792969 53.574219 C 61.742188 53.371094 61.660156 53.082031 61.480469 52.761719 C 61.304688 52.449219 61.023438 52.105469 60.632812 51.84375 C 60.242188 51.582031 59.734375 51.40625 59.191406 51.40625 C 58.648438 51.40625 58.144531 51.582031 57.753906 51.84375 C 57.359375 52.105469 57.082031 52.449219 56.90625 52.761719 C 56.726562 53.082031 56.640625 53.371094 56.589844 53.574219 C 56.542969 53.777344 56.519531 53.898438 56.488281 53.898438 C 56.460938 53.898438 56.425781 53.777344 56.425781 53.554688 C 56.425781 53.332031 56.46875 53 56.632812 52.628906 C 56.792969 52.257812 57.082031 51.84375 57.527344 51.519531 C 57.746094 51.359375 58 51.21875 58.285156 51.125 C 58.566406 51.027344 58.875 50.976562 59.191406 50.976562 C 59.507812 50.976562 59.816406 51.03125 60.101562 51.125 C 60.382812 51.21875 60.640625 51.359375 60.859375 51.519531 C 61.300781 51.84375 61.59375 52.257812 61.753906 52.628906 C 61.917969 53 61.957031 53.332031 61.960938 53.554688 C 61.960938 53.777344 61.925781 53.898438 61.898438 53.898438 Z M 61.898438 53.898438 " fill-opacity="1" fill-rule="evenodd"/></g><path fill="#ffffff" d="M 47.472656 46.320312 C 47.453125 46.320312 47.453125 46.234375 47.339844 46.152344 C 47.230469 46.070312 47.03125 45.992188 46.777344 45.949219 C 46.523438 45.90625 46.210938 45.894531 45.871094 45.933594 C 45.703125 45.953125 45.527344 45.984375 45.359375 46.046875 C 45.277344 46.078125 45.195312 46.117188 45.125 46.164062 C 45.054688 46.210938 45.011719 46.277344 45.011719 46.320312 C 45.011719 46.363281 45.054688 46.425781 45.125 46.472656 C 45.195312 46.523438 45.277344 46.5625 45.359375 46.59375 C 45.527344 46.652344 45.703125 46.6875 45.871094 46.707031 C 46.210938 46.746094 46.523438 46.730469 46.777344 46.6875 C 47.03125 46.644531 47.230469 46.570312 47.339844 46.488281 C 47.453125 46.40625 47.453125 46.320312 47.472656 46.320312 C 47.476562 46.320312 47.488281 46.339844 47.484375 46.382812 C 47.476562 46.429688 47.449219 46.492188 47.394531 46.550781 C 47.285156 46.667969 47.074219 46.773438 46.808594 46.835938 C 46.542969 46.902344 46.214844 46.933594 45.851562 46.90625 C 45.671875 46.890625 45.480469 46.855469 45.289062 46.789062 C 45.191406 46.757812 45.09375 46.714844 45 46.648438 C 44.953125 46.617188 44.90625 46.578125 44.867188 46.523438 C 44.828125 46.472656 44.796875 46.398438 44.796875 46.320312 C 44.796875 46.242188 44.828125 46.167969 44.867188 46.117188 C 44.90625 46.0625 44.953125 46.023438 45 45.988281 C 45.09375 45.925781 45.191406 45.882812 45.289062 45.847656 C 45.480469 45.78125 45.671875 45.75 45.851562 45.734375 C 46.214844 45.703125 46.542969 45.734375 46.808594 45.800781 C 47.074219 45.867188 47.285156 45.96875 47.394531 46.089844 C 47.449219 46.148438 47.476562 46.210938 47.484375 46.253906 C 47.488281 46.296875 47.476562 46.320312 47.472656 46.320312 Z M 47.472656 46.320312 " fill-opacity="1" fill-rule="evenodd"/><path fill="#ffffff" d="M 47.472656 46.320312 C 47.496094 46.304688 47.699219 46.558594 48.007812 46.988281 L 48.019531 47.007812 L 48.027344 47.019531 L 48.039062 47.035156 L 48.0625 47.074219 C 48.066406 47.085938 48.066406 47.101562 48.066406 47.117188 C 48.058594 47.183594 48.042969 47.222656 48.019531 47.261719 C 47.96875 47.339844 47.902344 47.398438 47.832031 47.445312 C 47.691406 47.539062 47.527344 47.601562 47.355469 47.652344 C 47.007812 47.75 46.613281 47.796875 46.203125 47.796875 C 45.792969 47.796875 45.402344 47.753906 45.054688 47.660156 C 44.878906 47.609375 44.71875 47.550781 44.574219 47.464844 C 44.5 47.417969 44.433594 47.367188 44.378906 47.296875 C 44.355469 47.257812 44.332031 47.21875 44.320312 47.171875 C 44.3125 47.148438 44.3125 47.113281 44.3125 47.085938 C 44.308594 47.078125 44.3125 47.074219 44.316406 47.066406 L 44.328125 47.046875 C 44.335938 47.035156 44.34375 47.023438 44.347656 47.019531 C 44.628906 46.574219 44.820312 46.304688 44.84375 46.320312 C 44.871094 46.335938 44.726562 46.628906 44.476562 47.09375 L 44.472656 47.105469 L 44.472656 47.109375 C 44.472656 47.109375 44.46875 47.113281 44.46875 47.113281 C 44.472656 47.121094 44.472656 47.121094 44.472656 47.128906 C 44.480469 47.148438 44.492188 47.171875 44.511719 47.191406 C 44.546875 47.234375 44.601562 47.273438 44.664062 47.308594 C 44.789062 47.378906 44.941406 47.425781 45.105469 47.46875 C 45.433594 47.546875 45.808594 47.582031 46.203125 47.582031 C 46.597656 47.582031 46.976562 47.542969 47.300781 47.460938 C 47.464844 47.417969 47.617188 47.367188 47.738281 47.292969 C 47.796875 47.257812 47.847656 47.214844 47.878906 47.171875 C 47.890625 47.152344 47.902344 47.125 47.902344 47.121094 C 47.90625 47.117188 47.902344 47.113281 47.902344 47.109375 L 47.898438 47.105469 L 47.894531 47.09375 L 47.878906 47.074219 C 47.605469 46.621094 47.445312 46.335938 47.472656 46.320312 Z M 47.472656 46.320312 " fill-opacity="1" fill-rule="evenodd"/><path fill="#ffffff" d="M 43.246094 47.089844 C 43.230469 47.089844 43.222656 47.039062 43.164062 46.988281 C 43.101562 46.933594 42.988281 46.882812 42.839844 46.855469 C 42.6875 46.828125 42.5 46.816406 42.300781 46.847656 C 42.199219 46.863281 42.097656 46.886719 42.003906 46.929688 C 41.957031 46.953125 41.914062 46.980469 41.882812 47.007812 C 41.867188 47.023438 41.851562 47.039062 41.84375 47.050781 C 41.835938 47.066406 41.835938 47.078125 41.835938 47.089844 C 41.835938 47.097656 41.835938 47.109375 41.84375 47.125 C 41.851562 47.136719 41.867188 47.152344 41.882812 47.167969 C 41.914062 47.199219 41.957031 47.226562 42.003906 47.246094 C 42.097656 47.289062 42.199219 47.3125 42.300781 47.328125 C 42.5 47.359375 42.6875 47.351562 42.839844 47.320312 C 42.988281 47.292969 43.101562 47.242188 43.164062 47.191406 C 43.222656 47.140625 43.230469 47.089844 43.246094 47.089844 C 43.253906 47.089844 43.261719 47.101562 43.265625 47.128906 C 43.265625 47.15625 43.253906 47.199219 43.226562 47.246094 C 43.167969 47.332031 43.042969 47.417969 42.875 47.46875 C 42.710938 47.523438 42.503906 47.550781 42.273438 47.527344 C 42.160156 47.515625 42.039062 47.492188 41.917969 47.4375 C 41.855469 47.414062 41.796875 47.378906 41.738281 47.328125 C 41.707031 47.300781 41.679688 47.269531 41.65625 47.230469 C 41.632812 47.191406 41.617188 47.140625 41.617188 47.089844 C 41.617188 47.035156 41.632812 46.988281 41.65625 46.945312 C 41.679688 46.90625 41.707031 46.875 41.738281 46.851562 C 41.796875 46.796875 41.855469 46.765625 41.917969 46.738281 C 42.039062 46.6875 42.160156 46.664062 42.273438 46.648438 C 42.503906 46.628906 42.710938 46.65625 42.875 46.707031 C 43.042969 46.757812 43.167969 46.84375 43.226562 46.933594 C 43.253906 46.976562 43.265625 47.019531 43.265625 47.046875 C 43.261719 47.074219 43.253906 47.089844 43.246094 47.089844 Z M 43.246094 47.089844 " fill-opacity="1" fill-rule="evenodd"/><path fill="#ffffff" d="M 50.191406 48.578125 C 50.175781 48.578125 50.167969 48.527344 50.132812 48.449219 C 50.101562 48.375 50.042969 48.269531 49.925781 48.191406 C 49.867188 48.152344 49.796875 48.125 49.71875 48.113281 C 49.640625 48.105469 49.554688 48.113281 49.472656 48.144531 C 49.394531 48.175781 49.320312 48.230469 49.265625 48.308594 C 49.210938 48.382812 49.179688 48.476562 49.179688 48.578125 C 49.179688 48.675781 49.210938 48.769531 49.265625 48.84375 C 49.320312 48.921875 49.394531 48.976562 49.472656 49.011719 C 49.554688 49.042969 49.640625 49.050781 49.71875 49.039062 C 49.796875 49.027344 49.867188 49 49.925781 48.960938 C 50.042969 48.886719 50.101562 48.78125 50.132812 48.703125 C 50.164062 48.625 50.175781 48.578125 50.191406 48.578125 C 50.207031 48.578125 50.226562 48.628906 50.214844 48.722656 C 50.207031 48.816406 50.15625 48.964844 50.015625 49.082031 C 49.949219 49.140625 49.859375 49.191406 49.75 49.214844 C 49.644531 49.238281 49.523438 49.238281 49.40625 49.195312 C 49.289062 49.15625 49.175781 49.082031 49.09375 48.972656 C 49.011719 48.863281 48.964844 48.722656 48.964844 48.578125 C 48.964844 48.433594 49.011719 48.292969 49.09375 48.183594 C 49.175781 48.074219 49.289062 47.996094 49.40625 47.957031 C 49.523438 47.917969 49.644531 47.914062 49.75 47.9375 C 49.859375 47.960938 49.949219 48.011719 50.015625 48.070312 C 50.15625 48.191406 50.207031 48.335938 50.214844 48.429688 C 50.226562 48.527344 50.207031 48.578125 50.191406 48.578125 Z M 50.191406 48.578125 " fill-opacity="1" fill-rule="evenodd"/><g clip-path="url(#cca01c47c2)"><path fill="#ffffff" d="M 54.222656 47.089844 C 54.222656 47.148438 53.355469 47.199219 51.957031 47.234375 C 51.257812 47.253906 50.425781 47.265625 49.5 47.28125 C 49.273438 47.285156 49.03125 47.285156 48.796875 47.292969 C 48.761719 47.296875 48.746094 47.300781 48.726562 47.316406 C 48.707031 47.328125 48.683594 47.351562 48.660156 47.386719 C 48.613281 47.457031 48.570312 47.566406 48.523438 47.679688 C 48.480469 47.796875 48.429688 47.925781 48.359375 48.054688 C 48.292969 48.183594 48.191406 48.320312 48.050781 48.421875 C 48.015625 48.445312 47.984375 48.464844 47.941406 48.488281 C 47.894531 48.511719 47.855469 48.527344 47.816406 48.539062 C 47.738281 48.5625 47.667969 48.574219 47.597656 48.589844 C 47.457031 48.613281 47.320312 48.628906 47.183594 48.640625 C 46.640625 48.683594 46.113281 48.683594 45.609375 48.679688 C 45.101562 48.675781 44.613281 48.65625 44.152344 48.632812 C 43.6875 48.609375 43.246094 48.578125 42.835938 48.542969 C 42.628906 48.523438 42.429688 48.503906 42.242188 48.484375 L 41.960938 48.453125 C 41.867188 48.441406 41.777344 48.429688 41.6875 48.414062 C 41.332031 48.355469 41.011719 48.257812 40.75 48.128906 C 40.488281 48 40.285156 47.839844 40.152344 47.675781 C 40.019531 47.515625 39.960938 47.359375 39.9375 47.253906 C 39.914062 47.148438 39.925781 47.089844 39.941406 47.089844 C 39.953125 47.085938 39.972656 47.136719 40.019531 47.226562 C 40.0625 47.3125 40.140625 47.4375 40.277344 47.5625 C 40.410156 47.6875 40.601562 47.8125 40.847656 47.910156 C 41.09375 48.007812 41.390625 48.074219 41.730469 48.113281 C 41.8125 48.121094 41.898438 48.128906 41.988281 48.136719 L 42.265625 48.152344 L 42.859375 48.183594 C 43.269531 48.203125 43.707031 48.222656 44.167969 48.234375 C 44.628906 48.25 45.109375 48.257812 45.609375 48.257812 C 46.109375 48.257812 46.628906 48.253906 47.148438 48.210938 C 47.277344 48.199219 47.402344 48.183594 47.523438 48.164062 C 47.582031 48.152344 47.640625 48.140625 47.6875 48.125 C 47.714844 48.121094 47.734375 48.109375 47.746094 48.105469 C 47.761719 48.097656 47.785156 48.082031 47.800781 48.070312 C 47.875 48.019531 47.933594 47.945312 47.988281 47.847656 C 48.039062 47.753906 48.082031 47.644531 48.128906 47.527344 C 48.179688 47.410156 48.222656 47.28125 48.316406 47.148438 C 48.359375 47.082031 48.421875 47.011719 48.507812 46.960938 C 48.59375 46.90625 48.695312 46.882812 48.78125 46.882812 C 49.035156 46.878906 49.265625 46.878906 49.5 46.882812 C 50.425781 46.890625 51.257812 46.910156 51.957031 46.929688 C 53.359375 46.972656 54.222656 47.027344 54.222656 47.089844 Z M 54.222656 47.089844 " fill-opacity="1" fill-rule="evenodd"/></g><g clip-path="url(#0f946c3c27)"><path fill="#ffffff" d="M 68.316406 47.082031 C 68.316406 47.140625 67.367188 47.191406 66.195312 47.191406 C 65.023438 47.195312 64.070312 47.148438 64.070312 47.089844 C 64.070312 47.027344 65.023438 46.980469 66.195312 46.976562 C 67.367188 46.972656 68.316406 47.019531 68.316406 47.082031 Z M 68.316406 47.082031 " fill-opacity="1" fill-rule="evenodd"/></g><path fill="#ffffff" d="M 45.71875 45.558594 C 45.71875 45.617188 44.769531 45.667969 43.597656 45.671875 C 42.425781 45.671875 41.476562 45.625 41.476562 45.566406 C 41.476562 45.507812 42.425781 45.457031 43.597656 45.453125 C 44.769531 45.453125 45.71875 45.5 45.71875 45.558594 Z M 45.71875 45.558594 " fill-opacity="1" fill-rule="evenodd"/><g clip-path="url(#0774f32205)"><path fill="#ffffff" d="M 48.785156 53.546875 C 48.726562 53.546875 48.679688 52.179688 48.679688 50.496094 C 48.679688 48.808594 48.726562 47.441406 48.785156 47.441406 C 48.847656 47.441406 48.894531 48.808594 48.894531 50.496094 C 48.894531 52.179688 48.847656 53.546875 48.785156 53.546875 Z M 48.785156 53.546875 " fill-opacity="1" fill-rule="evenodd"/></g><g fill="#ffffff" fill-opacity="1"><g transform="translate(41.401963, 33.693447)"><g><path d="M 4.78125 -23.34375 C 4.90625 -23.363281 5.019531 -23.335938 5.125 -23.265625 C 5.226562 -23.203125 5.296875 -23.117188 5.328125 -23.015625 C 5.367188 -22.816406 5.394531 -22.625 5.40625 -22.4375 C 5.425781 -22.226562 5.429688 -22.035156 5.421875 -21.859375 C 5.410156 -21.765625 5.410156 -21.6875 5.421875 -21.625 C 5.296875 -19.382812 5.039062 -17.164062 4.65625 -14.96875 C 4.632812 -14.726562 4.640625 -14.488281 4.671875 -14.25 C 4.742188 -13.957031 4.734375 -13.675781 4.640625 -13.40625 C 4.421875 -12.894531 4.253906 -12.378906 4.140625 -11.859375 C 3.484375 -8.160156 2.722656 -4.492188 1.859375 -0.859375 C 1.160156 2.265625 0.289062 5.335938 -0.75 8.359375 C -1.050781 9.171875 -1.375 9.972656 -1.71875 10.765625 C -1.90625 11.117188 -2.117188 11.445312 -2.359375 11.75 C -2.566406 12 -2.847656 12.109375 -3.203125 12.078125 C -3.546875 12.054688 -3.742188 11.859375 -3.796875 11.484375 C -3.816406 11.066406 -3.796875 10.644531 -3.734375 10.21875 C -3.253906 7.675781 -2.671875 5.164062 -1.984375 2.6875 C -0.765625 -2 0.78125 -6.578125 2.65625 -11.046875 C 3 -11.890625 3.226562 -12.75 3.34375 -13.625 C 3.582031 -15.0625 3.789062 -16.5 3.96875 -17.9375 C 4.144531 -19.375 4.269531 -20.8125 4.34375 -22.25 C 4.332031 -22.476562 4.347656 -22.71875 4.390625 -22.96875 C 4.429688 -23.175781 4.5625 -23.300781 4.78125 -23.34375 Z M -2.203125 9.328125 C -1.347656 6.859375 -0.601562 4.363281 0.03125 1.84375 C 0.675781 -0.664062 1.226562 -3.207031 1.6875 -5.78125 C 1.6875 -5.757812 1.675781 -5.734375 1.65625 -5.703125 C 1.613281 -5.671875 1.582031 -5.632812 1.5625 -5.59375 C 1.488281 -5.394531 1.421875 -5.210938 1.359375 -5.046875 C 0.578125 -2.796875 -0.109375 -0.515625 -0.703125 1.796875 C -1.304688 4.109375 -1.863281 6.421875 -2.375 8.734375 C -2.394531 8.773438 -2.40625 8.800781 -2.40625 8.8125 C -2.425781 8.882812 -2.425781 8.960938 -2.40625 9.046875 C -2.394531 9.140625 -2.328125 9.234375 -2.203125 9.328125 Z M 44.484375 -30.28125 C 44.492188 -30.226562 44.476562 -30.171875 44.4375 -30.109375 C 44.394531 -30.054688 44.34375 -30.007812 44.28125 -29.96875 C 44.21875 -29.925781 44.15625 -29.914062 44.09375 -29.9375 C 43.707031 -30.09375 43.316406 -30.175781 42.921875 -30.1875 C 42.523438 -30.195312 42.132812 -30.191406 41.75 -30.171875 C 41.445312 -30.140625 41.15625 -30.125 40.875 -30.125 C 39.8125 -30.125 38.75 -30.085938 37.6875 -30.015625 C 34.238281 -29.742188 30.789062 -29.34375 27.34375 -28.8125 C 24.019531 -28.320312 20.71875 -27.710938 17.4375 -26.984375 C 13.738281 -26.191406 10.0625 -25.304688 6.40625 -24.328125 C 3.03125 -23.460938 -0.320312 -22.535156 -3.65625 -21.546875 C -3.875 -21.484375 -4.085938 -21.425781 -4.296875 -21.375 C -5.578125 -20.976562 -6.847656 -20.578125 -8.109375 -20.171875 C -9.367188 -19.765625 -10.625 -19.3125 -11.875 -18.8125 C -11.976562 -18.757812 -12.082031 -18.710938 -12.1875 -18.671875 C -12.664062 -18.460938 -13.144531 -18.25 -13.625 -18.03125 C -14.113281 -17.8125 -14.570312 -17.535156 -15 -17.203125 C -15.050781 -17.160156 -15.117188 -17.125 -15.203125 -17.09375 C -15.304688 -17.070312 -15.40625 -17.0625 -15.5 -17.0625 C -15.59375 -17.070312 -15.671875 -17.117188 -15.734375 -17.203125 C -15.816406 -17.285156 -15.84375 -17.367188 -15.8125 -17.453125 C -15.78125 -17.546875 -15.726562 -17.628906 -15.65625 -17.703125 C -15.363281 -17.898438 -15.0625 -18.09375 -14.75 -18.28125 C -13.96875 -18.695312 -13.171875 -19.066406 -12.359375 -19.390625 C -11.554688 -19.710938 -10.738281 -20.015625 -9.90625 -20.296875 C -7.507812 -21.117188 -5.109375 -21.882812 -2.703125 -22.59375 C -0.296875 -23.3125 2.128906 -23.988281 4.578125 -24.625 C 8.003906 -25.550781 11.445312 -26.40625 14.90625 -27.1875 C 17.914062 -27.882812 20.953125 -28.492188 24.015625 -29.015625 C 26.234375 -29.398438 28.460938 -29.738281 30.703125 -30.03125 C 32.953125 -30.332031 35.207031 -30.566406 37.46875 -30.734375 C 39.550781 -30.847656 41.625 -30.863281 43.6875 -30.78125 C 43.882812 -30.769531 44.066406 -30.726562 44.234375 -30.65625 C 44.390625 -30.582031 44.472656 -30.457031 44.484375 -30.28125 Z M 44.484375 -30.28125 "/></g></g><g transform="translate(48.046187, 32.614267)"><g><path d="M 5.828125 -5.6875 C 5.972656 -5.632812 6.015625 -5.441406 5.953125 -5.109375 C 5.828125 -4.847656 5.675781 -4.597656 5.5 -4.359375 C 5.332031 -4.128906 5.140625 -3.921875 4.921875 -3.734375 C 4.898438 -3.734375 4.894531 -3.722656 4.90625 -3.703125 C 4.769531 -3.566406 4.625 -3.445312 4.46875 -3.34375 C 3.101562 -2.59375 2.3125 -2.78125 2.09375 -3.90625 C 1.59375 -3.289062 1.253906 -2.910156 1.078125 -2.765625 C 0.628906 -2.398438 0.128906 -2.1875 -0.421875 -2.125 C -0.835938 -2.09375 -1.132812 -2.175781 -1.3125 -2.375 C -1.5 -2.582031 -1.535156 -2.890625 -1.421875 -3.296875 C -1.265625 -3.953125 -0.976562 -4.5625 -0.5625 -5.125 C -0.0703125 -5.75 0.492188 -6.28125 1.140625 -6.71875 C 1.492188 -6.957031 1.878906 -7.085938 2.296875 -7.109375 C 2.703125 -7.160156 2.988281 -6.972656 3.15625 -6.546875 C 3.207031 -6.410156 3.191406 -6.285156 3.109375 -6.171875 C 2.992188 -6.023438 2.835938 -5.972656 2.640625 -6.015625 C 2.628906 -6.015625 2.613281 -6.015625 2.59375 -6.015625 C 2.570312 -6.015625 2.554688 -6.019531 2.546875 -6.03125 C 2.328125 -6.25 2.132812 -6.320312 1.96875 -6.25 C 1.800781 -6.175781 1.625 -6.0625 1.4375 -5.90625 C 0.59375 -5.21875 0.0234375 -4.351562 -0.265625 -3.3125 C -0.273438 -3.257812 -0.28125 -3.207031 -0.28125 -3.15625 C -0.28125 -3.101562 -0.257812 -3.066406 -0.21875 -3.046875 C -0.101562 -3.023438 0.0078125 -3.046875 0.125 -3.109375 C 0.25 -3.179688 0.367188 -3.28125 0.484375 -3.40625 C 0.609375 -3.53125 0.710938 -3.632812 0.796875 -3.71875 C 0.796875 -3.738281 0.796875 -3.75 0.796875 -3.75 C 1.179688 -4.195312 1.554688 -4.644531 1.921875 -5.09375 C 2.078125 -5.332031 2.289062 -5.484375 2.5625 -5.546875 C 2.957031 -5.609375 3.15625 -5.453125 3.15625 -5.078125 C 3.144531 -4.941406 3.125 -4.804688 3.09375 -4.671875 C 3.03125 -4.078125 3.078125 -3.738281 3.234375 -3.65625 C 3.398438 -3.582031 3.625 -3.617188 3.90625 -3.765625 C 4.195312 -3.910156 4.46875 -4.148438 4.71875 -4.484375 C 4.96875 -4.816406 5.175781 -5.113281 5.34375 -5.375 C 5.519531 -5.632812 5.679688 -5.738281 5.828125 -5.6875 Z M 5.828125 -5.6875 "/></g></g><g transform="translate(54.055902, 31.638146)"><g/></g><g transform="translate(60.908608, 30.525104)"><g><path d="M -0.03125 -1.640625 C -0.601562 -1.546875 -0.9375 -1.796875 -1.03125 -2.390625 C -1.144531 -3.117188 -0.882812 -4.488281 -0.25 -6.5 C -0.21875 -6.59375 -0.15625 -6.644531 -0.0625 -6.65625 C 0.320312 -6.71875 0.535156 -6.597656 0.578125 -6.296875 C 0.597656 -6.179688 0.585938 -6.039062 0.546875 -5.875 C 0.523438 -5.832031 0.335938 -4.976562 -0.015625 -3.3125 C -0.0664062 -3.0625 -0.0820312 -2.875 -0.0625 -2.75 C -0.0390625 -2.613281 0.0234375 -2.554688 0.140625 -2.578125 C 0.578125 -2.648438 1.554688 -3.929688 3.078125 -6.421875 C 3.265625 -6.765625 3.476562 -6.953125 3.71875 -6.984375 C 4.0625 -7.046875 4.253906 -6.953125 4.296875 -6.703125 C 4.316406 -6.597656 4.273438 -6.207031 4.171875 -5.53125 C 4.015625 -4.625 3.945312 -4.101562 3.96875 -3.96875 C 4 -3.78125 4.082031 -3.695312 4.21875 -3.71875 C 4.550781 -3.769531 5.425781 -4.515625 6.84375 -5.953125 C 6.925781 -6.046875 7 -6.101562 7.0625 -6.125 C 7.207031 -6.144531 7.300781 -6.023438 7.34375 -5.765625 C 7.351562 -5.703125 7.335938 -5.644531 7.296875 -5.59375 C 6.566406 -4.726562 5.9375 -4.054688 5.40625 -3.578125 C 4.914062 -3.128906 4.457031 -2.875 4.03125 -2.8125 L 3.90625 -2.78125 C 3.257812 -2.8125 2.867188 -3.25 2.734375 -4.09375 C 2.171875 -3.40625 1.695312 -2.84375 1.3125 -2.40625 C 0.925781 -1.976562 0.476562 -1.722656 -0.03125 -1.640625 Z M -0.03125 -1.640625 "/></g></g></g><g fill="#ffffff" fill-opacity="1"><g transform="translate(52.546077, 31.830505)"><g><path d="M 4.671875 -0.125 C 4.015625 -0.09375 3.554688 -0.238281 3.296875 -0.5625 C 3.035156 -0.894531 2.890625 -1.347656 2.859375 -1.921875 C 2.828125 -2.566406 2.988281 -3.34375 3.34375 -4.25 C 3.476562 -4.613281 3.625 -4.941406 3.78125 -5.234375 C 3.9375 -5.523438 4.101562 -5.796875 4.28125 -6.046875 C 4.21875 -6.023438 4.160156 -6.015625 4.109375 -6.015625 C 4.066406 -6.015625 4.023438 -6.007812 3.984375 -6 C 3.617188 -5.988281 3.296875 -6.234375 3.015625 -6.734375 L 1.4375 -4.453125 C 0.59375 -3.234375 0.0703125 -2.617188 -0.125 -2.609375 C -0.195312 -2.609375 -0.238281 -2.640625 -0.25 -2.703125 C -0.25 -2.773438 -0.210938 -2.875 -0.140625 -3 C -0.109375 -3.09375 -0.0234375 -3.222656 0.109375 -3.390625 C 0.648438 -4.085938 1.148438 -4.773438 1.609375 -5.453125 C 2.066406 -6.128906 2.441406 -6.789062 2.734375 -7.4375 C 3.023438 -8.769531 3.4375 -9.453125 3.96875 -9.484375 C 4.320312 -9.503906 4.503906 -9.351562 4.515625 -9.03125 C 4.535156 -8.738281 4.363281 -8.347656 4 -7.859375 C 3.65625 -7.359375 3.484375 -7.101562 3.484375 -7.09375 C 3.503906 -6.769531 3.75 -6.617188 4.21875 -6.640625 C 4.5 -6.660156 4.800781 -6.773438 5.125 -6.984375 L 5.703125 -7.390625 C 5.734375 -7.398438 5.78125 -7.410156 5.84375 -7.421875 C 6.019531 -7.421875 6.175781 -7.347656 6.3125 -7.203125 C 6.457031 -7.066406 6.515625 -6.929688 6.484375 -6.796875 L 5 -4.75 C 4.09375 -3.445312 3.65625 -2.414062 3.6875 -1.65625 C 3.726562 -0.96875 4.082031 -0.640625 4.75 -0.671875 C 5.207031 -0.691406 5.6875 -0.851562 6.1875 -1.15625 C 6.695312 -1.457031 7.191406 -1.820312 7.671875 -2.25 C 8.148438 -2.675781 8.546875 -3.085938 8.859375 -3.484375 L 9.375 -4.15625 C 9.40625 -4.1875 9.441406 -4.226562 9.484375 -4.28125 C 9.535156 -4.332031 9.578125 -4.359375 9.609375 -4.359375 C 9.710938 -4.359375 9.765625 -4.304688 9.765625 -4.203125 C 9.765625 -4.171875 9.75 -4.113281 9.71875 -4.03125 C 9.695312 -3.957031 9.65625 -3.875 9.59375 -3.78125 L 8.890625 -2.90625 C 8.554688 -2.5 8.144531 -2.082031 7.65625 -1.65625 C 7.164062 -1.226562 6.65625 -0.867188 6.125 -0.578125 C 5.601562 -0.296875 5.117188 -0.144531 4.671875 -0.125 Z M 4.671875 -0.125 "/></g></g></g><g fill="#ffffff" fill-opacity="1"><g transform="translate(70.790442, 35.914992)"><g><path d="M -1.121094 -6.296875 C 1.277344 -6.425781 4.570312 -13.011719 5.730469 -12.921875 C 6.863281 -12.824219 4.414062 -4.703125 0.851562 -2.207031 C 0.265625 -1.550781 0.984375 -0.953125 1.535156 -1.105469 C 3.597656 -1.683594 5.496094 0.640625 6.148438 1.984375 C -3.363281 12.128906 1.054688 18.535156 5.371094 17.566406 C 9.15625 16.71875 11.976562 8.6875 7.601562 1.160156 C 9.90625 -1.199219 12.703125 -4.515625 14.933594 -10.21875 C 14.902344 -10.359375 14.453125 -10.257812 14.398438 -10.128906 C 12.535156 -5.265625 10.144531 -2.097656 7.359375 0.746094 C 5.683594 -1.773438 3.488281 -1.921875 1.699219 -1.550781 C 1.136719 -1.453125 1.347656 -1.820312 1.449219 -1.875 C 6.90625 -4.675781 8.402344 -12.730469 6.039062 -13.371094 C 4.484375 -13.78125 1.148438 -7.128906 -0.867188 -6.734375 C -0.265625 -8.886719 0.304688 -11.941406 -1.089844 -12.035156 C -3.816406 -12.070312 -4.238281 -6.125 -1.121094 -6.296875 Z M 6.332031 2.410156 C 9.355469 8.078125 8.957031 15.566406 5.644531 17.097656 C 2.171875 18.695312 -3.355469 12.683594 6.332031 2.410156 Z M -1.359375 -6.714844 C -3.347656 -6.851562 -3.070312 -11.476562 -1.238281 -11.652344 C -0.148438 -11.75 -0.941406 -7.714844 -1.359375 -6.714844 Z M -1.359375 -6.714844 "/></g></g></g><g clip-path="url(#99538d70ae)"><g clip-path="url(#d237c45bf1)"><path fill="#ffffff" d="M 86.152344 33.027344 C 75.273438 33.644531 64.398438 34.523438 53.554688 35.742188 C 42.707031 36.976562 31.886719 38.515625 21.195312 40.773438 C 20.019531 41.066406 20.4375 42.757812 21.585938 42.519531 C 42.804688 37.65625 64.5 35.203125 86.179688 33.4375 C 86.289062 33.425781 86.375 33.332031 86.367188 33.222656 C 86.359375 33.109375 86.261719 33.023438 86.152344 33.03125 Z M 86.152344 33.027344 " fill-opacity="1" fill-rule="nonzero"/></g></g><g clip-path="url(#fa7add6113)"><g clip-path="url(#275563231d)"><path fill="#ffffff" d="M 87.882812 33.148438 C 87.882812 33.226562 87.851562 33.292969 87.796875 33.351562 C 87.742188 33.40625 87.675781 33.433594 87.59375 33.433594 C 87.515625 33.433594 87.449219 33.40625 87.394531 33.351562 C 87.335938 33.292969 87.308594 33.226562 87.308594 33.148438 C 87.308594 33.070312 87.335938 33.003906 87.394531 32.945312 C 87.449219 32.890625 87.515625 32.863281 87.59375 32.863281 C 87.675781 32.863281 87.742188 32.890625 87.796875 32.945312 C 87.851562 33.003906 87.882812 33.070312 87.882812 33.148438 Z M 87.882812 33.148438 " fill-opacity="1" fill-rule="nonzero"/></g></g><g fill="#ffffff" fill-opacity="1"><g transform="translate(3.134183, 56.243849)"><g><path d="M 1.125 -2.0625 C 1.300781 -2.0625 1.457031 -2.03125 1.59375 -1.96875 C 1.726562 -1.914062 1.832031 -1.832031 1.90625 -1.71875 C 1.976562 -1.613281 2.015625 -1.484375 2.015625 -1.328125 C 2.015625 -1.179688 1.976562 -1.050781 1.90625 -0.9375 C 1.832031 -0.832031 1.726562 -0.75 1.59375 -0.6875 C 1.457031 -0.625 1.300781 -0.59375 1.125 -0.59375 L 0.65625 -0.59375 L 0.65625 0 L 0.28125 0 L 0.28125 -2.0625 Z M 1.109375 -0.921875 C 1.273438 -0.921875 1.398438 -0.957031 1.484375 -1.03125 C 1.578125 -1.101562 1.625 -1.203125 1.625 -1.328125 C 1.625 -1.460938 1.578125 -1.566406 1.484375 -1.640625 C 1.398438 -1.710938 1.273438 -1.75 1.109375 -1.75 L 0.65625 -1.75 L 0.65625 -0.921875 Z M 1.109375 -0.921875 "/></g></g></g><g fill="#ffffff" fill-opacity="1"><g transform="translate(6.868031, 56.243849)"><g><path d="M 2.109375 -2.0625 L 2.109375 0 L 1.734375 0 L 1.734375 -0.890625 L 0.65625 -0.890625 L 0.65625 0 L 0.28125 0 L 0.28125 -2.0625 L 0.65625 -2.0625 L 0.65625 -1.21875 L 1.734375 -1.21875 L 1.734375 -2.0625 Z M 2.109375 -2.0625 "/></g></g></g><g fill="#ffffff" fill-opacity="1"><g transform="translate(10.849817, 56.243849)"><g><path d="M 1.25 0.03125 C 1.03125 0.03125 0.835938 -0.015625 0.671875 -0.109375 C 0.503906 -0.203125 0.367188 -0.328125 0.265625 -0.484375 C 0.171875 -0.648438 0.125 -0.832031 0.125 -1.03125 C 0.125 -1.226562 0.171875 -1.410156 0.265625 -1.578125 C 0.367188 -1.742188 0.503906 -1.867188 0.671875 -1.953125 C 0.835938 -2.046875 1.03125 -2.09375 1.25 -2.09375 C 1.457031 -2.09375 1.644531 -2.046875 1.8125 -1.953125 C 1.976562 -1.867188 2.109375 -1.742188 2.203125 -1.578125 C 2.304688 -1.421875 2.359375 -1.238281 2.359375 -1.03125 C 2.359375 -0.832031 2.304688 -0.648438 2.203125 -0.484375 C 2.109375 -0.328125 1.976562 -0.203125 1.8125 -0.109375 C 1.644531 -0.015625 1.457031 0.03125 1.25 0.03125 Z M 1.25 -0.3125 C 1.382812 -0.3125 1.503906 -0.34375 1.609375 -0.40625 C 1.722656 -0.46875 1.8125 -0.550781 1.875 -0.65625 C 1.9375 -0.769531 1.96875 -0.894531 1.96875 -1.03125 C 1.96875 -1.164062 1.9375 -1.289062 1.875 -1.40625 C 1.8125 -1.519531 1.722656 -1.609375 1.609375 -1.671875 C 1.503906 -1.734375 1.382812 -1.765625 1.25 -1.765625 C 1.101562 -1.765625 0.972656 -1.734375 0.859375 -1.671875 C 0.753906 -1.609375 0.671875 -1.519531 0.609375 -1.40625 C 0.546875 -1.289062 0.515625 -1.164062 0.515625 -1.03125 C 0.515625 -0.894531 0.546875 -0.769531 0.609375 -0.65625 C 0.671875 -0.550781 0.753906 -0.46875 0.859375 -0.40625 C 0.972656 -0.34375 1.101562 -0.3125 1.25 -0.3125 Z M 1.25 -0.3125 "/></g></g></g><g fill="#ffffff" fill-opacity="1"><g transform="translate(14.926055, 56.243849)"><g><path d="M 0.703125 -1.75 L 0.015625 -1.75 L 0.015625 -2.0625 L 1.765625 -2.0625 L 1.765625 -1.75 L 1.078125 -1.75 L 1.078125 0 L 0.703125 0 Z M 0.703125 -1.75 "/></g></g></g><g fill="#ffffff" fill-opacity="1"><g transform="translate(18.293894, 56.243849)"><g><path d="M 1.25 0.03125 C 1.03125 0.03125 0.835938 -0.015625 0.671875 -0.109375 C 0.503906 -0.203125 0.367188 -0.328125 0.265625 -0.484375 C 0.171875 -0.648438 0.125 -0.832031 0.125 -1.03125 C 0.125 -1.226562 0.171875 -1.410156 0.265625 -1.578125 C 0.367188 -1.742188 0.503906 -1.867188 0.671875 -1.953125 C 0.835938 -2.046875 1.03125 -2.09375 1.25 -2.09375 C 1.457031 -2.09375 1.644531 -2.046875 1.8125 -1.953125 C 1.976562 -1.867188 2.109375 -1.742188 2.203125 -1.578125 C 2.304688 -1.421875 2.359375 -1.238281 2.359375 -1.03125 C 2.359375 -0.832031 2.304688 -0.648438 2.203125 -0.484375 C 2.109375 -0.328125 1.976562 -0.203125 1.8125 -0.109375 C 1.644531 -0.015625 1.457031 0.03125 1.25 0.03125 Z M 1.25 -0.3125 C 1.382812 -0.3125 1.503906 -0.34375 1.609375 -0.40625 C 1.722656 -0.46875 1.8125 -0.550781 1.875 -0.65625 C 1.9375 -0.769531 1.96875 -0.894531 1.96875 -1.03125 C 1.96875 -1.164062 1.9375 -1.289062 1.875 -1.40625 C 1.8125 -1.519531 1.722656 -1.609375 1.609375 -1.671875 C 1.503906 -1.734375 1.382812 -1.765625 1.25 -1.765625 C 1.101562 -1.765625 0.972656 -1.734375 0.859375 -1.671875 C 0.753906 -1.609375 0.671875 -1.519531 0.609375 -1.40625 C 0.546875 -1.289062 0.515625 -1.164062 0.515625 -1.03125 C 0.515625 -0.894531 0.546875 -0.769531 0.609375 -0.65625 C 0.671875 -0.550781 0.753906 -0.46875 0.859375 -0.40625 C 0.972656 -0.34375 1.101562 -0.3125 1.25 -0.3125 Z M 1.25 -0.3125 "/></g></g></g><g fill="#ffffff" fill-opacity="1"><g transform="translate(22.370133, 56.243849)"><g><path d="M 1.6875 -1.0625 L 2.046875 -1.0625 L 2.046875 -0.234375 C 1.941406 -0.148438 1.816406 -0.0820312 1.671875 -0.03125 C 1.535156 0.0078125 1.394531 0.03125 1.25 0.03125 C 1.03125 0.03125 0.835938 -0.015625 0.671875 -0.109375 C 0.503906 -0.203125 0.367188 -0.328125 0.265625 -0.484375 C 0.171875 -0.648438 0.125 -0.832031 0.125 -1.03125 C 0.125 -1.238281 0.171875 -1.421875 0.265625 -1.578125 C 0.367188 -1.742188 0.503906 -1.867188 0.671875 -1.953125 C 0.847656 -2.046875 1.039062 -2.09375 1.25 -2.09375 C 1.425781 -2.09375 1.582031 -2.0625 1.71875 -2 C 1.863281 -1.945312 1.984375 -1.867188 2.078125 -1.765625 L 1.84375 -1.53125 C 1.675781 -1.6875 1.484375 -1.765625 1.265625 -1.765625 C 1.117188 -1.765625 0.988281 -1.734375 0.875 -1.671875 C 0.757812 -1.609375 0.671875 -1.519531 0.609375 -1.40625 C 0.546875 -1.300781 0.515625 -1.175781 0.515625 -1.03125 C 0.515625 -0.894531 0.546875 -0.769531 0.609375 -0.65625 C 0.671875 -0.550781 0.757812 -0.46875 0.875 -0.40625 C 0.988281 -0.34375 1.117188 -0.3125 1.265625 -0.3125 C 1.421875 -0.3125 1.5625 -0.34375 1.6875 -0.40625 Z M 1.6875 -1.0625 "/></g></g></g><g fill="#ffffff" fill-opacity="1"><g transform="translate(26.239757, 56.243849)"><g><path d="M 1.625 0 L 1.203125 -0.609375 C 1.191406 -0.609375 1.164062 -0.609375 1.125 -0.609375 L 0.65625 -0.609375 L 0.65625 0 L 0.28125 0 L 0.28125 -2.0625 L 1.125 -2.0625 C 1.300781 -2.0625 1.457031 -2.03125 1.59375 -1.96875 C 1.726562 -1.914062 1.832031 -1.832031 1.90625 -1.71875 C 1.976562 -1.613281 2.015625 -1.484375 2.015625 -1.328125 C 2.015625 -1.171875 1.972656 -1.035156 1.890625 -0.921875 C 1.816406 -0.816406 1.707031 -0.734375 1.5625 -0.671875 L 2.046875 0 Z M 1.625 -1.328125 C 1.625 -1.460938 1.578125 -1.566406 1.484375 -1.640625 C 1.398438 -1.710938 1.273438 -1.75 1.109375 -1.75 L 0.65625 -1.75 L 0.65625 -0.921875 L 1.109375 -0.921875 C 1.273438 -0.921875 1.398438 -0.957031 1.484375 -1.03125 C 1.578125 -1.101562 1.625 -1.203125 1.625 -1.328125 Z M 1.625 -1.328125 "/></g></g></g><g fill="#ffffff" fill-opacity="1"><g transform="translate(29.988364, 56.243849)"><g><path d="M 1.625 -0.484375 L 0.578125 -0.484375 L 0.375 0 L -0.015625 0 L 0.921875 -2.0625 L 1.296875 -2.0625 L 2.234375 0 L 1.828125 0 Z M 1.484375 -0.78125 L 1.09375 -1.6875 L 0.71875 -0.78125 Z M 1.484375 -0.78125 "/></g></g></g><g fill="#ffffff" fill-opacity="1"><g transform="translate(33.7901, 56.243849)"><g><path d="M 1.125 -2.0625 C 1.300781 -2.0625 1.457031 -2.03125 1.59375 -1.96875 C 1.726562 -1.914062 1.832031 -1.832031 1.90625 -1.71875 C 1.976562 -1.613281 2.015625 -1.484375 2.015625 -1.328125 C 2.015625 -1.179688 1.976562 -1.050781 1.90625 -0.9375 C 1.832031 -0.832031 1.726562 -0.75 1.59375 -0.6875 C 1.457031 -0.625 1.300781 -0.59375 1.125 -0.59375 L 0.65625 -0.59375 L 0.65625 0 L 0.28125 0 L 0.28125 -2.0625 Z M 1.109375 -0.921875 C 1.273438 -0.921875 1.398438 -0.957031 1.484375 -1.03125 C 1.578125 -1.101562 1.625 -1.203125 1.625 -1.328125 C 1.625 -1.460938 1.578125 -1.566406 1.484375 -1.640625 C 1.398438 -1.710938 1.273438 -1.75 1.109375 -1.75 L 0.65625 -1.75 L 0.65625 -0.921875 Z M 1.109375 -0.921875 "/></g></g></g><g fill="#ffffff" fill-opacity="1"><g transform="translate(37.523947, 56.243849)"><g><path d="M 2.109375 -2.0625 L 2.109375 0 L 1.734375 0 L 1.734375 -0.890625 L 0.65625 -0.890625 L 0.65625 0 L 0.28125 0 L 0.28125 -2.0625 L 0.65625 -2.0625 L 0.65625 -1.21875 L 1.734375 -1.21875 L 1.734375 -2.0625 Z M 2.109375 -2.0625 "/></g></g></g><g fill="#ffffff" fill-opacity="1"><g transform="translate(41.505733, 56.243849)"><g><path d="M 1.171875 -0.734375 L 1.171875 0 L 0.78125 0 L 0.78125 -0.71875 L -0.03125 -2.0625 L 0.390625 -2.0625 L 0.984375 -1.0625 L 1.59375 -2.0625 L 1.984375 -2.0625 Z M 1.171875 -0.734375 "/></g></g></g><g fill="#ffffff" fill-opacity="1"><g transform="translate(45.047721, 56.243849)"><g/></g></g><g fill="#ffffff" fill-opacity="1"><g transform="translate(47.453319, 56.243849)"><g><path d="M 0.28125 -2.1875 L 0.625 -2.1875 L 0.625 0.578125 L 0.28125 0.578125 Z M 0.28125 -2.1875 "/></g></g></g><g fill="#ffffff" fill-opacity="1"><g transform="translate(49.938613, 56.243849)"><g/></g></g><g fill="#ffffff" fill-opacity="1"><g transform="translate(52.344211, 56.243849)"><g><path d="M 1.828125 -0.328125 L 1.828125 0 L 0.28125 0 L 0.28125 -2.0625 L 1.78125 -2.0625 L 1.78125 -1.75 L 0.65625 -1.75 L 0.65625 -1.203125 L 1.65625 -1.203125 L 1.65625 -0.890625 L 0.65625 -0.890625 L 0.65625 -0.328125 Z M 1.828125 -0.328125 "/></g></g></g><g fill="#ffffff" fill-opacity="1"><g transform="translate(55.912765, 56.243849)"><g><path d="M 0.28125 -2.0625 L 1.1875 -2.0625 C 1.40625 -2.0625 1.597656 -2.019531 1.765625 -1.9375 C 1.941406 -1.851562 2.078125 -1.734375 2.171875 -1.578125 C 2.265625 -1.421875 2.3125 -1.238281 2.3125 -1.03125 C 2.3125 -0.820312 2.265625 -0.640625 2.171875 -0.484375 C 2.078125 -0.328125 1.941406 -0.207031 1.765625 -0.125 C 1.597656 -0.0390625 1.40625 0 1.1875 0 L 0.28125 0 Z M 1.15625 -0.328125 C 1.3125 -0.328125 1.445312 -0.351562 1.5625 -0.40625 C 1.675781 -0.46875 1.765625 -0.550781 1.828125 -0.65625 C 1.890625 -0.769531 1.921875 -0.894531 1.921875 -1.03125 C 1.921875 -1.175781 1.890625 -1.300781 1.828125 -1.40625 C 1.765625 -1.507812 1.675781 -1.59375 1.5625 -1.65625 C 1.445312 -1.71875 1.3125 -1.75 1.15625 -1.75 L 0.65625 -1.75 L 0.65625 -0.328125 Z M 1.15625 -0.328125 "/></g></g></g><g fill="#ffffff" fill-opacity="1"><g transform="translate(59.941777, 56.243849)"><g><path d="M 0.28125 -2.0625 L 0.65625 -2.0625 L 0.65625 0 L 0.28125 0 Z M 0.28125 -2.0625 "/></g></g></g><g fill="#ffffff" fill-opacity="1"><g transform="translate(62.474298, 56.243849)"><g><path d="M 0.703125 -1.75 L 0.015625 -1.75 L 0.015625 -2.0625 L 1.765625 -2.0625 L 1.765625 -1.75 L 1.078125 -1.75 L 1.078125 0 L 0.703125 0 Z M 0.703125 -1.75 "/></g></g></g><g fill="#ffffff" fill-opacity="1"><g transform="translate(65.842137, 56.243849)"><g><path d="M 0.28125 -2.0625 L 0.65625 -2.0625 L 0.65625 0 L 0.28125 0 Z M 0.28125 -2.0625 "/></g></g></g><g fill="#ffffff" fill-opacity="1"><g transform="translate(68.374657, 56.243849)"><g><path d="M 2.109375 -2.0625 L 2.109375 0 L 1.796875 0 L 0.65625 -1.40625 L 0.65625 0 L 0.28125 0 L 0.28125 -2.0625 L 0.59375 -2.0625 L 1.734375 -0.671875 L 1.734375 -2.0625 Z M 2.109375 -2.0625 "/></g></g></g><g fill="#ffffff" fill-opacity="1"><g transform="translate(72.356439, 56.243849)"><g><path d="M 1.6875 -1.0625 L 2.046875 -1.0625 L 2.046875 -0.234375 C 1.941406 -0.148438 1.816406 -0.0820312 1.671875 -0.03125 C 1.535156 0.0078125 1.394531 0.03125 1.25 0.03125 C 1.03125 0.03125 0.835938 -0.015625 0.671875 -0.109375 C 0.503906 -0.203125 0.367188 -0.328125 0.265625 -0.484375 C 0.171875 -0.648438 0.125 -0.832031 0.125 -1.03125 C 0.125 -1.238281 0.171875 -1.421875 0.265625 -1.578125 C 0.367188 -1.742188 0.503906 -1.867188 0.671875 -1.953125 C 0.847656 -2.046875 1.039062 -2.09375 1.25 -2.09375 C 1.425781 -2.09375 1.582031 -2.0625 1.71875 -2 C 1.863281 -1.945312 1.984375 -1.867188 2.078125 -1.765625 L 1.84375 -1.53125 C 1.675781 -1.6875 1.484375 -1.765625 1.265625 -1.765625 C 1.117188 -1.765625 0.988281 -1.734375 0.875 -1.671875 C 0.757812 -1.609375 0.671875 -1.519531 0.609375 -1.40625 C 0.546875 -1.300781 0.515625 -1.175781 0.515625 -1.03125 C 0.515625 -0.894531 0.546875 -0.769531 0.609375 -0.65625 C 0.671875 -0.550781 0.757812 -0.46875 0.875 -0.40625 C 0.988281 -0.34375 1.117188 -0.3125 1.265625 -0.3125 C 1.421875 -0.3125 1.5625 -0.34375 1.6875 -0.40625 Z M 1.6875 -1.0625 "/></g></g></g><g fill="#ffffff" fill-opacity="1"><g transform="translate(76.22606, 56.243849)"><g/></g></g><g fill="#ffffff" fill-opacity="1"><g transform="translate(78.631659, 56.243849)"><g><path d="M 0.28125 -2.1875 L 0.625 -2.1875 L 0.625 0.578125 L 0.28125 0.578125 Z M 0.28125 -2.1875 "/></g></g></g><g fill="#ffffff" fill-opacity="1"><g transform="translate(81.116953, 56.243849)"><g/></g></g><g fill="#ffffff" fill-opacity="1"><g transform="translate(83.522551, 56.243849)"><g><path d="M 0.28125 -2.0625 L 1.1875 -2.0625 C 1.40625 -2.0625 1.597656 -2.019531 1.765625 -1.9375 C 1.941406 -1.851562 2.078125 -1.734375 2.171875 -1.578125 C 2.265625 -1.421875 2.3125 -1.238281 2.3125 -1.03125 C 2.3125 -0.820312 2.265625 -0.640625 2.171875 -0.484375 C 2.078125 -0.328125 1.941406 -0.207031 1.765625 -0.125 C 1.597656 -0.0390625 1.40625 0 1.1875 0 L 0.28125 0 Z M 1.15625 -0.328125 C 1.3125 -0.328125 1.445312 -0.351562 1.5625 -0.40625 C 1.675781 -0.46875 1.765625 -0.550781 1.828125 -0.65625 C 1.890625 -0.769531 1.921875 -0.894531 1.921875 -1.03125 C 1.921875 -1.175781 1.890625 -1.300781 1.828125 -1.40625 C 1.765625 -1.507812 1.675781 -1.59375 1.5625 -1.65625 C 1.445312 -1.71875 1.3125 -1.75 1.15625 -1.75 L 0.65625 -1.75 L 0.65625 -0.328125 Z M 1.15625 -0.328125 "/></g></g></g><g fill="#ffffff" fill-opacity="1"><g transform="translate(87.551563, 56.243849)"><g><path d="M 1.828125 -0.328125 L 1.828125 0 L 0.28125 0 L 0.28125 -2.0625 L 1.78125 -2.0625 L 1.78125 -1.75 L 0.65625 -1.75 L 0.65625 -1.203125 L 1.65625 -1.203125 L 1.65625 -0.890625 L 0.65625 -0.890625 L 0.65625 -0.328125 Z M 1.828125 -0.328125 "/></g></g></g><g fill="#ffffff" fill-opacity="1"><g transform="translate(91.120117, 56.243849)"><g><path d="M 0.921875 0.03125 C 0.753906 0.03125 0.597656 0.0078125 0.453125 -0.03125 C 0.304688 -0.0820312 0.191406 -0.144531 0.109375 -0.21875 L 0.234375 -0.515625 C 0.316406 -0.453125 0.421875 -0.398438 0.546875 -0.359375 C 0.671875 -0.316406 0.796875 -0.296875 0.921875 -0.296875 C 1.078125 -0.296875 1.191406 -0.316406 1.265625 -0.359375 C 1.335938 -0.410156 1.375 -0.476562 1.375 -0.5625 C 1.375 -0.613281 1.351562 -0.660156 1.3125 -0.703125 C 1.269531 -0.742188 1.210938 -0.773438 1.140625 -0.796875 C 1.078125 -0.816406 0.992188 -0.84375 0.890625 -0.875 C 0.734375 -0.90625 0.601562 -0.9375 0.5 -0.96875 C 0.40625 -1.007812 0.320312 -1.070312 0.25 -1.15625 C 0.175781 -1.238281 0.140625 -1.347656 0.140625 -1.484375 C 0.140625 -1.597656 0.171875 -1.703125 0.234375 -1.796875 C 0.296875 -1.890625 0.390625 -1.960938 0.515625 -2.015625 C 0.640625 -2.066406 0.796875 -2.09375 0.984375 -2.09375 C 1.109375 -2.09375 1.226562 -2.078125 1.34375 -2.046875 C 1.46875 -2.015625 1.578125 -1.96875 1.671875 -1.90625 L 1.546875 -1.609375 C 1.453125 -1.660156 1.351562 -1.703125 1.25 -1.734375 C 1.15625 -1.765625 1.066406 -1.78125 0.984375 -1.78125 C 0.828125 -1.78125 0.710938 -1.753906 0.640625 -1.703125 C 0.566406 -1.648438 0.53125 -1.582031 0.53125 -1.5 C 0.53125 -1.4375 0.550781 -1.382812 0.59375 -1.34375 C 0.632812 -1.3125 0.6875 -1.285156 0.75 -1.265625 C 0.8125 -1.242188 0.898438 -1.21875 1.015625 -1.1875 C 1.171875 -1.15625 1.296875 -1.117188 1.390625 -1.078125 C 1.492188 -1.035156 1.578125 -0.972656 1.640625 -0.890625 C 1.710938 -0.816406 1.75 -0.710938 1.75 -0.578125 C 1.75 -0.460938 1.71875 -0.359375 1.65625 -0.265625 C 1.59375 -0.179688 1.5 -0.109375 1.375 -0.046875 C 1.25 0.00390625 1.097656 0.03125 0.921875 0.03125 Z M 0.921875 0.03125 "/></g></g></g><g fill="#ffffff" fill-opacity="1"><g transform="translate(94.567651, 56.243849)"><g><path d="M 0.28125 -2.0625 L 0.65625 -2.0625 L 0.65625 0 L 0.28125 0 Z M 0.28125 -2.0625 "/></g></g></g><g fill="#ffffff" fill-opacity="1"><g transform="translate(97.100168, 56.243849)"><g><path d="M 1.6875 -1.0625 L 2.046875 -1.0625 L 2.046875 -0.234375 C 1.941406 -0.148438 1.816406 -0.0820312 1.671875 -0.03125 C 1.535156 0.0078125 1.394531 0.03125 1.25 0.03125 C 1.03125 0.03125 0.835938 -0.015625 0.671875 -0.109375 C 0.503906 -0.203125 0.367188 -0.328125 0.265625 -0.484375 C 0.171875 -0.648438 0.125 -0.832031 0.125 -1.03125 C 0.125 -1.238281 0.171875 -1.421875 0.265625 -1.578125 C 0.367188 -1.742188 0.503906 -1.867188 0.671875 -1.953125 C 0.847656 -2.046875 1.039062 -2.09375 1.25 -2.09375 C 1.425781 -2.09375 1.582031 -2.0625 1.71875 -2 C 1.863281 -1.945312 1.984375 -1.867188 2.078125 -1.765625 L 1.84375 -1.53125 C 1.675781 -1.6875 1.484375 -1.765625 1.265625 -1.765625 C 1.117188 -1.765625 0.988281 -1.734375 0.875 -1.671875 C 0.757812 -1.609375 0.671875 -1.519531 0.609375 -1.40625 C 0.546875 -1.300781 0.515625 -1.175781 0.515625 -1.03125 C 0.515625 -0.894531 0.546875 -0.769531 0.609375 -0.65625 C 0.671875 -0.550781 0.757812 -0.46875 0.875 -0.40625 C 0.988281 -0.34375 1.117188 -0.3125 1.265625 -0.3125 C 1.421875 -0.3125 1.5625 -0.34375 1.6875 -0.40625 Z M 1.6875 -1.0625 "/></g></g></g><g fill="#ffffff" fill-opacity="1"><g transform="translate(100.969789, 56.243849)"><g><path d="M 2.109375 -2.0625 L 2.109375 0 L 1.796875 0 L 0.65625 -1.40625 L 0.65625 0 L 0.28125 0 L 0.28125 -2.0625 L 0.59375 -2.0625 L 1.734375 -0.671875 L 1.734375 -2.0625 Z M 2.109375 -2.0625 "/></g></g></g><g clip-path="url(#319de891c8)"><path fill="#ffffff" d="M 19.527344 56.160156 C 19.394531 56.28125 19.25 56.382812 19.09375 56.46875 C 19.054688 56.492188 19.007812 56.515625 18.964844 56.539062 C 18.617188 56.394531 18.394531 56.140625 18.300781 55.777344 C 18.34375 55.804688 18.390625 55.832031 18.441406 55.859375 C 18.78125 56.042969 19.144531 56.140625 19.527344 56.160156 Z M 18.878906 55.929688 C 18.699219 55.589844 18.605469 55.230469 18.59375 54.847656 C 18.59375 54.792969 18.59375 54.738281 18.59375 54.683594 C 18.371094 54.90625 18.261719 55.171875 18.261719 55.484375 C 18.261719 55.535156 18.265625 55.582031 18.269531 55.632812 C 18.3125 55.660156 18.351562 55.683594 18.394531 55.710938 C 18.546875 55.800781 18.707031 55.875 18.878906 55.929688 Z M 19.550781 54.464844 C 19.597656 54.433594 19.644531 54.40625 19.691406 54.382812 C 19.332031 54.285156 19.003906 54.351562 18.707031 54.578125 C 18.707031 54.628906 18.703125 54.675781 18.699219 54.726562 C 18.699219 54.90625 18.714844 55.082031 18.75 55.257812 C 18.957031 54.933594 19.222656 54.667969 19.550781 54.464844 Z M 20.359375 55.105469 C 20.410156 55.128906 20.457031 55.15625 20.5 55.183594 C 20.40625 54.820312 20.183594 54.570312 19.835938 54.425781 C 19.792969 54.445312 19.746094 54.46875 19.707031 54.492188 C 19.550781 54.578125 19.40625 54.683594 19.273438 54.800781 C 19.65625 54.820312 20.019531 54.921875 20.359375 55.105469 Z M 20.207031 56.289062 C 20.429688 56.066406 20.539062 55.796875 20.539062 55.484375 C 20.539062 55.433594 20.539062 55.386719 20.53125 55.335938 C 20.492188 55.308594 20.449219 55.285156 20.40625 55.257812 C 20.253906 55.167969 20.09375 55.09375 19.921875 55.042969 C 20.101562 55.382812 20.195312 55.742188 20.207031 56.125 C 20.214844 56.179688 20.214844 56.234375 20.207031 56.289062 Z M 19.253906 56.503906 C 19.207031 56.535156 19.15625 56.5625 19.109375 56.585938 C 19.46875 56.683594 19.796875 56.617188 20.09375 56.390625 C 20.09375 56.339844 20.101562 56.292969 20.101562 56.242188 C 20.105469 56.066406 20.085938 55.886719 20.050781 55.714844 C 19.84375 56.039062 19.578125 56.300781 19.253906 56.503906 Z M 19.253906 56.503906 " fill-opacity="1" fill-rule="nonzero"/></g></svg>