<svg xmlns="http://www.w3.org/2000/svg" xmlns:xlink="http://www.w3.org/1999/xlink" width="170" zoomAndPan="magnify" viewBox="0 0 127.5 71.249999" height="95" preserveAspectRatio="xMidYMid meet" version="1.0"><defs><g/><clipPath id="7a6f8937a1"><path d="M 105.105469 37.140625 L 107.742188 37.140625 L 107.742188 39.773438 L 105.105469 39.773438 Z M 105.105469 37.140625 " clip-rule="nonzero"/></clipPath><clipPath id="dac40ba708"><path d="M 106.425781 37.140625 C 105.695312 37.140625 105.105469 37.730469 105.105469 38.457031 C 105.105469 39.183594 105.695312 39.773438 106.425781 39.773438 C 107.152344 39.773438 107.742188 39.183594 107.742188 38.457031 C 107.742188 37.730469 107.152344 37.140625 106.425781 37.140625 Z M 106.425781 37.140625 " clip-rule="nonzero"/></clipPath><clipPath id="aab069a765"><path d="M 11.167969 64.839844 L 13.394531 64.839844 L 13.394531 67.808594 L 11.167969 67.808594 Z M 11.167969 64.839844 " clip-rule="nonzero"/></clipPath><clipPath id="e6f2dd111c"><path d="M 46.492188 51.019531 L 82.859375 51.019531 L 82.859375 64.378906 L 46.492188 64.378906 Z M 46.492188 51.019531 " clip-rule="nonzero"/></clipPath><clipPath id="e233da1a3e"><path d="M 60 53 L 82 53 L 82 64.378906 L 60 64.378906 Z M 60 53 " clip-rule="nonzero"/></clipPath><clipPath id="577a9a1abe"><path d="M 62 55 L 79 55 L 79 64.378906 L 62 64.378906 Z M 62 55 " clip-rule="nonzero"/></clipPath><clipPath id="2ce5af8236"><path d="M 67 60 L 75 60 L 75 64.378906 L 67 64.378906 Z M 67 60 " clip-rule="nonzero"/></clipPath><clipPath id="dffb641ed2"><path d="M 46.492188 55 L 65 55 L 65 58 L 46.492188 58 Z M 46.492188 55 " clip-rule="nonzero"/></clipPath><clipPath id="10539b8e91"><path d="M 76 55 L 82.859375 55 L 82.859375 56 L 76 56 Z M 76 55 " clip-rule="nonzero"/></clipPath><clipPath id="323dfb9381"><path d="M 22.910156 38.050781 L 105 38.050781 L 105 49.925781 L 22.910156 49.925781 Z M 22.910156 38.050781 " clip-rule="nonzero"/></clipPath><clipPath id="047e3eed75"><path d="M 22.910156 44.125 C 22.910156 47.476562 25.628906 50.195312 28.984375 50.195312 L 100.351562 50.195312 C 103.703125 50.195312 106.425781 47.476562 106.425781 44.125 C 106.425781 40.769531 103.703125 38.050781 100.351562 38.050781 L 28.984375 38.050781 C 25.628906 38.050781 22.910156 40.769531 22.910156 44.125 Z M 22.910156 44.125 " clip-rule="nonzero"/></clipPath><clipPath id="fe10cceb21"><path d="M 105 38.050781 L 106.777344 38.050781 L 106.777344 39 L 105 39 Z M 105 38.050781 " clip-rule="nonzero"/></clipPath><clipPath id="610bab0d7d"><path d="M 22.910156 44.125 C 22.910156 47.476562 25.628906 50.195312 28.984375 50.195312 L 100.351562 50.195312 C 103.703125 50.195312 106.425781 47.476562 106.425781 44.125 C 106.425781 40.769531 103.703125 38.050781 100.351562 38.050781 L 28.984375 38.050781 C 25.628906 38.050781 22.910156 40.769531 22.910156 44.125 Z M 22.910156 44.125 " clip-rule="nonzero"/></clipPath><clipPath id="5a073513f6"><path d="M 20.140625 64.671875 L 23.214844 64.671875 L 23.214844 67.742188 L 20.140625 67.742188 Z M 20.140625 64.671875 " clip-rule="nonzero"/></clipPath></defs><g clip-path="url(#7a6f8937a1)"><g clip-path="url(#dac40ba708)"><path fill="#000000" d="M 105.105469 37.140625 L 107.742188 37.140625 L 107.742188 39.773438 L 105.105469 39.773438 Z M 105.105469 37.140625 " fill-opacity="1" fill-rule="nonzero"/></g></g><g clip-path="url(#aab069a765)"><path fill="#000000" d="M 12.40625 67.160156 C 12.277344 67.3125 12.136719 67.4375 11.984375 67.546875 C 11.941406 67.574219 11.898438 67.605469 11.855469 67.628906 C 11.515625 67.453125 11.300781 67.136719 11.207031 66.6875 C 11.25 66.722656 11.296875 66.757812 11.34375 66.789062 C 11.675781 67.015625 12.03125 67.140625 12.40625 67.160156 Z M 11.769531 66.878906 C 11.597656 66.457031 11.503906 66.007812 11.492188 65.53125 C 11.492188 65.464844 11.492188 65.398438 11.492188 65.332031 C 11.277344 65.605469 11.167969 65.9375 11.167969 66.324219 C 11.167969 66.386719 11.171875 66.445312 11.175781 66.507812 C 11.21875 66.542969 11.257812 66.574219 11.296875 66.605469 C 11.449219 66.71875 11.605469 66.808594 11.769531 66.878906 Z M 12.425781 65.058594 C 12.472656 65.023438 12.519531 64.988281 12.566406 64.957031 C 12.214844 64.839844 11.894531 64.921875 11.605469 65.203125 C 11.605469 65.261719 11.597656 65.324219 11.597656 65.382812 C 11.59375 65.605469 11.613281 65.824219 11.648438 66.042969 C 11.847656 65.640625 12.109375 65.3125 12.425781 65.058594 Z M 13.21875 65.851562 C 13.265625 65.882812 13.3125 65.917969 13.355469 65.953125 C 13.261719 65.503906 13.046875 65.1875 12.707031 65.011719 C 12.664062 65.035156 12.621094 65.066406 12.578125 65.09375 C 12.425781 65.203125 12.285156 65.332031 12.15625 65.480469 C 12.53125 65.5 12.886719 65.625 13.21875 65.851562 Z M 13.070312 67.320312 C 13.285156 67.046875 13.394531 66.714844 13.394531 66.324219 C 13.394531 66.261719 13.390625 66.203125 13.386719 66.140625 C 13.34375 66.109375 13.304688 66.074219 13.265625 66.042969 C 13.113281 65.929688 12.957031 65.839844 12.792969 65.773438 C 12.964844 66.195312 13.058594 66.644531 13.070312 67.121094 C 13.078125 67.1875 13.078125 67.257812 13.070312 67.320312 Z M 12.136719 67.589844 C 12.089844 67.625 12.042969 67.660156 11.996094 67.691406 C 12.347656 67.8125 12.667969 67.730469 12.957031 67.445312 C 12.957031 67.386719 12.964844 67.324219 12.964844 67.265625 C 12.96875 67.042969 12.949219 66.824219 12.914062 66.609375 C 12.714844 67.011719 12.453125 67.335938 12.136719 67.589844 Z M 12.136719 67.589844 " fill-opacity="1" fill-rule="nonzero"/></g><g clip-path="url(#e6f2dd111c)"><path fill="#000000" d="M 82.472656 63.761719 C 82.441406 63.761719 82.445312 63.207031 82.457031 62.183594 C 82.472656 61.164062 82.5 59.675781 82.488281 57.804688 C 82.480469 56.871094 82.46875 55.839844 82.386719 54.738281 C 82.367188 54.460938 82.34375 54.179688 82.304688 53.898438 C 82.296875 53.828125 82.285156 53.757812 82.273438 53.6875 C 82.265625 53.621094 82.25 53.550781 82.234375 53.484375 C 82.207031 53.347656 82.167969 53.214844 82.121094 53.082031 C 82.027344 52.824219 81.886719 52.578125 81.695312 52.375 C 81.507812 52.171875 81.269531 52.007812 81 51.886719 C 80.730469 51.765625 80.433594 51.683594 80.125 51.628906 C 79.8125 51.570312 79.492188 51.539062 79.160156 51.523438 C 78.5 51.488281 77.816406 51.503906 77.109375 51.519531 L 76.039062 51.550781 C 75.691406 51.558594 75.339844 51.589844 75 51.664062 C 74.65625 51.734375 74.324219 51.84375 74.039062 52.019531 C 73.898438 52.105469 73.769531 52.210938 73.667969 52.332031 C 73.613281 52.390625 73.570312 52.457031 73.53125 52.523438 C 73.511719 52.554688 73.496094 52.589844 73.480469 52.625 C 73.472656 52.640625 73.46875 52.660156 73.460938 52.675781 L 73.457031 52.691406 L 73.445312 52.726562 C 73.4375 52.75 73.433594 52.773438 73.429688 52.796875 L 73.300781 52.921875 C 73.269531 52.953125 73.226562 52.988281 73.171875 53.042969 L 64.183594 53.089844 L 56.210938 53.109375 L 56.203125 53.117188 C 56.175781 53.136719 56.148438 53.15625 56.121094 53.171875 C 56.066406 53.210938 56.011719 53.242188 55.957031 53.277344 C 55.84375 53.339844 55.730469 53.398438 55.617188 53.453125 C 55.390625 53.558594 55.15625 53.644531 54.921875 53.71875 C 54.800781 53.753906 54.683594 53.785156 54.558594 53.8125 L 54.523438 53.816406 C 54.503906 53.820312 54.488281 53.824219 54.46875 53.824219 C 54.429688 53.824219 54.386719 53.816406 54.34375 53.804688 C 54.257812 53.78125 54.191406 53.722656 54.148438 53.667969 C 54.070312 53.554688 54.054688 53.460938 54.042969 53.375 C 54.042969 53.351562 54.039062 53.332031 54.039062 53.3125 L 54.039062 53.003906 L 54.042969 52.65625 L 54.042969 52.402344 C 54.042969 52.390625 54.039062 52.378906 54.039062 52.371094 C 54.035156 52.355469 54.027344 52.339844 54.015625 52.324219 C 54.003906 52.308594 53.980469 52.292969 53.949219 52.277344 C 53.921875 52.261719 53.882812 52.246094 53.847656 52.234375 C 53.820312 52.230469 53.828125 52.230469 53.824219 52.230469 L 53.402344 52.230469 L 52.074219 52.222656 L 49.527344 52.210938 L 48.914062 52.207031 C 48.902344 52.207031 48.90625 52.207031 48.894531 52.207031 C 48.882812 52.210938 48.871094 52.214844 48.855469 52.222656 C 48.832031 52.234375 48.808594 52.246094 48.789062 52.261719 C 48.753906 52.292969 48.730469 52.335938 48.71875 52.398438 C 48.714844 52.414062 48.714844 52.429688 48.710938 52.449219 C 48.710938 52.464844 48.710938 52.480469 48.710938 52.507812 L 48.710938 52.65625 L 48.707031 52.949219 L 48.703125 53.746094 L 48.394531 53.730469 C 48.34375 53.726562 48.292969 53.726562 48.246094 53.730469 C 48.222656 53.730469 48.199219 53.730469 48.175781 53.734375 C 48.078125 53.742188 47.984375 53.761719 47.894531 53.789062 C 47.714844 53.839844 47.558594 53.933594 47.425781 54.0625 C 47.164062 54.316406 47.015625 54.6875 46.9375 55.054688 C 46.898438 55.242188 46.878906 55.429688 46.875 55.613281 L 46.867188 56.191406 L 46.855469 57.296875 C 46.839844 58.726562 46.824219 59.96875 46.808594 60.984375 C 46.769531 63.019531 46.730469 64.164062 46.6875 64.164062 C 46.644531 64.164062 46.601562 63.019531 46.566406 60.984375 C 46.550781 59.96875 46.53125 58.726562 46.515625 57.296875 L 46.507812 56.191406 L 46.5 55.609375 C 46.5 55.398438 46.523438 55.191406 46.5625 54.980469 C 46.601562 54.769531 46.664062 54.558594 46.753906 54.351562 C 46.847656 54.148438 46.972656 53.945312 47.144531 53.773438 C 47.316406 53.601562 47.535156 53.46875 47.773438 53.390625 C 47.890625 53.355469 48.011719 53.332031 48.132812 53.316406 C 48.164062 53.316406 48.195312 53.3125 48.226562 53.308594 L 48.246094 53.308594 C 48.257812 53.308594 48.269531 53.308594 48.28125 53.308594 C 48.28125 53.300781 48.28125 53.289062 48.28125 53.28125 L 48.277344 53.242188 L 48.277344 52.65625 L 48.273438 52.507812 C 48.273438 52.484375 48.273438 52.449219 48.277344 52.417969 C 48.277344 52.386719 48.28125 52.351562 48.289062 52.320312 C 48.3125 52.1875 48.378906 52.039062 48.492188 51.9375 C 48.550781 51.882812 48.613281 51.84375 48.679688 51.816406 C 48.714844 51.800781 48.746094 51.789062 48.785156 51.777344 C 48.824219 51.765625 48.878906 51.757812 48.914062 51.761719 L 49.527344 51.757812 L 52.074219 51.746094 L 53.402344 51.738281 L 53.828125 51.738281 C 53.855469 51.738281 53.882812 51.738281 53.910156 51.746094 C 53.9375 51.75 53.953125 51.753906 53.972656 51.757812 C 54.042969 51.777344 54.113281 51.804688 54.183594 51.839844 C 54.253906 51.878906 54.324219 51.929688 54.386719 52 C 54.449219 52.066406 54.5 52.160156 54.523438 52.253906 C 54.535156 52.300781 54.539062 52.347656 54.539062 52.394531 L 54.539062 52.65625 L 54.542969 53 L 54.542969 53.300781 C 54.542969 53.308594 54.542969 53.316406 54.546875 53.324219 C 54.546875 53.339844 54.550781 53.351562 54.550781 53.359375 L 54.554688 53.367188 C 54.535156 53.375 54.511719 53.390625 54.496094 53.398438 C 54.464844 53.425781 54.457031 53.445312 54.457031 53.441406 C 54.460938 53.441406 54.460938 53.429688 54.460938 53.417969 C 54.460938 53.410156 54.460938 53.402344 54.457031 53.390625 L 54.445312 53.316406 L 54.457031 53.316406 C 54.554688 53.292969 54.667969 53.265625 54.773438 53.230469 C 54.988281 53.164062 55.199219 53.085938 55.402344 52.988281 C 55.503906 52.941406 55.601562 52.890625 55.695312 52.832031 C 55.742188 52.804688 55.789062 52.777344 55.835938 52.746094 C 55.855469 52.730469 55.878906 52.714844 55.902344 52.699219 L 55.964844 52.648438 L 56.035156 52.597656 L 64.183594 52.554688 L 72.96875 52.53125 C 72.96875 52.53125 72.972656 52.53125 72.972656 52.53125 C 72.972656 52.53125 72.972656 52.527344 72.972656 52.527344 L 72.980469 52.507812 C 72.992188 52.480469 73 52.453125 73.011719 52.425781 C 73.035156 52.371094 73.0625 52.320312 73.089844 52.273438 C 73.144531 52.171875 73.210938 52.082031 73.285156 52 C 73.429688 51.832031 73.597656 51.699219 73.777344 51.589844 C 74.132812 51.375 74.519531 51.253906 74.898438 51.175781 C 75.28125 51.101562 75.65625 51.070312 76.03125 51.0625 L 77.101562 51.042969 C 77.808594 51.03125 78.503906 51.019531 79.1875 51.0625 C 79.53125 51.085938 79.871094 51.125 80.207031 51.1875 C 80.539062 51.253906 80.871094 51.347656 81.179688 51.492188 C 81.492188 51.632812 81.78125 51.835938 82.007812 52.089844 C 82.238281 52.34375 82.402344 52.640625 82.507812 52.945312 C 82.558594 53.097656 82.601562 53.25 82.632812 53.402344 C 82.644531 53.476562 82.660156 53.554688 82.671875 53.628906 C 82.679688 53.703125 82.691406 53.777344 82.699219 53.851562 C 82.730469 54.144531 82.753906 54.429688 82.769531 54.710938 C 82.828125 55.835938 82.824219 56.871094 82.808594 57.808594 C 82.777344 59.683594 82.695312 61.171875 82.628906 62.191406 C 82.5625 63.210938 82.5 63.765625 82.472656 63.761719 Z M 82.472656 63.761719 " fill-opacity="1" fill-rule="evenodd"/></g><g clip-path="url(#e233da1a3e)"><path fill="#000000" d="M 80.976562 64.195312 C 80.957031 64.195312 80.9375 64.082031 80.914062 63.875 C 80.890625 63.664062 80.859375 63.355469 80.796875 62.964844 C 80.730469 62.570312 80.632812 62.09375 80.472656 61.554688 C 80.308594 61.015625 80.082031 60.417969 79.757812 59.792969 C 79.433594 59.167969 79.011719 58.515625 78.476562 57.886719 C 77.941406 57.253906 77.292969 56.648438 76.527344 56.121094 C 75.765625 55.59375 74.894531 55.148438 73.933594 54.839844 C 72.976562 54.527344 71.9375 54.359375 70.871094 54.359375 C 69.800781 54.359375 68.761719 54.527344 67.804688 54.839844 C 66.847656 55.148438 65.972656 55.59375 65.210938 56.121094 C 64.449219 56.648438 63.796875 57.253906 63.265625 57.886719 C 62.730469 58.515625 62.308594 59.167969 61.984375 59.792969 C 61.660156 60.417969 61.429688 61.015625 61.269531 61.554688 C 61.105469 62.09375 61.007812 62.570312 60.945312 62.964844 C 60.882812 63.355469 60.847656 63.664062 60.824219 63.875 C 60.800781 64.082031 60.785156 64.195312 60.765625 64.195312 C 60.746094 64.195312 60.726562 64.082031 60.71875 63.871094 C 60.707031 63.65625 60.707031 63.34375 60.738281 62.9375 C 60.773438 62.53125 60.839844 62.039062 60.980469 61.476562 C 61.121094 60.914062 61.332031 60.285156 61.644531 59.621094 C 61.960938 58.960938 62.378906 58.269531 62.921875 57.601562 C 63.464844 56.929688 64.136719 56.28125 64.929688 55.71875 C 65.71875 55.152344 66.636719 54.671875 67.640625 54.339844 C 68.648438 54.007812 69.746094 53.820312 70.871094 53.824219 C 71.996094 53.820312 73.09375 54.007812 74.097656 54.339844 C 75.105469 54.671875 76.019531 55.152344 76.8125 55.71875 C 77.605469 56.28125 78.273438 56.929688 78.816406 57.601562 C 79.363281 58.269531 79.78125 58.960938 80.09375 59.621094 C 80.410156 60.285156 80.621094 60.914062 80.761719 61.476562 C 80.898438 62.039062 80.96875 62.53125 81.003906 62.9375 C 81.035156 63.34375 81.035156 63.65625 81.023438 63.871094 C 81.011719 64.082031 80.992188 64.195312 80.976562 64.195312 Z M 80.976562 64.195312 " fill-opacity="1" fill-rule="evenodd"/></g><g clip-path="url(#577a9a1abe)"><path fill="#000000" d="M 78.90625 64.195312 C 78.886719 64.195312 78.871094 64.105469 78.847656 63.941406 C 78.824219 63.773438 78.796875 63.527344 78.742188 63.21875 C 78.632812 62.597656 78.421875 61.699219 77.902344 60.710938 C 77.644531 60.214844 77.308594 59.703125 76.882812 59.203125 C 76.460938 58.707031 75.945312 58.230469 75.34375 57.816406 C 74.738281 57.398438 74.046875 57.046875 73.292969 56.804688 C 72.535156 56.558594 71.714844 56.425781 70.871094 56.425781 C 70.027344 56.425781 69.207031 56.558594 68.449219 56.804688 C 67.691406 57.046875 67 57.398438 66.398438 57.816406 C 65.796875 58.230469 65.28125 58.707031 64.855469 59.203125 C 64.429688 59.703125 64.097656 60.214844 63.835938 60.710938 C 63.320312 61.699219 63.105469 62.597656 62.996094 63.21875 C 62.941406 63.527344 62.914062 63.773438 62.890625 63.941406 C 62.871094 64.105469 62.851562 64.195312 62.832031 64.195312 C 62.816406 64.195312 62.796875 64.105469 62.785156 63.9375 C 62.773438 63.765625 62.765625 63.515625 62.789062 63.191406 C 62.816406 62.871094 62.867188 62.472656 62.976562 62.023438 C 63.082031 61.574219 63.25 61.070312 63.5 60.542969 C 63.746094 60.011719 64.082031 59.457031 64.515625 58.921875 C 64.949219 58.382812 65.480469 57.863281 66.113281 57.410156 C 66.746094 56.957031 67.480469 56.574219 68.285156 56.304688 C 69.089844 56.039062 69.96875 55.890625 70.871094 55.890625 C 71.769531 55.890625 72.648438 56.039062 73.453125 56.304688 C 74.261719 56.574219 74.992188 56.957031 75.625 57.410156 C 76.257812 57.863281 76.792969 58.382812 77.226562 58.921875 C 77.660156 59.457031 77.992188 60.011719 78.242188 60.542969 C 78.492188 61.070312 78.65625 61.574219 78.765625 62.023438 C 78.875 62.472656 78.925781 62.871094 78.949219 63.191406 C 78.972656 63.515625 78.96875 63.765625 78.957031 63.9375 C 78.945312 64.105469 78.925781 64.195312 78.90625 64.195312 Z M 78.90625 64.195312 " fill-opacity="1" fill-rule="evenodd"/></g><g clip-path="url(#2ce5af8236)"><path fill="#000000" d="M 74.222656 64.195312 C 74.183594 64.195312 74.15625 64.046875 74.09375 63.792969 C 74.03125 63.542969 73.929688 63.183594 73.707031 62.789062 C 73.488281 62.398438 73.140625 61.976562 72.652344 61.648438 C 72.167969 61.324219 71.542969 61.105469 70.871094 61.109375 C 70.199219 61.105469 69.570312 61.324219 69.085938 61.648438 C 68.597656 61.976562 68.253906 62.398438 68.035156 62.789062 C 67.8125 63.183594 67.707031 63.542969 67.644531 63.792969 C 67.582031 64.046875 67.554688 64.195312 67.515625 64.195312 C 67.480469 64.195312 67.4375 64.046875 67.4375 63.769531 C 67.441406 63.492188 67.492188 63.085938 67.695312 62.621094 C 67.894531 62.160156 68.253906 61.648438 68.804688 61.246094 C 69.074219 61.046875 69.394531 60.875 69.746094 60.757812 C 70.09375 60.640625 70.476562 60.574219 70.871094 60.574219 C 71.261719 60.574219 71.644531 60.640625 71.996094 60.757812 C 72.347656 60.875 72.664062 61.046875 72.9375 61.246094 C 73.484375 61.648438 73.84375 62.160156 74.046875 62.621094 C 74.246094 63.085938 74.300781 63.492188 74.300781 63.769531 C 74.300781 64.046875 74.257812 64.195312 74.222656 64.195312 Z M 74.222656 64.195312 " fill-opacity="1" fill-rule="evenodd"/></g><path fill="#000000" d="M 56.335938 54.800781 C 56.316406 54.800781 56.3125 54.691406 56.171875 54.589844 C 56.035156 54.488281 55.792969 54.394531 55.476562 54.34375 C 55.160156 54.289062 54.773438 54.269531 54.355469 54.320312 C 54.144531 54.34375 53.925781 54.386719 53.71875 54.460938 C 53.613281 54.5 53.511719 54.546875 53.429688 54.609375 C 53.34375 54.667969 53.285156 54.746094 53.289062 54.800781 C 53.285156 54.855469 53.34375 54.933594 53.429688 54.992188 C 53.511719 55.050781 53.613281 55.097656 53.71875 55.136719 C 53.925781 55.210938 54.144531 55.253906 54.355469 55.28125 C 54.773438 55.328125 55.160156 55.308594 55.476562 55.257812 C 55.792969 55.203125 56.035156 55.109375 56.171875 55.007812 C 56.3125 54.90625 56.316406 54.796875 56.335938 54.800781 C 56.34375 54.800781 56.359375 54.824219 56.351562 54.878906 C 56.347656 54.933594 56.3125 55.011719 56.242188 55.085938 C 56.105469 55.234375 55.84375 55.359375 55.515625 55.441406 C 55.183594 55.523438 54.777344 55.5625 54.328125 55.527344 C 54.105469 55.503906 53.871094 55.464844 53.628906 55.382812 C 53.511719 55.339844 53.390625 55.289062 53.273438 55.207031 C 53.214844 55.167969 53.160156 55.117188 53.109375 55.050781 C 53.0625 54.988281 53.019531 54.898438 53.019531 54.800781 C 53.019531 54.703125 53.0625 54.613281 53.109375 54.546875 C 53.160156 54.480469 53.214844 54.433594 53.273438 54.390625 C 53.390625 54.308594 53.511719 54.257812 53.628906 54.214844 C 53.871094 54.132812 54.105469 54.09375 54.328125 54.074219 C 54.777344 54.035156 55.183594 54.074219 55.515625 54.15625 C 55.84375 54.238281 56.105469 54.367188 56.242188 54.515625 C 56.3125 54.585938 56.347656 54.664062 56.351562 54.71875 C 56.359375 54.773438 56.34375 54.800781 56.335938 54.800781 Z M 56.335938 54.800781 " fill-opacity="1" fill-rule="evenodd"/><path fill="#000000" d="M 56.335938 54.800781 C 56.367188 54.777344 56.617188 55.097656 57 55.628906 L 57.019531 55.65625 L 57.027344 55.667969 L 57.042969 55.6875 L 57.070312 55.734375 C 57.074219 55.75 57.074219 55.769531 57.074219 55.789062 C 57.066406 55.871094 57.042969 55.917969 57.015625 55.96875 C 56.957031 56.066406 56.871094 56.136719 56.785156 56.195312 C 56.609375 56.3125 56.40625 56.386719 56.191406 56.449219 C 55.761719 56.574219 55.273438 56.628906 54.765625 56.632812 C 54.257812 56.632812 53.769531 56.578125 53.339844 56.460938 C 53.125 56.402344 52.921875 56.328125 52.742188 56.21875 C 52.65625 56.160156 52.570312 56.097656 52.503906 56.007812 C 52.472656 55.964844 52.445312 55.914062 52.429688 55.855469 C 52.421875 55.824219 52.417969 55.785156 52.417969 55.75 C 52.417969 55.742188 52.421875 55.734375 52.425781 55.726562 L 52.441406 55.703125 C 52.449219 55.6875 52.457031 55.671875 52.460938 55.664062 C 52.816406 55.113281 53.046875 54.78125 53.078125 54.800781 C 53.113281 54.820312 52.9375 55.183594 52.625 55.761719 L 52.621094 55.773438 L 52.617188 55.777344 C 52.617188 55.78125 52.613281 55.78125 52.617188 55.785156 C 52.617188 55.792969 52.617188 55.792969 52.621094 55.804688 C 52.628906 55.828125 52.644531 55.855469 52.667969 55.882812 C 52.710938 55.933594 52.78125 55.984375 52.855469 56.027344 C 53.011719 56.109375 53.199219 56.171875 53.402344 56.222656 C 53.808594 56.320312 54.277344 56.367188 54.765625 56.363281 C 55.253906 56.363281 55.722656 56.316406 56.125 56.214844 C 56.328125 56.160156 56.515625 56.097656 56.667969 56.007812 C 56.738281 55.964844 56.804688 55.910156 56.839844 55.859375 C 56.859375 55.832031 56.871094 55.796875 56.871094 55.792969 C 56.875 55.789062 56.875 55.78125 56.871094 55.777344 L 56.867188 55.773438 L 56.859375 55.761719 L 56.84375 55.734375 C 56.5 55.175781 56.304688 54.820312 56.335938 54.800781 Z M 56.335938 54.800781 " fill-opacity="1" fill-rule="evenodd"/><path fill="#000000" d="M 51.097656 55.753906 C 51.078125 55.753906 51.070312 55.691406 50.996094 55.628906 C 50.921875 55.5625 50.78125 55.5 50.59375 55.464844 C 50.40625 55.429688 50.171875 55.417969 49.925781 55.453125 C 49.800781 55.472656 49.671875 55.503906 49.558594 55.558594 C 49.5 55.585938 49.445312 55.617188 49.40625 55.652344 C 49.386719 55.671875 49.371094 55.691406 49.359375 55.707031 C 49.351562 55.726562 49.347656 55.738281 49.347656 55.753906 C 49.347656 55.765625 49.351562 55.78125 49.363281 55.796875 C 49.371094 55.816406 49.386719 55.832031 49.40625 55.851562 C 49.445312 55.890625 49.5 55.921875 49.558594 55.949219 C 49.671875 56 49.800781 56.03125 49.925781 56.050781 C 50.171875 56.089844 50.40625 56.078125 50.59375 56.042969 C 50.78125 56.007812 50.921875 55.941406 50.996094 55.878906 C 51.070312 55.816406 51.078125 55.753906 51.097656 55.753906 C 51.109375 55.753906 51.117188 55.769531 51.121094 55.804688 C 51.121094 55.839844 51.109375 55.890625 51.074219 55.945312 C 51.003906 56.058594 50.84375 56.160156 50.640625 56.226562 C 50.433594 56.289062 50.179688 56.324219 49.894531 56.296875 C 49.753906 56.28125 49.601562 56.253906 49.449219 56.1875 C 49.375 56.15625 49.300781 56.113281 49.226562 56.046875 C 49.191406 56.015625 49.15625 55.976562 49.128906 55.929688 C 49.101562 55.878906 49.082031 55.816406 49.082031 55.753906 C 49.082031 55.6875 49.101562 55.625 49.128906 55.578125 C 49.15625 55.527344 49.191406 55.488281 49.226562 55.457031 C 49.300781 55.394531 49.375 55.351562 49.449219 55.320312 C 49.601562 55.253906 49.753906 55.222656 49.894531 55.210938 C 50.179688 55.183594 50.433594 55.214844 50.640625 55.28125 C 50.84375 55.34375 51.003906 55.449219 51.074219 55.558594 C 51.109375 55.613281 51.121094 55.667969 51.121094 55.703125 C 51.117188 55.738281 51.109375 55.753906 51.097656 55.753906 Z M 51.097656 55.753906 " fill-opacity="1" fill-rule="evenodd"/><path fill="#000000" d="M 59.710938 57.597656 C 59.691406 57.597656 59.679688 57.535156 59.640625 57.441406 C 59.597656 57.347656 59.523438 57.214844 59.378906 57.121094 C 59.308594 57.074219 59.21875 57.039062 59.125 57.023438 C 59.027344 57.011719 58.921875 57.023438 58.820312 57.0625 C 58.722656 57.101562 58.628906 57.171875 58.5625 57.265625 C 58.496094 57.359375 58.453125 57.476562 58.457031 57.597656 C 58.453125 57.722656 58.496094 57.839844 58.5625 57.929688 C 58.628906 58.027344 58.722656 58.097656 58.820312 58.136719 C 58.921875 58.175781 59.027344 58.183594 59.125 58.171875 C 59.21875 58.160156 59.308594 58.121094 59.378906 58.074219 C 59.523438 57.980469 59.597656 57.847656 59.640625 57.753906 C 59.679688 57.660156 59.691406 57.597656 59.710938 57.597656 C 59.726562 57.597656 59.75 57.660156 59.738281 57.78125 C 59.726562 57.898438 59.667969 58.078125 59.492188 58.226562 C 59.410156 58.296875 59.296875 58.359375 59.164062 58.390625 C 59.03125 58.417969 58.882812 58.417969 58.738281 58.367188 C 58.589844 58.316406 58.453125 58.222656 58.351562 58.085938 C 58.25 57.953125 58.1875 57.777344 58.1875 57.597656 C 58.1875 57.417969 58.25 57.246094 58.351562 57.109375 C 58.453125 56.976562 58.589844 56.878906 58.738281 56.828125 C 58.882812 56.78125 59.03125 56.777344 59.164062 56.808594 C 59.296875 56.835938 59.410156 56.898438 59.492188 56.972656 C 59.667969 57.117188 59.726562 57.300781 59.738281 57.417969 C 59.75 57.535156 59.726562 57.597656 59.710938 57.597656 Z M 59.710938 57.597656 " fill-opacity="1" fill-rule="evenodd"/><g clip-path="url(#dffb641ed2)"><path fill="#000000" d="M 64.707031 55.753906 C 64.707031 55.828125 63.632812 55.890625 61.898438 55.933594 C 61.03125 55.957031 60 55.972656 58.855469 55.992188 C 58.570312 55.996094 58.269531 56 57.980469 56.007812 C 57.9375 56.011719 57.917969 56.019531 57.894531 56.035156 C 57.867188 56.046875 57.839844 56.078125 57.8125 56.121094 C 57.75 56.210938 57.699219 56.34375 57.640625 56.488281 C 57.585938 56.632812 57.527344 56.789062 57.441406 56.949219 C 57.355469 57.109375 57.230469 57.277344 57.058594 57.402344 C 57.011719 57.433594 56.972656 57.460938 56.917969 57.488281 C 56.863281 57.515625 56.8125 57.535156 56.765625 57.550781 C 56.667969 57.578125 56.582031 57.597656 56.496094 57.613281 C 56.320312 57.644531 56.152344 57.660156 55.980469 57.675781 C 55.304688 57.730469 54.65625 57.734375 54.027344 57.726562 C 53.398438 57.71875 52.792969 57.695312 52.21875 57.667969 C 51.644531 57.636719 51.097656 57.597656 50.589844 57.554688 C 50.335938 57.53125 50.089844 57.507812 49.851562 57.484375 L 49.503906 57.445312 C 49.390625 57.433594 49.273438 57.417969 49.164062 57.398438 C 48.722656 57.324219 48.328125 57.203125 48.003906 57.042969 C 47.679688 56.886719 47.425781 56.683594 47.265625 56.480469 C 47.101562 56.28125 47.023438 56.089844 46.996094 55.960938 C 46.964844 55.828125 46.980469 55.753906 47 55.753906 C 47.015625 55.75 47.039062 55.8125 47.097656 55.921875 C 47.152344 56.03125 47.25 56.183594 47.417969 56.339844 C 47.582031 56.496094 47.820312 56.652344 48.125 56.769531 C 48.429688 56.890625 48.800781 56.976562 49.21875 57.023438 C 49.320312 57.035156 49.429688 57.042969 49.539062 57.050781 L 49.886719 57.074219 L 50.617188 57.113281 C 51.125 57.136719 51.667969 57.160156 52.238281 57.175781 C 52.8125 57.191406 53.410156 57.203125 54.03125 57.203125 C 54.648438 57.203125 55.292969 57.195312 55.933594 57.144531 C 56.09375 57.128906 56.253906 57.113281 56.402344 57.085938 C 56.476562 57.074219 56.546875 57.058594 56.605469 57.039062 C 56.636719 57.03125 56.664062 57.019531 56.679688 57.011719 C 56.699219 57.003906 56.726562 56.988281 56.746094 56.972656 C 56.835938 56.910156 56.910156 56.8125 56.976562 56.695312 C 57.042969 56.578125 57.097656 56.441406 57.152344 56.296875 C 57.214844 56.148438 57.269531 55.992188 57.382812 55.828125 C 57.441406 55.746094 57.515625 55.660156 57.625 55.59375 C 57.726562 55.53125 57.855469 55.5 57.964844 55.496094 C 58.273438 55.492188 58.5625 55.496094 58.851562 55.496094 C 60 55.507812 61.03125 55.53125 61.898438 55.554688 C 63.636719 55.609375 64.707031 55.679688 64.707031 55.753906 Z M 64.707031 55.753906 " fill-opacity="1" fill-rule="evenodd"/></g><g clip-path="url(#10539b8e91)"><path fill="#000000" d="M 82.183594 55.742188 C 82.183594 55.816406 81.003906 55.878906 79.550781 55.882812 C 78.097656 55.882812 76.921875 55.828125 76.921875 55.753906 C 76.921875 55.679688 78.097656 55.617188 79.550781 55.613281 C 81.003906 55.609375 82.183594 55.667969 82.183594 55.742188 Z M 82.183594 55.742188 " fill-opacity="1" fill-rule="evenodd"/></g><path fill="#000000" d="M 54.164062 53.855469 C 54.164062 53.929688 52.988281 53.992188 51.535156 53.996094 C 50.082031 53.996094 48.902344 53.941406 48.902344 53.867188 C 48.902344 53.792969 50.082031 53.730469 51.535156 53.726562 C 52.988281 53.722656 54.164062 53.78125 54.164062 53.855469 Z M 54.164062 53.855469 " fill-opacity="1" fill-rule="evenodd"/><path fill="#000000" d="M 57.96875 63.761719 C 57.894531 63.761719 57.835938 62.066406 57.835938 59.976562 C 57.835938 57.882812 57.894531 56.1875 57.96875 56.1875 C 58.042969 56.1875 58.101562 57.882812 58.101562 59.976562 C 58.101562 62.066406 58.042969 63.761719 57.96875 63.761719 Z M 57.96875 63.761719 " fill-opacity="1" fill-rule="evenodd"/><g fill="#000000" fill-opacity="1"><g transform="translate(48.819319, 39.152569)"><g><path d="M 5.90625 -28.890625 C 6.050781 -28.921875 6.191406 -28.890625 6.328125 -28.796875 C 6.460938 -28.710938 6.546875 -28.613281 6.578125 -28.5 C 6.640625 -28.257812 6.675781 -28.015625 6.6875 -27.765625 C 6.707031 -27.515625 6.707031 -27.28125 6.6875 -27.0625 C 6.6875 -26.96875 6.695312 -26.878906 6.71875 -26.796875 C 6.5625 -24.003906 6.25 -21.253906 5.78125 -18.546875 C 5.738281 -18.242188 5.742188 -17.941406 5.796875 -17.640625 C 5.878906 -17.285156 5.863281 -16.9375 5.75 -16.59375 C 5.46875 -15.976562 5.265625 -15.347656 5.140625 -14.703125 C 4.316406 -10.109375 3.375 -5.554688 2.3125 -1.046875 C 1.445312 2.804688 0.363281 6.617188 -0.9375 10.390625 C -1.289062 11.367188 -1.691406 12.347656 -2.140625 13.328125 C -2.347656 13.765625 -2.601562 14.171875 -2.90625 14.546875 C -3.164062 14.859375 -3.515625 14.992188 -3.953125 14.953125 C -4.398438 14.910156 -4.648438 14.671875 -4.703125 14.234375 C -4.734375 13.703125 -4.703125 13.171875 -4.609375 12.640625 C -4.023438 9.515625 -3.3125 6.410156 -2.46875 3.328125 C -0.96875 -2.503906 0.953125 -8.175781 3.296875 -13.6875 C 3.734375 -14.738281 4.019531 -15.804688 4.15625 -16.890625 C 4.457031 -18.671875 4.710938 -20.445312 4.921875 -22.21875 C 5.140625 -23.988281 5.289062 -25.769531 5.375 -27.5625 C 5.375 -27.851562 5.394531 -28.144531 5.4375 -28.4375 C 5.488281 -28.695312 5.644531 -28.847656 5.90625 -28.890625 Z M -2.734375 11.53125 C -1.648438 8.476562 -0.71875 5.394531 0.0625 2.28125 C 0.851562 -0.820312 1.523438 -3.960938 2.078125 -7.140625 C 2.066406 -7.128906 2.054688 -7.101562 2.046875 -7.0625 C 1.992188 -7.03125 1.957031 -6.984375 1.9375 -6.921875 C 1.84375 -6.691406 1.757812 -6.460938 1.6875 -6.234375 C 0.726562 -3.441406 -0.125 -0.617188 -0.875 2.234375 C -1.625 5.097656 -2.316406 7.96875 -2.953125 10.84375 C -2.960938 10.863281 -2.960938 10.882812 -2.953125 10.90625 C -2.992188 11 -3.003906 11.097656 -2.984375 11.203125 C -2.972656 11.316406 -2.890625 11.425781 -2.734375 11.53125 Z M 55.09375 -37.53125 C 55.101562 -37.457031 55.082031 -37.378906 55.03125 -37.296875 C 54.976562 -37.222656 54.910156 -37.160156 54.828125 -37.109375 C 54.753906 -37.066406 54.675781 -37.054688 54.59375 -37.078125 C 54.132812 -37.273438 53.65625 -37.375 53.15625 -37.375 C 52.65625 -37.382812 52.171875 -37.378906 51.703125 -37.359375 C 51.328125 -37.316406 50.960938 -37.300781 50.609375 -37.3125 C 49.285156 -37.300781 47.972656 -37.257812 46.671875 -37.1875 C 42.390625 -36.84375 38.117188 -36.34375 33.859375 -35.6875 C 29.753906 -35.070312 25.671875 -34.316406 21.609375 -33.421875 C 17.023438 -32.441406 12.46875 -31.34375 7.9375 -30.125 C 3.757812 -29.0625 -0.394531 -27.921875 -4.53125 -26.703125 C -4.789062 -26.617188 -5.0625 -26.535156 -5.34375 -26.453125 C -6.90625 -25.972656 -8.46875 -25.476562 -10.03125 -24.96875 C -11.601562 -24.46875 -13.160156 -23.90625 -14.703125 -23.28125 C -14.828125 -23.21875 -14.957031 -23.160156 -15.09375 -23.109375 C -15.6875 -22.867188 -16.28125 -22.609375 -16.875 -22.328125 C -17.46875 -22.046875 -18.03125 -21.707031 -18.5625 -21.3125 C -18.644531 -21.25 -18.726562 -21.195312 -18.8125 -21.15625 C -18.9375 -21.125 -19.0625 -21.113281 -19.1875 -21.125 C -19.3125 -21.132812 -19.414062 -21.191406 -19.5 -21.296875 C -19.59375 -21.398438 -19.625 -21.507812 -19.59375 -21.625 C -19.5625 -21.738281 -19.488281 -21.835938 -19.375 -21.921875 C -19.03125 -22.171875 -18.660156 -22.40625 -18.265625 -22.625 C -17.304688 -23.132812 -16.320312 -23.59375 -15.3125 -24 C -14.3125 -24.414062 -13.296875 -24.800781 -12.265625 -25.15625 C -9.304688 -26.164062 -6.332031 -27.109375 -3.34375 -27.984375 C -0.363281 -28.867188 2.632812 -29.710938 5.65625 -30.515625 C 9.90625 -31.648438 14.171875 -32.695312 18.453125 -33.65625 C 22.203125 -34.519531 25.957031 -35.28125 29.71875 -35.9375 C 32.476562 -36.414062 35.242188 -36.835938 38.015625 -37.203125 C 40.796875 -37.566406 43.59375 -37.851562 46.40625 -38.0625 C 48.96875 -38.195312 51.535156 -38.21875 54.109375 -38.125 C 54.347656 -38.101562 54.578125 -38.050781 54.796875 -37.96875 C 54.972656 -37.875 55.070312 -37.726562 55.09375 -37.53125 Z M 55.09375 -37.53125 "/></g></g><g transform="translate(57.051926, 37.815399)"><g><path d="M 7.203125 -7.03125 C 7.398438 -6.957031 7.457031 -6.71875 7.375 -6.3125 C 7.207031 -6 7.019531 -5.695312 6.8125 -5.40625 C 6.601562 -5.125 6.363281 -4.859375 6.09375 -4.609375 C 6.070312 -4.609375 6.066406 -4.597656 6.078125 -4.578125 C 5.910156 -4.410156 5.722656 -4.265625 5.515625 -4.140625 C 3.828125 -3.203125 2.847656 -3.425781 2.578125 -4.8125 C 1.960938 -4.070312 1.539062 -3.609375 1.3125 -3.421875 C 0.78125 -2.984375 0.164062 -2.726562 -0.53125 -2.65625 C -1.03125 -2.59375 -1.394531 -2.6875 -1.625 -2.9375 C -1.863281 -3.1875 -1.910156 -3.570312 -1.765625 -4.09375 C -1.566406 -4.894531 -1.207031 -5.644531 -0.6875 -6.34375 C -0.09375 -7.113281 0.609375 -7.765625 1.421875 -8.296875 C 1.847656 -8.609375 2.316406 -8.78125 2.828125 -8.8125 C 3.347656 -8.863281 3.703125 -8.628906 3.890625 -8.109375 C 3.960938 -7.941406 3.945312 -7.78125 3.84375 -7.625 C 3.695312 -7.457031 3.507812 -7.398438 3.28125 -7.453125 C 3.257812 -7.441406 3.234375 -7.4375 3.203125 -7.4375 C 3.179688 -7.4375 3.160156 -7.445312 3.140625 -7.46875 C 2.890625 -7.738281 2.65625 -7.828125 2.4375 -7.734375 C 2.21875 -7.648438 2.003906 -7.515625 1.796875 -7.328125 C 0.742188 -6.460938 0.0351562 -5.382812 -0.328125 -4.09375 C -0.347656 -4.039062 -0.351562 -3.984375 -0.34375 -3.921875 C -0.34375 -3.859375 -0.320312 -3.804688 -0.28125 -3.765625 C -0.132812 -3.742188 0.0078125 -3.78125 0.15625 -3.875 C 0.3125 -3.96875 0.460938 -4.085938 0.609375 -4.234375 C 0.753906 -4.378906 0.878906 -4.5 0.984375 -4.59375 C 1.003906 -4.625 1.015625 -4.640625 1.015625 -4.640625 C 1.472656 -5.191406 1.925781 -5.742188 2.375 -6.296875 C 2.5625 -6.585938 2.828125 -6.773438 3.171875 -6.859375 C 3.671875 -6.941406 3.914062 -6.753906 3.90625 -6.296875 C 3.875 -6.128906 3.847656 -5.957031 3.828125 -5.78125 C 3.742188 -5.039062 3.800781 -4.625 4 -4.53125 C 4.207031 -4.4375 4.484375 -4.476562 4.828125 -4.65625 C 5.179688 -4.84375 5.515625 -5.140625 5.828125 -5.546875 C 6.148438 -5.960938 6.410156 -6.332031 6.609375 -6.65625 C 6.816406 -6.988281 7.015625 -7.113281 7.203125 -7.03125 Z M 7.203125 -7.03125 "/></g></g><g transform="translate(64.498336, 36.605925)"><g/></g><g transform="translate(72.989265, 35.226796)"><g><path d="M -0.046875 -2.03125 C -0.753906 -1.914062 -1.164062 -2.226562 -1.28125 -2.96875 C -1.425781 -3.875 -1.101562 -5.566406 -0.3125 -8.046875 C -0.28125 -8.148438 -0.207031 -8.210938 -0.09375 -8.234375 C 0.375 -8.304688 0.640625 -8.160156 0.703125 -7.796875 C 0.722656 -7.660156 0.707031 -7.488281 0.65625 -7.28125 C 0.644531 -7.21875 0.414062 -6.171875 -0.03125 -4.140625 C -0.09375 -3.796875 -0.109375 -3.546875 -0.078125 -3.390625 C -0.0546875 -3.222656 0.0234375 -3.148438 0.171875 -3.171875 C 0.722656 -3.265625 1.941406 -4.863281 3.828125 -7.96875 C 4.054688 -8.375 4.316406 -8.601562 4.609375 -8.65625 C 5.046875 -8.726562 5.289062 -8.609375 5.34375 -8.296875 C 5.363281 -8.171875 5.300781 -7.691406 5.15625 -6.859375 C 4.96875 -5.734375 4.882812 -5.09375 4.90625 -4.9375 C 4.945312 -4.6875 5.050781 -4.570312 5.21875 -4.59375 C 5.632812 -4.664062 6.71875 -5.59375 8.46875 -7.375 C 8.570312 -7.5 8.664062 -7.566406 8.75 -7.578125 C 8.9375 -7.609375 9.054688 -7.460938 9.109375 -7.140625 C 9.117188 -7.054688 9.101562 -6.988281 9.0625 -6.9375 C 8.144531 -5.863281 7.351562 -5.023438 6.6875 -4.421875 C 6.09375 -3.890625 5.53125 -3.578125 5 -3.484375 L 4.84375 -3.46875 C 4.039062 -3.507812 3.554688 -4.046875 3.390625 -5.078125 C 2.691406 -4.210938 2.101562 -3.515625 1.625 -2.984375 C 1.15625 -2.453125 0.597656 -2.132812 -0.046875 -2.03125 Z M -0.046875 -2.03125 "/></g></g></g><g fill="#000000" fill-opacity="1"><g transform="translate(62.627095, 36.844248)"><g><path d="M 5.796875 -0.140625 C 4.984375 -0.0976562 4.414062 -0.285156 4.09375 -0.703125 C 3.769531 -1.117188 3.59375 -1.6875 3.5625 -2.40625 C 3.519531 -3.195312 3.71875 -4.15625 4.15625 -5.28125 C 4.320312 -5.71875 4.5 -6.113281 4.6875 -6.46875 C 4.882812 -6.832031 5.085938 -7.171875 5.296875 -7.484375 C 5.222656 -7.460938 5.15625 -7.445312 5.09375 -7.4375 C 5.039062 -7.4375 4.984375 -7.4375 4.921875 -7.4375 C 4.472656 -7.414062 4.078125 -7.71875 3.734375 -8.34375 L 1.78125 -5.515625 C 0.738281 -4.003906 0.09375 -3.242188 -0.15625 -3.234375 C -0.25 -3.234375 -0.300781 -3.273438 -0.3125 -3.359375 C -0.3125 -3.453125 -0.269531 -3.570312 -0.1875 -3.71875 C -0.132812 -3.832031 -0.0234375 -3.988281 0.140625 -4.1875 C 0.816406 -5.050781 1.4375 -5.90625 2 -6.75 C 2.5625 -7.59375 3.023438 -8.410156 3.390625 -9.203125 C 3.742188 -10.867188 4.253906 -11.71875 4.921875 -11.75 C 5.359375 -11.769531 5.585938 -11.582031 5.609375 -11.1875 C 5.617188 -10.832031 5.398438 -10.347656 4.953125 -9.734375 C 4.535156 -9.128906 4.328125 -8.816406 4.328125 -8.796875 C 4.347656 -8.398438 4.648438 -8.21875 5.234375 -8.25 C 5.578125 -8.257812 5.945312 -8.394531 6.34375 -8.65625 L 7.046875 -9.171875 C 7.085938 -9.179688 7.144531 -9.1875 7.21875 -9.1875 C 7.445312 -9.195312 7.648438 -9.113281 7.828125 -8.9375 C 8.003906 -8.757812 8.070312 -8.59375 8.03125 -8.4375 L 6.1875 -5.875 C 5.0625 -4.269531 4.519531 -2.992188 4.5625 -2.046875 C 4.601562 -1.203125 5.039062 -0.800781 5.875 -0.84375 C 6.4375 -0.863281 7.035156 -1.0625 7.671875 -1.4375 C 8.304688 -1.8125 8.914062 -2.257812 9.5 -2.78125 C 10.09375 -3.3125 10.585938 -3.828125 10.984375 -4.328125 L 11.640625 -5.15625 C 11.671875 -5.195312 11.710938 -5.242188 11.765625 -5.296875 C 11.816406 -5.359375 11.863281 -5.390625 11.90625 -5.390625 C 12.039062 -5.398438 12.109375 -5.34375 12.109375 -5.21875 C 12.117188 -5.175781 12.109375 -5.109375 12.078125 -5.015625 C 12.046875 -4.921875 11.976562 -4.8125 11.875 -4.6875 L 11.015625 -3.609375 C 10.609375 -3.097656 10.097656 -2.578125 9.484375 -2.046875 C 8.878906 -1.515625 8.25 -1.070312 7.59375 -0.71875 C 6.9375 -0.363281 6.335938 -0.171875 5.796875 -0.140625 Z M 5.796875 -0.140625 "/></g></g></g><g fill="#000000" fill-opacity="1"><g transform="translate(85.232676, 41.904612)"><g><path d="M -1.386719 -7.804688 C 1.585938 -7.964844 5.660156 -16.125 7.097656 -16.011719 C 8.503906 -15.890625 5.46875 -5.828125 1.054688 -2.734375 C 0.328125 -1.921875 1.222656 -1.179688 1.902344 -1.367188 C 4.460938 -2.085938 6.808594 0.792969 7.617188 2.460938 C -4.167969 15.027344 1.308594 22.964844 6.65625 21.769531 C 11.347656 20.714844 14.839844 10.765625 9.417969 1.441406 C 12.277344 -1.484375 15.738281 -5.59375 18.5 -12.660156 C 18.460938 -12.835938 17.910156 -12.710938 17.839844 -12.550781 C 15.53125 -6.523438 12.570312 -2.601562 9.121094 0.925781 C 7.042969 -2.195312 4.320312 -2.382812 2.105469 -1.921875 C 1.40625 -1.800781 1.667969 -2.257812 1.796875 -2.324219 C 8.554688 -5.792969 10.414062 -15.777344 7.480469 -16.566406 C 5.554688 -17.078125 1.425781 -8.832031 -1.074219 -8.347656 C -0.332031 -11.011719 0.378906 -14.792969 -1.351562 -14.914062 C -4.730469 -14.953125 -5.253906 -7.589844 -1.386719 -7.804688 Z M 7.84375 2.988281 C 11.589844 10.007812 11.097656 19.285156 6.996094 21.183594 C 2.691406 23.164062 -4.15625 15.714844 7.84375 2.988281 Z M -1.683594 -8.316406 C -4.148438 -8.488281 -3.804688 -14.21875 -1.535156 -14.4375 C -0.183594 -14.558594 -1.164062 -9.558594 -1.683594 -8.316406 Z M -1.683594 -8.316406 "/></g></g></g><g clip-path="url(#323dfb9381)"><g clip-path="url(#047e3eed75)"><path fill="#000000" d="M 104.273438 38.328125 C 90.789062 39.09375 77.3125 40.179688 63.882812 41.6875 C 50.441406 43.222656 37.03125 45.125 23.78125 47.925781 C 22.324219 48.289062 22.84375 50.386719 24.265625 50.089844 C 50.554688 44.0625 77.445312 41.023438 104.304688 38.835938 C 104.441406 38.824219 104.546875 38.707031 104.539062 38.570312 C 104.53125 38.425781 104.410156 38.324219 104.273438 38.332031 Z M 104.273438 38.328125 " fill-opacity="1" fill-rule="nonzero"/></g></g><g clip-path="url(#fe10cceb21)"><g clip-path="url(#610bab0d7d)"><path fill="#000000" d="M 106.414062 38.476562 C 106.414062 38.574219 106.378906 38.65625 106.308594 38.726562 C 106.242188 38.796875 106.15625 38.832031 106.058594 38.832031 C 105.960938 38.832031 105.878906 38.796875 105.808594 38.726562 C 105.742188 38.65625 105.707031 38.574219 105.707031 38.476562 C 105.707031 38.378906 105.742188 38.296875 105.808594 38.226562 C 105.878906 38.15625 105.960938 38.121094 106.058594 38.121094 C 106.15625 38.121094 106.242188 38.15625 106.308594 38.226562 C 106.378906 38.296875 106.414062 38.378906 106.414062 38.476562 Z M 106.414062 38.476562 " fill-opacity="1" fill-rule="nonzero"/></g></g><g fill="#000000" fill-opacity="1"><g transform="translate(1.402776, 67.093778)"><g><path d="M 1.390625 -2.5625 C 1.617188 -2.5625 1.8125 -2.523438 1.96875 -2.453125 C 2.132812 -2.378906 2.257812 -2.273438 2.34375 -2.140625 C 2.4375 -2.003906 2.484375 -1.84375 2.484375 -1.65625 C 2.484375 -1.46875 2.4375 -1.300781 2.34375 -1.15625 C 2.257812 -1.019531 2.132812 -0.914062 1.96875 -0.84375 C 1.8125 -0.769531 1.617188 -0.734375 1.390625 -0.734375 L 0.8125 -0.734375 L 0.8125 0 L 0.34375 0 L 0.34375 -2.5625 Z M 1.375 -1.140625 C 1.582031 -1.140625 1.738281 -1.179688 1.84375 -1.265625 C 1.945312 -1.359375 2 -1.488281 2 -1.65625 C 2 -1.8125 1.945312 -1.929688 1.84375 -2.015625 C 1.738281 -2.109375 1.582031 -2.15625 1.375 -2.15625 L 0.8125 -2.15625 L 0.8125 -1.140625 Z M 1.375 -1.140625 "/></g></g></g><g fill="#000000" fill-opacity="1"><g transform="translate(6.029245, 67.093778)"><g><path d="M 2.625 -2.5625 L 2.625 0 L 2.140625 0 L 2.140625 -1.09375 L 0.8125 -1.09375 L 0.8125 0 L 0.34375 0 L 0.34375 -2.5625 L 0.8125 -2.5625 L 0.8125 -1.5 L 2.140625 -1.5 L 2.140625 -2.5625 Z M 2.625 -2.5625 "/></g></g></g><g fill="#000000" fill-opacity="1"><g transform="translate(10.962924, 67.093778)"><g><path d="M 1.546875 0.03125 C 1.273438 0.03125 1.035156 -0.0195312 0.828125 -0.125 C 0.617188 -0.238281 0.453125 -0.394531 0.328125 -0.59375 C 0.210938 -0.800781 0.15625 -1.03125 0.15625 -1.28125 C 0.15625 -1.53125 0.210938 -1.753906 0.328125 -1.953125 C 0.453125 -2.148438 0.617188 -2.304688 0.828125 -2.421875 C 1.035156 -2.535156 1.273438 -2.59375 1.546875 -2.59375 C 1.804688 -2.59375 2.039062 -2.535156 2.25 -2.421875 C 2.457031 -2.304688 2.617188 -2.148438 2.734375 -1.953125 C 2.859375 -1.753906 2.921875 -1.53125 2.921875 -1.28125 C 2.921875 -1.03125 2.859375 -0.800781 2.734375 -0.59375 C 2.617188 -0.394531 2.457031 -0.238281 2.25 -0.125 C 2.039062 -0.0195312 1.804688 0.03125 1.546875 0.03125 Z M 1.546875 -0.375 C 1.710938 -0.375 1.863281 -0.410156 2 -0.484375 C 2.132812 -0.566406 2.238281 -0.675781 2.3125 -0.8125 C 2.394531 -0.957031 2.4375 -1.113281 2.4375 -1.28125 C 2.4375 -1.445312 2.394531 -1.597656 2.3125 -1.734375 C 2.238281 -1.878906 2.132812 -1.988281 2 -2.0625 C 1.863281 -2.132812 1.710938 -2.171875 1.546875 -2.171875 C 1.367188 -2.171875 1.210938 -2.132812 1.078125 -2.0625 C 0.941406 -1.988281 0.832031 -1.878906 0.75 -1.734375 C 0.675781 -1.597656 0.640625 -1.445312 0.640625 -1.28125 C 0.640625 -1.113281 0.675781 -0.957031 0.75 -0.8125 C 0.832031 -0.675781 0.941406 -0.566406 1.078125 -0.484375 C 1.210938 -0.410156 1.367188 -0.375 1.546875 -0.375 Z M 1.546875 -0.375 "/></g></g></g><g fill="#000000" fill-opacity="1"><g transform="translate(16.013636, 67.093778)"><g><path d="M 0.859375 -2.15625 L 0.015625 -2.15625 L 0.015625 -2.5625 L 2.1875 -2.5625 L 2.1875 -2.15625 L 1.34375 -2.15625 L 1.34375 0 L 0.859375 0 Z M 0.859375 -2.15625 "/></g></g></g><g fill="#000000" fill-opacity="1"><g transform="translate(20.186598, 67.093778)"><g><path d="M 1.546875 0.03125 C 1.273438 0.03125 1.035156 -0.0195312 0.828125 -0.125 C 0.617188 -0.238281 0.453125 -0.394531 0.328125 -0.59375 C 0.210938 -0.800781 0.15625 -1.03125 0.15625 -1.28125 C 0.15625 -1.53125 0.210938 -1.753906 0.328125 -1.953125 C 0.453125 -2.148438 0.617188 -2.304688 0.828125 -2.421875 C 1.035156 -2.535156 1.273438 -2.59375 1.546875 -2.59375 C 1.804688 -2.59375 2.039062 -2.535156 2.25 -2.421875 C 2.457031 -2.304688 2.617188 -2.148438 2.734375 -1.953125 C 2.859375 -1.753906 2.921875 -1.53125 2.921875 -1.28125 C 2.921875 -1.03125 2.859375 -0.800781 2.734375 -0.59375 C 2.617188 -0.394531 2.457031 -0.238281 2.25 -0.125 C 2.039062 -0.0195312 1.804688 0.03125 1.546875 0.03125 Z M 1.546875 -0.375 C 1.710938 -0.375 1.863281 -0.410156 2 -0.484375 C 2.132812 -0.566406 2.238281 -0.675781 2.3125 -0.8125 C 2.394531 -0.957031 2.4375 -1.113281 2.4375 -1.28125 C 2.4375 -1.445312 2.394531 -1.597656 2.3125 -1.734375 C 2.238281 -1.878906 2.132812 -1.988281 2 -2.0625 C 1.863281 -2.132812 1.710938 -2.171875 1.546875 -2.171875 C 1.367188 -2.171875 1.210938 -2.132812 1.078125 -2.0625 C 0.941406 -1.988281 0.832031 -1.878906 0.75 -1.734375 C 0.675781 -1.597656 0.640625 -1.445312 0.640625 -1.28125 C 0.640625 -1.113281 0.675781 -0.957031 0.75 -0.8125 C 0.832031 -0.675781 0.941406 -0.566406 1.078125 -0.484375 C 1.210938 -0.410156 1.367188 -0.375 1.546875 -0.375 Z M 1.546875 -0.375 "/></g></g></g><g fill="#000000" fill-opacity="1"><g transform="translate(25.237311, 67.093778)"><g><path d="M 2.09375 -1.3125 L 2.546875 -1.3125 L 2.546875 -0.28125 C 2.410156 -0.175781 2.253906 -0.0976562 2.078125 -0.046875 C 1.898438 0.00390625 1.722656 0.03125 1.546875 0.03125 C 1.273438 0.03125 1.035156 -0.0195312 0.828125 -0.125 C 0.617188 -0.238281 0.453125 -0.394531 0.328125 -0.59375 C 0.210938 -0.800781 0.15625 -1.03125 0.15625 -1.28125 C 0.15625 -1.53125 0.210938 -1.753906 0.328125 -1.953125 C 0.453125 -2.148438 0.617188 -2.304688 0.828125 -2.421875 C 1.046875 -2.535156 1.285156 -2.59375 1.546875 -2.59375 C 1.765625 -2.59375 1.957031 -2.554688 2.125 -2.484375 C 2.300781 -2.421875 2.453125 -2.316406 2.578125 -2.171875 L 2.28125 -1.890625 C 2.082031 -2.078125 1.84375 -2.171875 1.5625 -2.171875 C 1.382812 -2.171875 1.222656 -2.132812 1.078125 -2.0625 C 0.941406 -1.988281 0.832031 -1.882812 0.75 -1.75 C 0.675781 -1.613281 0.640625 -1.457031 0.640625 -1.28125 C 0.640625 -1.113281 0.675781 -0.957031 0.75 -0.8125 C 0.832031 -0.675781 0.941406 -0.566406 1.078125 -0.484375 C 1.222656 -0.410156 1.382812 -0.375 1.5625 -0.375 C 1.757812 -0.375 1.9375 -0.421875 2.09375 -0.515625 Z M 2.09375 -1.3125 "/></g></g></g><g fill="#000000" fill-opacity="1"><g transform="translate(30.032017, 67.093778)"><g><path d="M 2.015625 0 L 1.5 -0.75 C 1.476562 -0.75 1.441406 -0.75 1.390625 -0.75 L 0.8125 -0.75 L 0.8125 0 L 0.34375 0 L 0.34375 -2.5625 L 1.390625 -2.5625 C 1.617188 -2.5625 1.8125 -2.523438 1.96875 -2.453125 C 2.132812 -2.378906 2.257812 -2.273438 2.34375 -2.140625 C 2.4375 -2.003906 2.484375 -1.84375 2.484375 -1.65625 C 2.484375 -1.457031 2.4375 -1.285156 2.34375 -1.140625 C 2.25 -1.003906 2.113281 -0.90625 1.9375 -0.84375 L 2.53125 0 Z M 2 -1.65625 C 2 -1.8125 1.945312 -1.929688 1.84375 -2.015625 C 1.738281 -2.109375 1.582031 -2.15625 1.375 -2.15625 L 0.8125 -2.15625 L 0.8125 -1.140625 L 1.375 -1.140625 C 1.582031 -1.140625 1.738281 -1.179688 1.84375 -1.265625 C 1.945312 -1.359375 2 -1.488281 2 -1.65625 Z M 2 -1.65625 "/></g></g></g><g fill="#000000" fill-opacity="1"><g transform="translate(34.676773, 67.093778)"><g><path d="M 2 -0.59375 L 0.71875 -0.59375 L 0.46875 0 L -0.015625 0 L 1.140625 -2.5625 L 1.59375 -2.5625 L 2.75 0 L 2.265625 0 Z M 1.84375 -0.96875 L 1.359375 -2.078125 L 0.890625 -0.96875 Z M 1.84375 -0.96875 "/></g></g></g><g fill="#000000" fill-opacity="1"><g transform="translate(39.38736, 67.093778)"><g><path d="M 1.390625 -2.5625 C 1.617188 -2.5625 1.8125 -2.523438 1.96875 -2.453125 C 2.132812 -2.378906 2.257812 -2.273438 2.34375 -2.140625 C 2.4375 -2.003906 2.484375 -1.84375 2.484375 -1.65625 C 2.484375 -1.46875 2.4375 -1.300781 2.34375 -1.15625 C 2.257812 -1.019531 2.132812 -0.914062 1.96875 -0.84375 C 1.8125 -0.769531 1.617188 -0.734375 1.390625 -0.734375 L 0.8125 -0.734375 L 0.8125 0 L 0.34375 0 L 0.34375 -2.5625 Z M 1.375 -1.140625 C 1.582031 -1.140625 1.738281 -1.179688 1.84375 -1.265625 C 1.945312 -1.359375 2 -1.488281 2 -1.65625 C 2 -1.8125 1.945312 -1.929688 1.84375 -2.015625 C 1.738281 -2.109375 1.582031 -2.15625 1.375 -2.15625 L 0.8125 -2.15625 L 0.8125 -1.140625 Z M 1.375 -1.140625 "/></g></g></g><g fill="#000000" fill-opacity="1"><g transform="translate(44.013828, 67.093778)"><g><path d="M 2.625 -2.5625 L 2.625 0 L 2.140625 0 L 2.140625 -1.09375 L 0.8125 -1.09375 L 0.8125 0 L 0.34375 0 L 0.34375 -2.5625 L 0.8125 -2.5625 L 0.8125 -1.5 L 2.140625 -1.5 L 2.140625 -2.5625 Z M 2.625 -2.5625 "/></g></g></g><g fill="#000000" fill-opacity="1"><g transform="translate(48.947508, 67.093778)"><g><path d="M 1.453125 -0.90625 L 1.453125 0 L 0.96875 0 L 0.96875 -0.890625 L -0.03125 -2.5625 L 0.46875 -2.5625 L 1.21875 -1.3125 L 1.984375 -2.5625 L 2.453125 -2.5625 Z M 1.453125 -0.90625 "/></g></g></g><g fill="#000000" fill-opacity="1"><g transform="translate(53.336251, 67.093778)"><g/></g></g><g fill="#000000" fill-opacity="1"><g transform="translate(56.316937, 67.093778)"><g><path d="M 0.34375 -2.71875 L 0.765625 -2.71875 L 0.765625 0.703125 L 0.34375 0.703125 Z M 0.34375 -2.71875 "/></g></g></g><g fill="#000000" fill-opacity="1"><g transform="translate(59.39637, 67.093778)"><g/></g></g><g fill="#000000" fill-opacity="1"><g transform="translate(62.377056, 67.093778)"><g><path d="M 2.265625 -0.40625 L 2.265625 0 L 0.34375 0 L 0.34375 -2.5625 L 2.21875 -2.5625 L 2.21875 -2.15625 L 0.8125 -2.15625 L 0.8125 -1.5 L 2.0625 -1.5 L 2.0625 -1.109375 L 0.8125 -1.109375 L 0.8125 -0.40625 Z M 2.265625 -0.40625 "/></g></g></g><g fill="#000000" fill-opacity="1"><g transform="translate(66.798715, 67.093778)"><g><path d="M 0.34375 -2.5625 L 1.46875 -2.5625 C 1.738281 -2.5625 1.976562 -2.503906 2.1875 -2.390625 C 2.40625 -2.285156 2.570312 -2.132812 2.6875 -1.9375 C 2.800781 -1.75 2.859375 -1.53125 2.859375 -1.28125 C 2.859375 -1.03125 2.800781 -0.804688 2.6875 -0.609375 C 2.570312 -0.410156 2.40625 -0.257812 2.1875 -0.15625 C 1.976562 -0.0507812 1.738281 0 1.46875 0 L 0.34375 0 Z M 1.4375 -0.40625 C 1.625 -0.40625 1.789062 -0.441406 1.9375 -0.515625 C 2.082031 -0.585938 2.191406 -0.6875 2.265625 -0.8125 C 2.335938 -0.945312 2.375 -1.101562 2.375 -1.28125 C 2.375 -1.457031 2.335938 -1.609375 2.265625 -1.734375 C 2.191406 -1.867188 2.082031 -1.972656 1.9375 -2.046875 C 1.789062 -2.117188 1.625 -2.15625 1.4375 -2.15625 L 0.8125 -2.15625 L 0.8125 -0.40625 Z M 1.4375 -0.40625 "/></g></g></g><g fill="#000000" fill-opacity="1"><g transform="translate(71.790912, 67.093778)"><g><path d="M 0.34375 -2.5625 L 0.8125 -2.5625 L 0.8125 0 L 0.34375 0 Z M 0.34375 -2.5625 "/></g></g></g><g fill="#000000" fill-opacity="1"><g transform="translate(74.928862, 67.093778)"><g><path d="M 0.859375 -2.15625 L 0.015625 -2.15625 L 0.015625 -2.5625 L 2.1875 -2.5625 L 2.1875 -2.15625 L 1.34375 -2.15625 L 1.34375 0 L 0.859375 0 Z M 0.859375 -2.15625 "/></g></g></g><g fill="#000000" fill-opacity="1"><g transform="translate(79.101824, 67.093778)"><g><path d="M 0.34375 -2.5625 L 0.8125 -2.5625 L 0.8125 0 L 0.34375 0 Z M 0.34375 -2.5625 "/></g></g></g><g fill="#000000" fill-opacity="1"><g transform="translate(82.239774, 67.093778)"><g><path d="M 2.625 -2.5625 L 2.625 0 L 2.234375 0 L 0.8125 -1.734375 L 0.8125 0 L 0.34375 0 L 0.34375 -2.5625 L 0.734375 -2.5625 L 2.140625 -0.828125 L 2.140625 -2.5625 Z M 2.625 -2.5625 "/></g></g></g><g fill="#000000" fill-opacity="1"><g transform="translate(87.173449, 67.093778)"><g><path d="M 2.09375 -1.3125 L 2.546875 -1.3125 L 2.546875 -0.28125 C 2.410156 -0.175781 2.253906 -0.0976562 2.078125 -0.046875 C 1.898438 0.00390625 1.722656 0.03125 1.546875 0.03125 C 1.273438 0.03125 1.035156 -0.0195312 0.828125 -0.125 C 0.617188 -0.238281 0.453125 -0.394531 0.328125 -0.59375 C 0.210938 -0.800781 0.15625 -1.03125 0.15625 -1.28125 C 0.15625 -1.53125 0.210938 -1.753906 0.328125 -1.953125 C 0.453125 -2.148438 0.617188 -2.304688 0.828125 -2.421875 C 1.046875 -2.535156 1.285156 -2.59375 1.546875 -2.59375 C 1.765625 -2.59375 1.957031 -2.554688 2.125 -2.484375 C 2.300781 -2.421875 2.453125 -2.316406 2.578125 -2.171875 L 2.28125 -1.890625 C 2.082031 -2.078125 1.84375 -2.171875 1.5625 -2.171875 C 1.382812 -2.171875 1.222656 -2.132812 1.078125 -2.0625 C 0.941406 -1.988281 0.832031 -1.882812 0.75 -1.75 C 0.675781 -1.613281 0.640625 -1.457031 0.640625 -1.28125 C 0.640625 -1.113281 0.675781 -0.957031 0.75 -0.8125 C 0.832031 -0.675781 0.941406 -0.566406 1.078125 -0.484375 C 1.222656 -0.410156 1.382812 -0.375 1.5625 -0.375 C 1.757812 -0.375 1.9375 -0.421875 2.09375 -0.515625 Z M 2.09375 -1.3125 "/></g></g></g><g fill="#000000" fill-opacity="1"><g transform="translate(91.96815, 67.093778)"><g/></g></g><g fill="#000000" fill-opacity="1"><g transform="translate(94.948835, 67.093778)"><g><path d="M 0.34375 -2.71875 L 0.765625 -2.71875 L 0.765625 0.703125 L 0.34375 0.703125 Z M 0.34375 -2.71875 "/></g></g></g><g fill="#000000" fill-opacity="1"><g transform="translate(98.028269, 67.093778)"><g/></g></g><g fill="#000000" fill-opacity="1"><g transform="translate(101.008955, 67.093778)"><g><path d="M 0.34375 -2.5625 L 1.46875 -2.5625 C 1.738281 -2.5625 1.976562 -2.503906 2.1875 -2.390625 C 2.40625 -2.285156 2.570312 -2.132812 2.6875 -1.9375 C 2.800781 -1.75 2.859375 -1.53125 2.859375 -1.28125 C 2.859375 -1.03125 2.800781 -0.804688 2.6875 -0.609375 C 2.570312 -0.410156 2.40625 -0.257812 2.1875 -0.15625 C 1.976562 -0.0507812 1.738281 0 1.46875 0 L 0.34375 0 Z M 1.4375 -0.40625 C 1.625 -0.40625 1.789062 -0.441406 1.9375 -0.515625 C 2.082031 -0.585938 2.191406 -0.6875 2.265625 -0.8125 C 2.335938 -0.945312 2.375 -1.101562 2.375 -1.28125 C 2.375 -1.457031 2.335938 -1.609375 2.265625 -1.734375 C 2.191406 -1.867188 2.082031 -1.972656 1.9375 -2.046875 C 1.789062 -2.117188 1.625 -2.15625 1.4375 -2.15625 L 0.8125 -2.15625 L 0.8125 -0.40625 Z M 1.4375 -0.40625 "/></g></g></g><g fill="#000000" fill-opacity="1"><g transform="translate(106.001151, 67.093778)"><g><path d="M 2.265625 -0.40625 L 2.265625 0 L 0.34375 0 L 0.34375 -2.5625 L 2.21875 -2.5625 L 2.21875 -2.15625 L 0.8125 -2.15625 L 0.8125 -1.5 L 2.0625 -1.5 L 2.0625 -1.109375 L 0.8125 -1.109375 L 0.8125 -0.40625 Z M 2.265625 -0.40625 "/></g></g></g><g fill="#000000" fill-opacity="1"><g transform="translate(110.42281, 67.093778)"><g><path d="M 1.140625 0.03125 C 0.941406 0.03125 0.75 0.00390625 0.5625 -0.046875 C 0.375 -0.0976562 0.226562 -0.171875 0.125 -0.265625 L 0.296875 -0.640625 C 0.398438 -0.554688 0.523438 -0.488281 0.671875 -0.4375 C 0.828125 -0.382812 0.984375 -0.359375 1.140625 -0.359375 C 1.328125 -0.359375 1.46875 -0.390625 1.5625 -0.453125 C 1.65625 -0.515625 1.703125 -0.59375 1.703125 -0.6875 C 1.703125 -0.757812 1.675781 -0.816406 1.625 -0.859375 C 1.570312 -0.910156 1.503906 -0.953125 1.421875 -0.984375 C 1.347656 -1.015625 1.238281 -1.046875 1.09375 -1.078125 C 0.894531 -1.117188 0.734375 -1.160156 0.609375 -1.203125 C 0.492188 -1.253906 0.394531 -1.328125 0.3125 -1.421875 C 0.226562 -1.523438 0.1875 -1.660156 0.1875 -1.828125 C 0.1875 -1.972656 0.222656 -2.101562 0.296875 -2.21875 C 0.367188 -2.332031 0.484375 -2.421875 0.640625 -2.484375 C 0.796875 -2.554688 0.988281 -2.59375 1.21875 -2.59375 C 1.375 -2.59375 1.523438 -2.570312 1.671875 -2.53125 C 1.828125 -2.5 1.957031 -2.445312 2.0625 -2.375 L 1.921875 -2 C 1.804688 -2.0625 1.6875 -2.109375 1.5625 -2.140625 C 1.4375 -2.179688 1.316406 -2.203125 1.203125 -2.203125 C 1.015625 -2.203125 0.875 -2.171875 0.78125 -2.109375 C 0.695312 -2.046875 0.65625 -1.960938 0.65625 -1.859375 C 0.65625 -1.785156 0.679688 -1.722656 0.734375 -1.671875 C 0.785156 -1.628906 0.847656 -1.59375 0.921875 -1.5625 C 1.003906 -1.539062 1.117188 -1.507812 1.265625 -1.46875 C 1.453125 -1.425781 1.601562 -1.378906 1.71875 -1.328125 C 1.84375 -1.285156 1.945312 -1.210938 2.03125 -1.109375 C 2.125 -1.015625 2.171875 -0.882812 2.171875 -0.71875 C 2.171875 -0.582031 2.128906 -0.457031 2.046875 -0.34375 C 1.972656 -0.226562 1.859375 -0.132812 1.703125 -0.0625 C 1.546875 0 1.359375 0.03125 1.140625 0.03125 Z M 1.140625 0.03125 "/></g></g></g><g fill="#000000" fill-opacity="1"><g transform="translate(114.69452, 67.093778)"><g><path d="M 0.34375 -2.5625 L 0.8125 -2.5625 L 0.8125 0 L 0.34375 0 Z M 0.34375 -2.5625 "/></g></g></g><g fill="#000000" fill-opacity="1"><g transform="translate(117.832466, 67.093778)"><g><path d="M 2.09375 -1.3125 L 2.546875 -1.3125 L 2.546875 -0.28125 C 2.410156 -0.175781 2.253906 -0.0976562 2.078125 -0.046875 C 1.898438 0.00390625 1.722656 0.03125 1.546875 0.03125 C 1.273438 0.03125 1.035156 -0.0195312 0.828125 -0.125 C 0.617188 -0.238281 0.453125 -0.394531 0.328125 -0.59375 C 0.210938 -0.800781 0.15625 -1.03125 0.15625 -1.28125 C 0.15625 -1.53125 0.210938 -1.753906 0.328125 -1.953125 C 0.453125 -2.148438 0.617188 -2.304688 0.828125 -2.421875 C 1.046875 -2.535156 1.285156 -2.59375 1.546875 -2.59375 C 1.765625 -2.59375 1.957031 -2.554688 2.125 -2.484375 C 2.300781 -2.421875 2.453125 -2.316406 2.578125 -2.171875 L 2.28125 -1.890625 C 2.082031 -2.078125 1.84375 -2.171875 1.5625 -2.171875 C 1.382812 -2.171875 1.222656 -2.132812 1.078125 -2.0625 C 0.941406 -1.988281 0.832031 -1.882812 0.75 -1.75 C 0.675781 -1.613281 0.640625 -1.457031 0.640625 -1.28125 C 0.640625 -1.113281 0.675781 -0.957031 0.75 -0.8125 C 0.832031 -0.675781 0.941406 -0.566406 1.078125 -0.484375 C 1.222656 -0.410156 1.382812 -0.375 1.5625 -0.375 C 1.757812 -0.375 1.9375 -0.421875 2.09375 -0.515625 Z M 2.09375 -1.3125 "/></g></g></g><g fill="#000000" fill-opacity="1"><g transform="translate(122.627166, 67.093778)"><g><path d="M 2.625 -2.5625 L 2.625 0 L 2.234375 0 L 0.8125 -1.734375 L 0.8125 0 L 0.34375 0 L 0.34375 -2.5625 L 0.734375 -2.5625 L 2.140625 -0.828125 L 2.140625 -2.5625 Z M 2.625 -2.5625 "/></g></g></g><g clip-path="url(#5a073513f6)"><path fill="#000000" d="M 21.851562 67.078125 C 21.671875 67.230469 21.476562 67.363281 21.265625 67.476562 C 21.210938 67.507812 21.152344 67.535156 21.089844 67.5625 C 20.625 67.378906 20.328125 67.050781 20.195312 66.585938 C 20.257812 66.621094 20.324219 66.65625 20.386719 66.6875 C 20.84375 66.925781 21.332031 67.054688 21.851562 67.078125 Z M 20.976562 66.785156 C 20.738281 66.347656 20.609375 65.878906 20.59375 65.386719 C 20.59375 65.316406 20.59375 65.25 20.59375 65.179688 C 20.296875 65.464844 20.148438 65.808594 20.144531 66.207031 C 20.144531 66.273438 20.152344 66.335938 20.160156 66.398438 C 20.214844 66.433594 20.269531 66.46875 20.324219 66.5 C 20.53125 66.617188 20.746094 66.710938 20.976562 66.785156 Z M 21.878906 64.894531 C 21.941406 64.859375 22.003906 64.824219 22.070312 64.792969 C 21.585938 64.667969 21.144531 64.753906 20.746094 65.046875 C 20.746094 65.109375 20.738281 65.171875 20.738281 65.234375 C 20.734375 65.464844 20.757812 65.691406 20.804688 65.914062 C 21.082031 65.496094 21.441406 65.160156 21.878906 64.894531 Z M 22.96875 65.71875 C 23.03125 65.753906 23.097656 65.785156 23.15625 65.824219 C 23.027344 65.355469 22.730469 65.03125 22.261719 64.847656 C 22.203125 64.871094 22.144531 64.902344 22.089844 64.933594 C 21.878906 65.046875 21.683594 65.175781 21.503906 65.332031 C 22.023438 65.355469 22.511719 65.484375 22.96875 65.71875 Z M 22.761719 67.242188 C 23.0625 66.957031 23.210938 66.613281 23.210938 66.207031 C 23.210938 66.144531 23.207031 66.082031 23.195312 66.019531 C 23.144531 65.984375 23.085938 65.949219 23.03125 65.917969 C 22.824219 65.800781 22.609375 65.707031 22.378906 65.640625 C 22.617188 66.078125 22.746094 66.542969 22.761719 67.035156 C 22.773438 67.105469 22.773438 67.175781 22.761719 67.242188 Z M 21.476562 67.523438 C 21.414062 67.558594 21.351562 67.59375 21.285156 67.625 C 21.769531 67.75 22.210938 67.664062 22.609375 67.371094 C 22.609375 67.308594 22.617188 67.246094 22.621094 67.183594 C 22.621094 66.953125 22.601562 66.726562 22.550781 66.503906 C 22.273438 66.917969 21.917969 67.257812 21.476562 67.519531 Z M 21.476562 67.523438 " fill-opacity="1" fill-rule="nonzero"/></g></svg>